<?xml version="1.0" standalone="no"?>
<!DOCTYPE svg PUBLIC "-//W3C//DTD SVG 1.1//EN" "http://www.w3.org/Graphics/SVG/1.1/DTD/svg11.dtd" >
<svg xmlns="http://www.w3.org/2000/svg" xmlns:xlink="http://www.w3.org/1999/xlink" version="1.1">
<metadata>
Created by FontForge 20190801 at Fri Feb 14 18:49:30 2014
 By Jimmy Wärting
COPYRIGHT c 2004-2014 by TypoDesign Lab. Inc. All rights reserved. Font designed by TypoDesign Lab. Inc.
</metadata>
<defs>
<font id="TypoPapyrusM" horiz-adv-x="710" >
  <font-face 
    font-family="Typo_Papyrus M"
    font-weight="400"
    font-stretch="normal"
    units-per-em="1000"
    panose-1="2 2 5 3 2 1 1 2 1 1"
    ascent="858"
    descent="-142"
    x-height="451"
    cap-height="688"
    bbox="-40 -142 900 858"
    underline-thickness="25"
    underline-position="-154"
    unicode-range="U+0020-FFE6"
  />
<missing-glyph horiz-adv-x="1000" 
d="M100 -42v800h800v-800h-800zM150 8h700v700h-700v-700z" />
    <glyph glyph-name=".notdef" horiz-adv-x="1000" 
d="M100 -42v800h800v-800h-800zM150 8h700v700h-700v-700z" />
    <glyph glyph-name="glyph1" horiz-adv-x="0" 
 />
    <glyph glyph-name="glyph2" horiz-adv-x="1000" 
 />
    <glyph glyph-name="space" unicode=" " horiz-adv-x="200" 
d="M0 -142z" />
    <glyph glyph-name="exclam" unicode="!" horiz-adv-x="250" 
d="M137 672q31 -4 58 -19q-61 -180 -85 -345q-6 -35 -18 -12q-13 24 -11 68q8 149 56 308zM115 224q32 -22 8 -61q-27 -40 -63 -40q-9 0 -9 15q0 43 44 84q10 8 20 2z" />
    <glyph glyph-name="quotedbl" unicode="&#x22;" horiz-adv-x="300" 
d="M155 679q-43 -57 -76 -121q-9 -19 -17 0q-7 25 -2 47q13 56 45 92q23 3 50 -18zM251 679q-43 -57 -76 -121q-9 -19 -17 0q-7 25 -2 47q13 56 45 92q23 3 50 -18z" />
    <glyph glyph-name="numbersign" unicode="#" horiz-adv-x="512" 
d="M355 333q53 0 93 -8q17 -4 0 -12q-34 -15 -81 -9q-24 -2 -47 -5q-13 -81 -15 -164q-2 -34 -16 -11q-13 21 -17 55q-3 56 1 112q-61 -12 -121 -35q-6 -48 -6 -98q-1 -32 -16 -12q-13 19 -16 56q-1 19 -1 39q-38 -17 -75 -38q-27 23 -25 51q51 24 102 41q4 44 12 90
q3 14 5 28q-30 -14 -59 -30q-27 24 -25 51q49 22 97 37q17 69 40 129q37 -1 59 -15q-22 -48 -39 -97q53 12 106 17q19 71 43 125q37 -1 60 -15q-23 -52 -42 -106h26q54 -1 96 -8q13 -2 1 -9q-36 -20 -86 -11q-24 -2 -48 -5q-22 -71 -35 -144q14 1 29 1zM159 307
q58 16 117 22q3 27 8 55q8 44 17 83q-58 -12 -113 -32q-19 -63 -29 -128z" />
    <glyph glyph-name="dollar" unicode="$" horiz-adv-x="347" 
d="M199 669q30 3 63 -10q-8 -20 -15 -41q27 4 58 5q13 -19 14 -51q-50 -3 -90 -10q-25 -82 -44 -172q8 -2 17 -4q147 -34 128 -132q-21 -99 -160 -109q-11 -1 -21 0q-4 -32 -6 -64q-2 -22 -15 -2q-8 13 -9 36v33q-51 10 -94 47q-8 8 -11 20q-4 15 21 4q42 -22 85 -28
q3 84 14 167q-107 41 -97 110q16 103 144 138q8 32 18 63zM176 343q-13 -75 -23 -155q11 0 22 1q88 9 104 76q11 50 -83 73q-10 3 -20 5zM140 405q10 71 26 141q-73 -27 -85 -81q-6 -34 59 -60z" />
    <glyph glyph-name="percent" unicode="%" horiz-adv-x="518" 
d="M88 129q4 45 24 89q95 204 304 434q28 -16 47 -36q-211 -220 -353 -482q-23 -40 -22 -5zM176 618q15 -1 25 -8q43 -38 31 -86q-13 -48 -76 -89q-36 -20 -70 -4q-29 18 -35 48q-9 55 53 120q23 22 42 36q22 -4 30 -17zM167 594q-11 -4 -23 -14q-50 -52 -50 -104
q0 -17 10 -17q36 2 68 56q31 53 -5 79zM424 374q16 -1 28 -9q41 -38 29 -90q-15 -54 -76 -92q-40 -23 -77 -7q-28 16 -35 50q-10 61 53 128q25 25 47 40q22 -7 31 -20zM415 352q-12 -4 -25 -15q-56 -58 -56 -113q0 -20 11 -19q45 5 75 56q34 58 -5 91z" />
    <glyph glyph-name="ampersand" unicode="&#x26;" horiz-adv-x="450" 
d="M141 642q30 17 61 23q99 -40 136 -103q15 -27 9 -58q-19 -72 -106 -166q21 -42 58 -82q60 30 108 75q22 -16 21 -39q-40 -37 -97 -68q41 -39 98 -78q7 -5 10 -13q9 -21 -14 -11q-76 35 -131 83l-14 -6q-111 -49 -223 -59q-27 18 -40 51q101 88 169 158l-2 4
q-53 121 -43 289zM209 305q-61 -60 -127 -110q87 8 174 42q2 1 4 1q-29 31 -51 67zM221 388q53 62 65 114q11 66 -85 119q-13 -122 20 -233z" />
    <glyph glyph-name="quotesingle" unicode="'" horiz-adv-x="220" 
d="M165 679q-43 -57 -76 -121q-10 -20 -17 0q-7 25 -2 47q13 56 45 92q23 3 50 -18z" />
    <glyph glyph-name="parenleft" unicode="(" horiz-adv-x="320" 
d="M226 676q28 -23 34 -53q3 -13 -7 -31q-54 -102 -63 -251q-6 -121 54 -219q-21 -3 -44 22q-57 65 -59 210q5 182 85 322z" />
    <glyph glyph-name="parenright" unicode=")" horiz-adv-x="320" 
d="M95 121q-28 23 -34 53q-2 11 7 31q54 102 63 251q6 121 -54 218q21 4 44 -21q57 -65 59 -210q-5 -182 -85 -322z" />
    <glyph glyph-name="asterisk" unicode="*" horiz-adv-x="349" 
d="M273 701q-36 -49 -65 -102q78 10 121 0q15 -4 0 -12q-22 -12 -61 -13q-29 -2 -60 -7q38 -45 61 -89q7 -15 6 -31q-2 -18 -13 -3q-39 51 -83 98q-36 -77 -57 -161q-7 -24 -15 -3q-6 18 -4 36q5 59 36 132l2 4q-49 -14 -101 -37q-18 18 -21 41q61 21 118 33q-38 38 -78 74
q15 13 33 20q41 -34 76 -70q29 60 60 105q24 2 45 -15z" />
    <glyph glyph-name="plus" unicode="+" horiz-adv-x="414" 
d="M161 213q4 73 16 144q-70 -8 -138 -24q-16 25 -14 57q88 10 160 13q16 87 43 173q38 -1 55 -22q-25 -73 -44 -150h36q77 -2 124 -22q11 -5 -5 -13q-23 -11 -53 -5q-56 2 -112 -2q-25 -106 -40 -218q-4 -22 -15 -1q-15 29 -13 70z" />
    <glyph glyph-name="comma" unicode="," horiz-adv-x="200" 
d="M113 214q29 -26 26 -58q-4 -27 -30 -50q-16 -14 -42 -20q-30 -5 -15 13q32 36 31 52q-1 15 -22 24q-9 4 -5 16q11 24 36 35q11 -4 21 -12z" />
    <glyph glyph-name="hyphen" unicode="-" horiz-adv-x="388" 
d="M364 378q13 -5 -4 -13q-23 -11 -48 -5q-140 6 -276 -33q-14 25 -12 59q111 19 228 14q52 -2 112 -22z" />
    <glyph glyph-name="period" unicode="." horiz-adv-x="200" 
d="M120 224q32 -22 8 -61q-27 -40 -63 -40q-9 0 -9 15q0 43 44 84q10 8 20 2z" />
    <glyph glyph-name="slash" unicode="/" horiz-adv-x="350" 
d="M264 664q30 -5 58 -27q-159 -222 -267 -513q-10 -28 -17 -13q-6 11 -2 33q45 230 188 462q19 29 40 58z" />
    <glyph glyph-name="zero" unicode="0" horiz-adv-x="370" 
d="M236 505q23 -3 40 -12q62 -60 41 -144q-25 -92 -111 -141q-67 -33 -120 -13q-42 22 -49 77q-11 109 77 205q44 47 78 58q31 -8 44 -30zM224 494q-28 -8 -54 -32q-93 -88 -89 -199q1 -30 26 -40q92 8 140 97q56 118 -23 174z" />
    <glyph glyph-name="one" unicode="1" horiz-adv-x="370" 
d="M152 359q14 71 34 135h-16q-22 0 -10 22q28 42 71 48q21 -15 23 -44q-28 -66 -50 -149q-28 -105 -46 -213q-8 -42 -19 -17q-6 17 -7 43q0 73 20 175z" />
    <glyph glyph-name="two" unicode="2" horiz-adv-x="370" 
d="M284 211q-136 -20 -257 -69q-14 17 -19 48q236 196 260 319q4 22 -13 21q-73 -5 -142 -88q-40 5 -64 23q94 110 212 97q40 -6 54 -50q-19 -135 -210 -290q131 28 248 19q21 -2 0 -17q-27 -19 -69 -13z" />
    <glyph glyph-name="three" unicode="3" horiz-adv-x="370" 
d="M184 349q82 14 128 -11q34 -22 34 -60q-36 -74 -102 -130q-69 -58 -150 -95q-27 -12 -56 -11q-35 3 -18 13q111 52 184 118q69 62 92 132q-90 23 -226 -35q-17 17 -11 41q33 15 58 29q120 93 149 199q-64 12 -157 -73q-36 6 -48 36q128 97 212 74q38 -16 45 -57
q-32 -92 -134 -170z" />
    <glyph glyph-name="four" unicode="4" horiz-adv-x="370" 
d="M209 341h1q21 134 66 275q36 -4 52 -30q-41 -115 -68 -236q94 15 128 5q22 -8 -19 -19q-58 -13 -118 -28q-23 -115 -34 -235q-3 -28 -18 -1q-8 15 -8 62q2 80 13 162q-75 -19 -157 -43q-25 9 -43 35q51 152 164 296q34 1 58 -19q-116 -134 -174 -260q84 23 157 36z" />
    <glyph glyph-name="five" unicode="5" horiz-adv-x="370" 
d="M46 73q-26 2 -4 14q90 50 148 109q64 65 81 145q-93 -15 -194 -65q-31 7 -39 40q15 84 44 160q-28 -12 -57 -26q-14 25 -11 53q48 17 91 30q21 45 46 86q38 6 64 -15q-19 -26 -35 -51q113 26 202 18q20 -2 1 -17q-21 -15 -50 -13q-67 -3 -150 -28l-32 -10
q-48 -88 -65 -173q105 49 194 49q34 -22 37 -64q-14 -78 -87 -144q-71 -65 -146 -92q-18 -7 -38 -6z" />
    <glyph glyph-name="six" unicode="6" horiz-adv-x="370" 
d="M95 297q-13 -74 -2 -116q137 44 184 152q10 23 -1 37q-26 29 -168 -15q-8 -29 -13 -58zM49 335q-35 -7 -4 30q6 8 15 14q48 162 183 309q32 7 56 -11q-122 -131 -174 -270q161 51 202 -23q20 -35 -7 -89q-50 -103 -220 -164q-55 14 -66 82q1 62 15 122z" />
    <glyph glyph-name="seven" unicode="7" horiz-adv-x="370" 
d="M129 534q82 38 151 41q35 -20 51 -59q-17 -102 -48 -193q-40 -120 -97 -224q-9 -15 -25 -25q-25 -11 -14 15q44 107 70 195q38 128 56 254q-78 -14 -175 -78q-18 -55 -29 -119q-7 -34 -19 -3q-7 22 -6 52q4 127 62 221q31 -7 51 -28q-15 -23 -28 -49z" />
    <glyph glyph-name="eight" unicode="8" horiz-adv-x="370" 
d="M106 490q1 -19 15 -40q5 -9 11 -16q70 107 134 167q-69 23 -122 -19q-41 -32 -38 -92zM168 408q23 -11 49 -20q20 -8 38 -13q48 -13 51 -64q1 -21 -6 -40q-21 -56 -84 -102.5t-131 -41.5q-60 21 -74 74q33 92 102 203q-23 16 -42 41q-26 34 -13 98q19 81 94 111
q59 18 106 -2q18 -14 27 -35q4 4 8 7q31 17 52 17t8 -12q-18 -16 -39 -36q-75 -77 -146 -185zM152 382q-54 -88 -77 -180q-6 -27 5 -30q51 -5 103 38.5t69 91.5q12 35 -4 40q-49 17 -96 40z" />
    <glyph glyph-name="nine" unicode="9" horiz-adv-x="370" 
d="M221 369q-73 -49 -151 -53q-33 11 -44 50q2 80 57 144q60 69 129 86q35 -14 45 -36q-158 -59 -197 -196q65 1 119 27q34 16 59 36q28 91 64 172q35 4 60 -11q-54 -119 -93 -241q-39 -121 -64 -249q-8 -40 -21 -17q-9 18 -7 49q8 104 37 214q3 12 7 25z" />
    <glyph glyph-name="colon" unicode=":" horiz-adv-x="250" 
d="M130 299q32 -22 8 -61q-27 -40 -63 -40q-9 0 -9 15q0 43 44 84q10 8 20 2zM160 544q32 -22 8 -61q-27 -40 -63 -40q-9 0 -9 15q0 43 44 84q10 8 20 2z" />
    <glyph glyph-name="semicolon" unicode=";" horiz-adv-x="250" 
d="M160 544q32 -22 8 -61q-27 -40 -63 -40q-9 0 -9 15q0 43 44 84q10 8 20 2zM125 285q29 -26 26 -58q-4 -27 -30 -50q-16 -14 -42 -20q-30 -5 -15 13q32 36 31 52q-1 15 -22 24q-9 4 -5 16q11 24 36 35q11 -4 21 -12z" />
    <glyph glyph-name="less" unicode="&#x3c;" horiz-adv-x="330" 
d="M222 617q33 4 56 -18q-110 -100 -187 -208q48 -94 183 -209q-24 -8 -48 7q-107 67 -174 159q-2 36 4 68q70 111 166 201z" />
    <glyph glyph-name="equal" unicode="=" horiz-adv-x="392" 
d="M354 462q11 -6 -3 -12q-22 -10 -48 -6q-106 2 -233 -32q-21 24 -25 50q116 14 197 14q83 0 112 -14zM346 301q10 -6 -4 -12q-22 -10 -48 -6q-105 1 -233 -32q-20 24 -24 50q109 14 196 14t113 -14z" />
    <glyph glyph-name="greater" unicode="&#x3e;" horiz-adv-x="330" 
d="M159 617q91 -95 131 -201q5 -32 3 -68q-75 -88 -193 -161q-25 -13 -48 -7q149 130 203 212q-59 119 -153 207q24 22 57 18z" />
    <glyph glyph-name="question" unicode="?" horiz-adv-x="307" 
d="M155 485q70 92 76 158q-77 9 -160 -86q-28 22 -36 49q99 94 204 77q32 -20 41 -62q-4 -59 -87 -165q-46 -58 -54 -153q-3 -28 -16 -11q-7 9 -10 24q-13 96 42 169zM150 224q32 -22 8 -61q-27 -40 -63 -40q-9 0 -9 15q0 43 44 84q10 8 20 2z" />
    <glyph glyph-name="at" unicode="@" horiz-adv-x="688" 
d="M463 286q-1 -20 9 -16q117 48 131 208q6 94 -67.5 137.5t-191.5 26.5q-108 -21 -171.5 -109.5t-71.5 -185.5q-9 -115 50.5 -181.5t195.5 -65.5q135 7 228 117q15 17 14 -10q-1 -16 -13 -34q-71 -96 -222 -113q-127 -14 -217.5 53.5t-86.5 213.5q4 133 78 234.5t209 126.5
q153 25 236.5 -37.5t74.5 -185.5q-15 -167 -173 -238q-39 2 -49 38q-1 31 1 63q-62 -84 -160 -114q-47 -3 -67 21q-32 61 18 146q55 93 158 122q42 -4 64 -27q-114 -27 -176 -113q-39 -55 -33 -110q105 21 200 130q7 67 23 139q33 -5 52 -29q-34 -103 -43 -207z" />
    <glyph glyph-name="A" unicode="A" horiz-adv-x="417" 
d="M238 427q43 4 84 2q-23 97 -59 175q-68 -87 -120 -194q53 13 95 17zM327 403q-110 -12 -215 -60q-43 -103 -74 -222q-6 -19 -12 1q-7 31 1 80q12 97 67 223q68 156 157 261q50 5 69 -16q-23 -24 -44 -50q19 4 45 -2q30 -87 49 -191q21 -117 18 -226q-1 -26 -12 -48
q-8 -15 -11 1q-22 172 -37 246q0 2 -1 3z" />
    <glyph glyph-name="B" unicode="B" horiz-adv-x="441" 
d="M81 564q-14 12 -21 23q16 9 31 16q10 40 23 79q36 -5 55 -31q-3 -8 -5 -16q98 36 175 23q40 -26 46 -64q-53 -82 -144 -139q96 5 155 -11q25 -31 25 -72q-69 -137 -268 -229q-38 -17 -71 -17q-18 0 -4 9q236 129 299 272q-84 13 -201 -3q-16 11 -16 39q115 79 176 173
q-101 3 -195 -53q-61 -208 -81 -420q-5 -45 -22 -3q-10 31 -8 82q10 178 51 342z" />
    <glyph glyph-name="C" unicode="C" horiz-adv-x="446" 
d="M407 288q24 17 16 -7q-13 -34 -48 -60q-80 -63 -171 -80q-53 -8 -97 10q-53 28 -71 80t-7 114q49 238 280 307q47 -2 70 -32q-217 -52 -282 -248q-29 -108 3 -174q89 -17 173 17q77 31 134 73z" />
    <glyph glyph-name="D" unicode="D" horiz-adv-x="491" 
d="M161 626q212 -51 301 -161q26 -38 6 -91q-91 -128 -261 -211q-55 -27 -94 -24q-33 3 -3 18q236 114 324 279q-101 91 -292 129q-61 -208 -82 -422q-5 -45 -22 -3q-10 31 -8 82q14 242 84 460q36 -5 55 -31q-4 -12 -8 -25z" />
    <glyph glyph-name="E" unicode="E" horiz-adv-x="445" 
d="M184 611q-30 -84 -51 -171q158 31 271 12q18 -4 0 -14q-26 -14 -47 -11q-116 -6 -237 -46q-19 -89 -27 -180q158 24 317 85q20 7 10 -17q-7 -15 -33 -29q-130 -64 -275 -98q-43 2 -66 43q7 94 20 181q-19 24 -19 55q15 4 29 7q16 86 39 165q-27 -9 -53 -20q-20 30 -17 62
q164 39 303 20q30 -4 51 -18q16 -13 -5 -12q-113 7 -210 -14z" />
    <glyph glyph-name="F" unicode="F" horiz-adv-x="425" 
d="M68 348q-21 25 -21 58q23 6 45 11q17 95 47 186q-44 -12 -86 -30q-20 28 -16 62q162 39 320 19q26 -6 41 -22q8 -10 -5 -9q-97 9 -185 -5q-33 -93 -57 -188q134 23 235 6q16 -4 0 -12q-26 -14 -47 -11q-105 -7 -201 -38q-25 -114 -38 -232q-7 -38 -22 -3q-10 31 -8 82
q3 67 12 132z" />
    <glyph glyph-name="G" unicode="G" horiz-adv-x="557" 
d="M447 408q17 -6 25 -22q-52 -115 -72 -267q-4 -33 -14 -9q-6 14 -8 31q-4 49 1 99q-17 -23 -47 -44q-119 -83 -226 -44q-52 28 -70 81t-7 113q47 234 280 306q46 -2 69 -31q-219 -56 -281 -249q-31 -107 5 -176q96 -20 175 22q83 44 113 93q10 46 27 92q-95 -17 -189 -63
q-23 24 -23 56q178 67 345 42q15 -2 0 -12q-25 -15 -46 -13q-29 -1 -57 -5z" />
    <glyph glyph-name="H" unicode="H" horiz-adv-x="534" 
d="M167 640q-38 -105 -64 -219q178 37 300 35q21 115 56 224q36 -5 55 -31q-33 -98 -57 -196q21 -3 39 -6q15 -3 0 -12q-25 -13 -45 -11q-32 -140 -46 -283q-5 -45 -22 -3q-10 31 -8 82q6 103 22 202q-146 -8 -307 -65q-19 -98 -28 -202q-5 -38 -22 -3q-11 31 -8 82
q3 55 9 108l-4 -1q-12 28 -3 62l16 4q20 136 62 264q36 -5 55 -31z" />
    <glyph glyph-name="I" unicode="I" horiz-adv-x="387" 
d="M373 636q-52 1 -103 -6q-68 -207 -93 -425q47 6 100 6q33 0 52 -12q15 -12 -4 -14q-149 -13 -284 -76q-19 28 -13 58q53 22 115 33q2 92 16 209q21 126 44 209q-55 -14 -107 -36q-18 31 -9 58q122 34 239 23q31 -4 49 -18q9 -9 -2 -9z" />
    <glyph glyph-name="J" unicode="J" horiz-adv-x="387" 
d="M175 151q-15 -24 -55 -48q-76 21 -105 89q-7 20 -7 37q0 15 12 2q6 -8 14 -16q43 -40 112 -54q73 217 90 466q-76 -14 -150 -45q-18 31 -9 58q122 34 239 23q31 -4 49 -18q9 -9 -2 -9q-33 1 -65 -2q-4 -121 -33 -236q-42 -167 -90 -247z" />
    <glyph glyph-name="K" unicode="K" horiz-adv-x="457" 
d="M111 448q128 128 277 198q35 -9 44 -38q-184 -96 -317 -214q113 -129 273 -241q20 -12 25 -35q1 -7 -4 -4q-177 85 -322 222q-18 -96 -27 -193q-5 -45 -22 -3q-10 31 -8 82q14 242 84 460q36 -5 55 -31q-34 -101 -58 -203z" />
    <glyph glyph-name="L" unicode="L" horiz-adv-x="407" 
d="M98 108q-39 9 -65 43q-3 30 -2 78q9 210 82 454q37 -6 57 -33q-93 -258 -98 -478q23 -2 30 -2q147 16 264 59q34 11 28 -3q-5 -12 -19 -21q-105 -70 -277 -97z" />
    <glyph glyph-name="M" unicode="M" horiz-adv-x="574" 
d="M177 670q42 7 63 -13q-13 -23 -26 -48q9 -112 24 -218q15 -111 27 -163q31 90 79 204q50 118 98 203q40 3 65 -16q2 -156 16 -271q13 -109 31 -201q3 -18 -14 -4q-9 9 -17 23q-29 57 -46 187q-13 99 -17 207q-92 -170 -165 -389q-25 -14 -57 -14q-19 54 -47 222
q-13 79 -19 142q-70 -158 -124 -373q-5 -20 -13 0q-9 23 -6 60q10 85 39 181q54 179 109 281z" />
    <glyph glyph-name="N" unicode="N" horiz-adv-x="484" 
d="M402 165q-19 -20 -50 -27q-84 79 -144 183q-50 86 -85 175q-46 -174 -63 -353q-5 -45 -22 -3q-10 31 -8 82q13 218 71 417q36 -1 55 -29q-4 -14 -9 -28q30 -111 95 -228q49 -87 115 -167q11 180 53 318q19 64 42 90q29 30 21 -3q-48 -184 -71 -427z" />
    <glyph glyph-name="O" unicode="O" horiz-adv-x="432" 
d="M295 618q38 -6 56 -18q98 -87 58 -232q-37 -133 -136.5 -187.5t-176.5 -31.5q-57 38 -68 104q-19 154 71 275q58 78 145 130q30 -6 51 -40zM285 603q-77 -19 -135 -100q-88 -122 -73 -247q9 -50 39 -71q18 -8 48 0q139 35 181 168q54 169 -60 250z" />
    <glyph glyph-name="P" unicode="P" horiz-adv-x="422" 
d="M164 610q-35 -106 -59 -221q186 40 267 131q-36 78 -169 89q-19 2 -39 1zM94 332q-18 -96 -28 -197q-3 -28 -17 -4q-12 26 -12 76q9 200 60 395q-38 -7 -79 -21q-12 33 -4 64q118 24 212 9q151 -24 180 -103q6 -26 1 -50q-75 -117 -313 -169z" />
    <glyph glyph-name="Q" unicode="Q" horiz-adv-x="460" 
d="M253 224q-34 28 -54 53q19 24 39 35q23 -32 50 -58q38 40 57 99q54 169 -60 250q-77 -19 -135 -100q-88 -122 -73 -247q9 -50 39 -71q19 -8 48 0q51 13 89 39zM327 221q51 -39 115 -64q18 -9 -8 -9q-74 0 -141 45q-10 -7 -20 -12q-100 -55 -177 -32q-57 38 -68 104
q-19 154 71 275q58 78 145 130q30 -6 51 -40q38 -6 56 -18q98 -87 58 -232q-26 -93 -82 -147z" />
    <glyph glyph-name="R" unicode="R" horiz-adv-x="425" 
d="M226 654q124 -20 174 -94q10 -29 7 -59q-81 -96 -263 -132q100 -105 225 -194q21 -15 29 -34q3 -11 -7 -5q-154 75 -296 201q-18 -98 -29 -202q-3 -28 -17 -4q-12 26 -12 76q9 200 61 397q-38 -8 -80 -23q-12 33 -4 64q118 24 212 9zM112 419q170 20 256 108
q-45 67 -165 82q-19 2 -39 2q-30 -92 -52 -192z" />
    <glyph glyph-name="S" unicode="S" horiz-adv-x="425" 
d="M239 352q-182 44 -167 135q25 143 232 180q49 -11 66 -52q-222 -30 -249 -131q-10 -46 125 -78q174 -40 153 -136q-26 -112 -190 -132q-95 -6 -167 57q-8 9 -11 21q-4 16 24 4q79 -41 159 -35q111 15 128 97q9 48 -103 70z" />
    <glyph glyph-name="T" unicode="T" horiz-adv-x="463" 
d="M407 632q-58 5 -125 0q-77 -239 -105 -510q-5 -39 -20 -3q-13 31 -10 82q12 227 70 423q-84 -13 -182 -40q-17 28 -17 62q134 25 268 26q110 1 165 -20q17 -7 5 -13q-26 -13 -49 -7z" />
    <glyph glyph-name="U" unicode="U" horiz-adv-x="463" 
d="M91 666q27 -20 43 -51q-81 -202 -49 -363q8 -31 34 -54q56 -41 144 13q83 58 115 277q13 99 1 156q38 -8 64 -34q4 -283 -126 -411q-110 -95 -204 -41q-51 31 -71 88q-44 143 23 357q14 36 26 63z" />
    <glyph glyph-name="V" unicode="V" horiz-adv-x="443" 
d="M189 196q91 241 195 405q19 27 44 34q18 5 13 -6q-120 -223 -204 -470q-30 -24 -76 -19q-98 227 -141 492q35 4 67 -12q28 -244 102 -424z" />
    <glyph glyph-name="W" unicode="W" horiz-adv-x="601" 
d="M339 580q19 -196 49 -361q61 212 155 380q19 30 41 39q17 6 10 -9q-103 -225 -159 -436q-40 -30 -83 -21q-45 186 -53 339q-81 -151 -144 -357q-37 -23 -73 -20q-62 230 -56 498q31 7 61 -17q-8 -256 24 -425q73 218 167 402q36 5 61 -12z" />
    <glyph glyph-name="X" unicode="X" horiz-adv-x="470" 
d="M209 456q100 124 190 193q35 -4 50 -26q-100 -85 -220 -228q85 -120 193 -232q12 -13 -9 -13q-22 0 -54 29q-88 78 -163 176q-79 -96 -165 -215q-12 -16 -12 7q1 28 16 55q55 97 129 196q-58 82 -109 177q5 40 29 61q49 -100 113 -195q6 7 12 15z" />
    <glyph glyph-name="Y" unicode="Y" horiz-adv-x="452" 
d="M189 365q-118 92 -169 264q24 28 62 28q8 -81 49 -158q30 -57 74 -103q84 159 190 266q38 -2 57 -25q-126 -126 -213 -279q-31 -111 -37 -239q-1 -39 -17 -18q-12 17 -16 52q-8 101 20 212z" />
    <glyph glyph-name="Z" unicode="Z" horiz-adv-x="455" 
d="M107 206q185 20 331 -4q24 -4 -3 -19q-23 -10 -54 -3q-169 -10 -346 -44q-12 38 -9 59q9 3 27 5q142 224 309 388q-123 14 -261 -52q-24 27 -22 61q163 57 307 37q16 -3 29 -29t9 -31q-178 -177 -317 -368z" />
    <glyph glyph-name="bracketleft" unicode="[" horiz-adv-x="320" 
d="M219 632q-98 -194 -105 -402q-1 -24 2 -59q82 0 159 25q25 8 6 -16q-44 -46 -152 -64q-30 12 -47 40q-17 109 13 280q23 133 62 207q23 21 50 30q52 8 97 -1q-1 -25 -24 -41q-30 4 -61 1z" />
    <glyph glyph-name="backslash" unicode="\" horiz-adv-x="700" 
d="M584 380q-15 1 -31 1q-33 -95 -58 -188q-40 -30 -83 -21q-26 107 -39 202q-41 -4 -83 -10q-40 -97 -75 -210q-37 -23 -73 -20q-25 93 -39 192q-21 -5 -42 -11q-22 22 -28 52q32 6 63 11q-13 123 -10 254q31 7 61 -17q-4 -124 2 -228q50 7 101 14q41 99 88 191
q36 5 61 -12q8 -85 19 -164q53 3 98 1q39 97 87 182q18 30 41 40q17 7 10 -10q-50 -109 -89 -215q45 -4 80 -14q41 -11 2 -24q-28 -7 -63 4zM502 382q-39 0 -79 -3q11 -84 25 -160q24 85 54 163zM231 354q-39 -8 -79 -17q6 -80 19 -147q28 84 60 164zM308 407q30 3 60 5
q-7 51 -9 99q-26 -49 -51 -104z" />
    <glyph glyph-name="bracketright" unicode="]" horiz-adv-x="320" 
d="M150 129q-47 -18 -109 -21q-9 25 0 53q53 -2 94 4q83 170 95 407q2 42 -3 60q-52 -4 -131 -45q-22 23 -18 56q81 32 152 30q27 -11 40 -38q5 -111 -19 -266q-16 -101 -53 -200q-19 -24 -48 -40z" />
    <glyph glyph-name="asciicircum" unicode="^" horiz-adv-x="306" 
d="M217 659q59 -53 70 -125q2 -16 -1 -31q-5 -23 -14 -6q-36 76 -84 129q-55 -58 -101 -136q-24 20 -22 63q53 69 115 110q18 1 37 -4z" />
    <glyph glyph-name="underscore" unicode="_" horiz-adv-x="410" 
d="M374 2q10 -4 -4 -10q-21 -10 -48 -5q-140 7 -276 -32q-14 23 -12 55q117 18 228 14q70 -3 112 -22z" />
    <glyph glyph-name="grave" unicode="`" horiz-adv-x="220" 
d="M42 590q15 27 36 35q54 -24 82 -73q11 -19 11 -44q0 -18 -16 -2q-51 49 -113 84z" />
    <glyph glyph-name="a" unicode="a" horiz-adv-x="350" 
d="M256 204q-75 -54 -164 -62q-45 13 -59 47q-13 72 33 142t129 110q45 -2 63 -29q-88 -34 -138 -98q-40 -52 -44 -126q103 6 180 62q4 117 31 234q35 -4 51 -32q-39 -145 -54 -308q-2 -25 -13 -7q-13 23 -15 67z" />
    <glyph glyph-name="b" unicode="b" horiz-adv-x="330" 
d="M164 627q-40 -117 -66 -236q75 51 156 61q47 -14 58 -60q-5 -112 -77 -184q-65 -65 -172 -70q-3 0 -5 -1q-5 -29 -20 4q-11 30 -8 79q13 229 80 437q35 -6 54 -30zM82 312q-14 -76 -21 -153q82 17 133 74q76 84 67 179q-96 -23 -179 -100z" />
    <glyph glyph-name="c" unicode="c" horiz-adv-x="328" 
d="M278 240q26 17 20 -6q-7 -26 -30 -48q-37 -28 -99 -41q-42 -8 -85 7q-72 34 -56 121q37 154 208 199q41 -7 61 -33q-169 -40 -211 -156q-29 -81 -2 -92q63 -8 129 15q38 13 65 34z" />
    <glyph glyph-name="d" unicode="d" horiz-adv-x="406" 
d="M404 627q-81 -239 -105 -483q-4 -39 -21 -3q-10 28 -8 74q-81 -64 -178 -73q-45 13 -59 47q-15 74 33 142q59 84 148 110q45 -2 63 -29q-91 -21 -159 -102q-39 -47 -42 -121q112 8 197 77q17 204 77 391q35 -6 54 -30z" />
    <glyph glyph-name="e" unicode="e" horiz-adv-x="341" 
d="M89 317q116 2 187 61q-1 70 -100 38q-61 -27 -87 -99zM104 133q-41 10 -64 43q-14 35 -13 73q0 11 1 21l-12 6q0 30 8 50q7 -3 14 -5q12 42 37 75q45 60 111 76q125 25 130 -59q1 -48 -27 -77q-71 -67 -210 -73q-6 -43 5 -83q67 -5 117 15q59 24 88 59q14 14 12 -5
q-2 -22 -18 -42q-63 -79 -179 -74z" />
    <glyph glyph-name="f" unicode="f" horiz-adv-x="383" 
d="M205 646q43 18 78 5q48 -34 67 -96q-13 -22 -46 -27q-14 50 -47 76q-16 14 -42 -64q-13 -44 -24 -92q73 4 140 -3q28 -3 1 -19q-21 -11 -49 -7q-48 -2 -101 -10q-29 -135 -45 -301q-3 -26 -18 0q-11 22 -10 63q3 122 20 229q-50 -9 -103 -24q-11 18 -7 53q61 11 117 16
q13 68 32 130q18 59 37 71z" />
    <glyph glyph-name="g" unicode="g" horiz-adv-x="383" 
d="M263 266q-66 -75 -171 -111q-36 11 -59 41q-14 73 28 145q43 73 143 110q45 -2 63 -29q-108 -30 -159 -102q-44 -63 -42 -120q120 28 205 122q11 74 31 149q34 -4 54 -27q-37 -123 -58 -310h20q31 0 49 -11q19 -14 -2 -14q-35 -1 -70 -7q-3 -28 -6 -58q-3 -47 -3 -88
q-17 -30 -50 -39q-109 25 -183 70q-18 36 -15 73q73 37 143 56q36 10 71 14q1 24 3 50q3 43 8 86zM250 93q-25 -6 -50 -14q-64 -21 -114 -57q80 -41 160 -57q1 56 4 128z" />
    <glyph glyph-name="h" unicode="h" horiz-adv-x="330" 
d="M164 627q-41 -121 -67 -242q69 50 144 67q37 -5 54 -26q18 -21 17 -56q-8 -113 -37 -188q-13 -33 -36 -52q-16 -13 -11 10q32 134 32 271q-86 -19 -179 -107q-14 -80 -22 -160q-5 -39 -21 -3q-11 30 -8 79q13 229 80 437q35 -6 54 -30z" />
    <glyph glyph-name="i" unicode="i" horiz-adv-x="182" 
d="M75 457q34 6 53 -16q-31 -129 -49 -301q-3 -28 -16 -9q-13 20 -13 45q-2 149 25 281zM133 662q39 -9 50 -48q-50 -31 -94 -82q-21 -25 -18 16q10 69 62 114z" />
    <glyph glyph-name="j" unicode="j" horiz-adv-x="264" 
d="M213 662q39 -9 50 -48q-50 -31 -94 -82q-24 -26 -18 16q10 69 62 114zM150 39q-9 -24 -41 -39q-71 12 -95 56q-13 24 7 18q8 -2 14 -5q44 -18 87 -21q36 200 36 420q29 14 58 9q-5 -116 -20 -234q-15 -116 -46 -204z" />
    <glyph glyph-name="k" unicode="k" horiz-adv-x="376" 
d="M87 336q93 92 213 147q38 -6 57 -31q-104 -39 -238 -144q84 -72 178 -135q31 -11 44 -35q8 -20 -12 -11q-132 55 -253 145q-11 -64 -17 -128q-5 -39 -21 -3q-11 30 -8 79q13 229 80 437q35 -6 54 -30q-49 -145 -77 -291z" />
    <glyph glyph-name="l" unicode="l" horiz-adv-x="182" 
d="M180 627q-78 -239 -101 -483q-5 -41 -21 -3q-10 28 -8 79q9 228 76 437q35 -6 54 -30z" />
    <glyph glyph-name="m" unicode="m" horiz-adv-x="516" 
d="M288 314q-9 -76 -33 -136q-12 -28 -32 -44q-18 -15 -13 9q33 147 36 277q-79 -14 -160 -97q-23 -95 -38 -187q-2 -13 -11 -3q-17 21 -13 85q7 113 37 247q31 -1 56 -23q-5 -19 -10 -37q62 52 130 57q37 -13 49 -41q5 -15 6 -42q80 52 151 47q34 -10 45 -43
q5 -123 -40 -217q-10 -21 -28 -33q-20 -14 -14 7q35 125 36 248q-84 -12 -154 -74z" />
    <glyph glyph-name="n" unicode="n" horiz-adv-x="330" 
d="M275 184q-13 -33 -36 -52q-16 -10 -11 10q32 134 32 269q-86 -19 -179 -107q-20 -85 -33 -168q-2 -13 -11 -3q-17 21 -13 85q7 113 37 247q31 -1 56 -23q-8 -27 -15 -54q67 47 139 64q37 -5 54 -26q18 -21 17 -56q-8 -112 -37 -186z" />
    <glyph glyph-name="o" unicode="o" horiz-adv-x="332" 
d="M222 425q22 -1 41 -11q55 -44 39 -118q-17 -77 -119 -129q-57 -28 -105 -8q-42 21 -51 67q-15 79 57 157q52 56 96 68q27 -7 42 -26zM209 408q-44 -11 -83 -56q-60 -69 -54 -130q4 -31 25 -33q80 5 132 81q57 89 -20 138z" />
    <glyph glyph-name="p" unicode="p" horiz-adv-x="337" 
d="M169 452q95 -21 142 -92q10 -22 6 -48q-35 -98 -171 -141q-35 -11 -61 -7q-16 -95 -22 -193q-2 -28 -17 -3q-11 21 -12 75q-3 168 47 362q-29 -5 -59 -17q-6 33 9 63q76 15 138 1zM90 194q134 34 191 138q-53 67 -131 76q-5 1 -9 1q-32 -106 -51 -215z" />
    <glyph glyph-name="q" unicode="q" horiz-adv-x="365" 
d="M258 251q-64 -69 -166 -96q-36 11 -59 41q-14 73 28 145q43 73 143 110q45 -2 63 -29q-108 -30 -159 -102q-44 -63 -42 -120q116 19 200 107q13 83 35 164q34 -4 53 -27q-65 -218 -76 -477q-1 -25 -17 -2q-15 23 -15 77q0 106 12 209z" />
    <glyph glyph-name="r" unicode="r" horiz-adv-x="293" 
d="M98 373q9 10 19 19q58 43 124 47q32 2 44 -8q16 -14 -2 -16q-84 -12 -139 -60q-41 -35 -73 -98q-13 -61 -23 -121q-2 -13 -11 -3q-17 21 -13 85q7 113 37 247q31 -1 56 -23q-10 -35 -19 -69z" />
    <glyph glyph-name="s" unicode="s" horiz-adv-x="293" 
d="M161 277q-125 23 -112 93q17 97 156 120q41 -15 47 -51q-146 -13 -160 -71q-6 -30 75 -49q115 -17 104 -85q-15 -86 -129 -96q-67 -4 -113 39q-5 6 -8 12q-6 17 19 6q51 -26 104 -18q71 13 79 60q4 25 -62 40z" />
    <glyph glyph-name="t" unicode="t" horiz-adv-x="353" 
d="M142 402v1q-55 -10 -116 -27q-11 18 -7 53q67 12 130 17q21 113 50 210q39 -4 58 -27q-34 -88 -54 -180q66 2 128 -4q26 -3 1 -18q-21 -11 -49 -8q-42 -1 -88 -8q-1 -1 -1 -3q-25 -135 -27 -225q68 7 124 44q21 11 15 -9q-6 -18 -24 -35q-31 -27 -82 -45q-47 -3 -72 30
q-8 91 14 234z" />
    <glyph glyph-name="u" unicode="u" horiz-adv-x="330" 
d="M236 238q-41 -56 -104 -87q-51 -25 -72 -3q-28 21 -30 68q-4 115 36 241q31 1 56 -24q-44 -103 -56 -217q-4 -41 45 -23q74 33 128 109q7 91 28 182q35 -4 51 -32q-38 -145 -54 -308q-2 -23 -12 -7q-15 27 -16 82v19z" />
    <glyph glyph-name="v" unicode="v" horiz-adv-x="352" 
d="M88 464q22 -163 75 -284q60 135 134 234q21 27 45 35q18 5 7 -13q-92 -144 -149 -291q-18 -18 -48 -17q-89 154 -127 347q37 1 63 -11z" />
    <glyph glyph-name="w" unicode="w" horiz-adv-x="532" 
d="M250 452q31 8 55 -10q32 -138 67 -238q47 123 111 217q21 30 41 37q13 4 6 -11q-67 -131 -122 -279q-23 -22 -54 -19q-52 123 -86 242q-51 -105 -102 -240q-15 -18 -46 -15q-65 135 -94 338q36 1 62 -11q11 -151 48 -268q50 132 114 257z" />
    <glyph glyph-name="x" unicode="x" horiz-adv-x="325" 
d="M20 186q36 61 81 119q-37 55 -67 117q13 27 38 33q27 -59 60 -113q61 70 137 134q27 -5 45 -27q-81 -72 -154 -151q53 -80 119 -150q14 -15 -13 -11q-24 3 -40 19q-53 51 -97 109q-57 -64 -109 -131q-14 -17 -13 5q2 24 13 47z" />
    <glyph glyph-name="y" unicode="y" horiz-adv-x="368" 
d="M153 183q-98 71 -119 205q8 51 45 65q8 -156 90 -234q59 122 149 243q33 -3 50 -27q-169 -209 -261 -481q-15 -39 -22 -12q-4 18 1 43q23 99 67 198z" />
    <glyph glyph-name="z" unicode="z" horiz-adv-x="312" 
d="M49 187q93 128 197 221q-75 7 -170 -46q-15 28 -16 54q98 43 205 36q31 -23 36 -59q-109 -91 -200 -199q97 11 190 0q27 -3 1 -19q-21 -11 -49 -7q-92 -4 -217 -42q-11 23 -7 55z" />
    <glyph glyph-name="braceleft" unicode="{" horiz-adv-x="330" 
d="M113 121q-25 12 -35 35q-5 89 40 182q-18 23 -55 36q-8 28 1 49q30 31 59 46q-2 87 19 170q20 28 41 39q50 17 118 1q0 -22 -29 -42q-46 16 -87 1q-16 -88 -3 -184q-34 -21 -66 -54q39 -21 60 -64q-49 -80 -55 -173q63 -6 133 6q25 2 16 -12q-8 -14 -31 -22
q-61 -21 -126 -14z" />
    <glyph glyph-name="bar" unicode="|" horiz-adv-x="300" 
d="M115 120q-20 41 -19 90q5 262 46 462q30 0 59 -12q-55 -212 -69 -526q-2 -43 -17 -14z" />
    <glyph glyph-name="braceright" unicode="}" horiz-adv-x="330" 
d="M233 690q26 -12 39 -35q-2 -90 -43 -183q21 -28 55 -39q8 -28 -1 -47q-25 -25 -59 -43q6 -94 -19 -171q-17 -25 -39 -39q-36 -11 -92 3q-19 5 -32 18q-20 17 11 15q62 -4 107 4q21 84 6 185q41 26 64 54q-33 20 -58 62q53 98 54 177q-45 4 -115 -28q-15 19 -11 48
q68 24 133 19z" />
    <glyph glyph-name="asciitilde" unicode="~" horiz-adv-x="455" 
d="M202 410q47 -35 79 -98q75 17 139 88q18 20 18 -4q-1 -19 -21 -44q-54 -63 -132 -77q-32 5 -47 30q-28 53 -70 89q-66 -42 -102 -121q-32 9 -45 32q44 88 130 119q27 5 51 -14z" />
    <glyph glyph-name="uni0081" 
d="M599 380q-226 14 -523 -65q-22 22 -28 52q178 35 355 47q152 10 257 -14q44 -10 2 -25q-28 -5 -63 5zM414 580q19 -196 49 -361q61 213 155 381q19 32 41 40q16 2 10 -11q-103 -225 -159 -436q-40 -30 -83 -21q-45 186 -53 339q-81 -151 -144 -357q-37 -23 -73 -20
q-62 230 -56 498q31 7 61 -17q-9 -231 24 -425q73 218 167 402q36 5 61 -12z" />
    <glyph glyph-name="uni0082" 
d="M534 393q10 -5 -4 -13q-21 -11 -48 -5q-144 5 -306 -33q-14 25 -12 59q158 19 258 14q70 -3 112 -22z" />
    <glyph glyph-name="uni0083" 
d="M463 322q28 21 20 -6q-7 -26 -30 -48q-37 -28 -99 -41q-42 -8 -85 7q-72 34 -56 121q37 154 208 199q41 -7 61 -33q-169 -40 -211 -156q-29 -81 -2 -92q63 -8 129 15q38 13 65 34zM331 692l9 2q26 8 64 2q116 -22 181 -80q104 -98 107 -238q-1 -136 -104 -232
q-109 -94 -244 -94q-69 2 -129.5 29t-104.5 73q-45 45 -70.5 105.5t-23.5 128.5q3 138 96 235q75 77 192 95q18 -9 27 -26zM336 662q-104 -12 -182 -83q-67 -71 -83 -193q-1 -57 16 -108t55 -90q38 -41 90.5 -65t113.5 -26q119 3 208 81q89 88 89 198q-4 128 -82 205
q-88 76 -225 81z" />
    <glyph glyph-name="uni0084" 
d="M319 640q-29 2 -62 0q-47 -122 -59 -258q-2 -35 -23 -3q-10 19 -8 51q7 108 35 203q-46 -7 -99 -22q-12 20 -12 47q82 15 159 17q47 1 100 -14q18 -5 5 -16q-18 -10 -36 -5zM388 662q30 6 49 -10q-10 -14 -19 -29q5 -63 14 -113q7 -36 16 -68q17 55 34 92q29 64 58 108
q29 3 46 -10q1 -68 8 -145q4 -43 19 -97q2 -16 -16 -7q-11 6 -18 21q-14 35 -21 83q-7 47 -10 93q-37 -59 -77 -180q-17 -12 -41 -10q-20 37 -35 113q-5 28 -10 57q-35 -76 -59 -171q-7 -23 -20 -1q-5 15 -2 37q7 43 21 85q29 87 63 152z" />
    <glyph glyph-name="uni0085" unicode="&#x85;" 
d="M153 474q32 -22 8 -61q-28 -42 -63 -40q-10 0 -9 15q0 43 44 84q11 6 20 2zM390 474q32 -22 8 -61q-28 -42 -63 -40q-10 0 -9 15q0 43 44 84q11 6 20 2zM629 474q32 -22 8 -61q-28 -42 -63 -40q-10 0 -9 15q0 43 44 84q11 6 20 2z" />
    <glyph glyph-name="uni00A0" unicode="&#xa0;" horiz-adv-x="200" 
d="M0 -142z" />
    <glyph glyph-name="exclamdown" unicode="&#xa1;" 
d="M323 106q-31 4 -58 19q61 180 85 345q6 35 18 12q13 -24 11 -68q-8 -149 -56 -308zM345 554q-32 22 -8 61q27 40 63 40q9 0 9 -15q0 -43 -44 -84q-10 -8 -20 -2z" />
    <glyph glyph-name="cent" unicode="&#xa2;" 
d="M522 288q21 17 16 -7q-13 -34 -48 -60q-80 -63 -171 -80q-4 -1 -7 -1q-3 -21 -7 -44q-6 -30 -16 -13q-7 12 -8 25q0 15 1 31q-32 0 -60 12q-53 28 -71 80t-7 114q48 226 241 286q13 38 27 68q30 0 62 -17q-8 -17 -15 -35q26 4 55 5q47 -2 70 -32q-80 -1 -145 -21
q-70 -178 -116 -403q33 6 65 19q77 31 134 73zM365 568q-108 -62 -153 -196q-29 -108 3 -174q36 -7 71 -5q15 166 79 375z" />
    <glyph glyph-name="sterling" unicode="&#xa3;" 
d="M497 406q13 -5 -5 -13q-25 -11 -58 -5q-60 3 -122 -1q6 -40 14 -84q8 -39 0 -78q65 -26 131 -44q29 -7 52 1q61 21 54 -5q-4 -16 -19 -23q-37 -19 -90 -9q-73 13 -141 39q-32 -60 -109 -61q-61 8 -80 58q15 43 50 62q35 17 98 1q2 27 -4 58q-9 39 -15 78q-60 -8 -122 -23
q-18 25 -15 57q71 8 131 12q-4 30 -6 60q-3 58 12 99q27 45 86 65q88 -2 119 -67q-17 -18 -54 -17q-21 35 -60 47q-29 0 -36.5 -44t-6.5 -85q2 -27 5 -56q34 1 64 0q79 -3 127 -22zM264 199q1 2 1 3q-20 6 -38 7q-28 1 -42 -26q0 -19 27 -25q35 2 52 41z" />
    <glyph glyph-name="currency" unicode="&#xa4;" 
d="M610 390q0 -52 -20 -99q-18 -37 -42 -65l97 -96l-25 -27l-98 97q-29 -26 -69 -44q-47 -21 -99 -21t-99 21q-41 18 -70 44l-98 -97l-26 26l98 97q-24 28 -40 65q-19 47 -19 99t19 99q17 37 42 66l-99 97l26 27l99 -98q28 26 68 44q47 19 99 19t99 -19q39 -18 68 -43l98 97
l25 -27l-97 -96q25 -29 43 -67q20 -47 20 -99zM565 390q0 42 -17.5 81t-46.5 67q-28 30 -67 46.5t-81 16.5q-41 0 -79.5 -16.5t-67.5 -46.5q-28 -28 -44.5 -67t-16.5 -81q0 -43 16.5 -81.5t44.5 -67.5q29 -30 67.5 -46t79.5 -16q42 0 81 16t67 46q29 29 46.5 67.5t17.5 81.5
z" />
    <glyph glyph-name="yen" unicode="&#xa5;" 
d="M313 432q-88 65 -138 197q24 28 62 28q10 -65 50 -133q30 -50 70 -82q69 135 193 220q38 -2 57 -25q-134 -88 -200 -204h13q77 -3 124 -22q12 -5 -5 -13q-23 -11 -53 -5q-48 3 -96 0q-11 -41 -18 -88q25 0 48 -1q77 -3 124 -22q12 -5 -5 -13q-23 -11 -53 -5
q-59 3 -119 -1q-7 -58 -9 -124q-2 -40 -19 -18q-12 17 -15 52q-4 44 -3 86q-68 -9 -137 -26q-16 25 -14 57q85 10 154 13q4 45 13 86q-75 -7 -153 -27q-16 25 -14 57q78 9 143 13z" />
    <glyph glyph-name="section" unicode="&#xa7;" horiz-adv-x="340" 
d="M188 39q-55 0 -98 33.5t-43 73.5q0 17 10 28.5t25 11.5t25 -11t10 -26q0 -13 -4 -20t-6 -11q0 -21 25 -36t50 -15q35 0 57 17t22 41q0 21 -9 32q-6 8 -30 29t-52 44q-34 25 -67 53.5t-48 47.5q-12 14 -18 32.5t-6 30.5q0 36 21.5 61.5t53.5 27.5q10 1 31 -2
q-38 28 -68 70t-30 70q0 44 36 78t86 34q52 0 90 -34t38 -78q0 -17 -10 -28t-24 -11q-18 0 -28.5 15t-4.5 34q6 14 6 24q0 19 -22 35.5t-48 16.5q-35 0 -55.5 -19.5t-20.5 -50.5q0 -16 7.5 -30t16.5 -26q10 -12 35 -35.5t51 -44.5q27 -21 51 -43t34 -36q11 -13 17.5 -29.5
t6.5 -32.5q0 -38 -24.5 -63.5t-60.5 -25.5q-9 0 -23 2q28 -20 50 -38t35 -31q15 -14 23 -33t8 -36q0 -38 -35 -67t-86 -29zM195 429q-22 18 -29.5 22.5t-11.5 7.5q-8 4 -17 4q-27 0 -45.5 -16.5t-18.5 -40.5q0 -17 17.5 -41.5t43.5 -44.5q15 -12 35.5 -22t32.5 -10
q21 0 35.5 14.5t14.5 37.5q-6 48 -57 89z" />
    <glyph glyph-name="dieresis" unicode="&#xa8;" horiz-adv-x="460" 
d="M162 774q32 -22 8 -61q-27 -40 -63 -40q-9 0 -9 15q0 43 44 84q10 8 20 2zM349 774q32 -22 8 -61q-27 -40 -63 -40q-9 0 -9 15q0 43 44 84q10 8 20 2z" />
    <glyph glyph-name="copyright" unicode="&#xa9;" 
d="M463 322q28 21 20 -6q-7 -26 -30 -48q-37 -28 -99 -41q-42 -8 -85 7q-72 34 -56 121q37 154 208 199q41 -7 61 -33q-169 -40 -211 -156q-29 -81 -2 -92q63 -8 129 15q38 13 65 34zM331 692l9 2q26 8 64 2q116 -22 181 -80q104 -98 107 -238q-1 -136 -104 -232
q-109 -94 -244 -94q-69 2 -129.5 29t-104.5 73q-45 45 -70.5 105.5t-23.5 128.5q3 138 96 235q75 77 192 95q18 -9 27 -26zM336 662q-104 -12 -182 -83q-67 -71 -83 -193q-1 -57 16 -108t55 -90q38 -41 90.5 -65t113.5 -26q119 3 208 81q89 88 89 198q-4 128 -82 205
q-88 76 -225 81z" />
    <glyph glyph-name="ordfeminine" unicode="&#xaa;" 
d="M246 433v35h219v-35h-219zM412 547q-24 -32 -88 -32q-37 0 -57 19.5t-20 48.5q0 35 26 54q11 10 25.5 14.5t38.5 6.5q47 4 73 17v5q0 16 -13 30q-16 15 -42 15q-27 0 -42.5 -12t-20.5 -31h-37q4 19 15 34.5t32 27.5q23 12 54 12q43 0 69 -29q19 -21 19 -52v-54
q0 -48 3 -67t6 -32h-35q-6 22 -6 25zM410 643q-25 -9 -68 -13q-25 -3 -36 -9t-19 -15q-6 -7 -6 -25q0 -14 13.5 -25t40.5 -10q31 2 52 21q23 20 23 44v32z" />
    <glyph glyph-name="guillemotleft" unicode="&#xab;" 
d="M482 617q33 4 56 -18q-118 -97 -237 -208q93 -95 233 -209q-24 -8 -48 7q-114 65 -224 159q-2 36 4 68q114 116 216 201zM342 616q33 4 56 -18q-122 -94 -227 -208q87 -106 223 -209q-24 -8 -48 7q-116 62 -214 159q-2 36 4 68q106 117 206 201z" />
    <glyph glyph-name="logicalnot" unicode="&#xac;" 
d="M675 115v-218h-59v166h-594v52h653z" />
    <glyph glyph-name="uni00AD" unicode="&#xad;" 
d="M197 383h315q27 0 27 -27q0 -23 -27 -23h-315q-27 0 -27 24q0 26 27 26z" />
    <glyph glyph-name="registered" unicode="&#xae;" 
d="M389 583q83 -12 137 -68q9 -25 5 -52q-67 -79 -204 -105q71 -80 153 -134q19 -14 26 -30q7 -21 -21 -9q-119 52 -207 151q-13 -71 -22 -157q-5 -33 -21 -5q-11 22 -10 63q6 150 42 293q-13 -2 -34 -7q-12 28 -8 57q104 13 164 3zM293 402q130 16 196 84q-32 48 -117 53
q-22 1 -43 -1q-22 -68 -36 -136zM331 692l9 2q26 8 64 2q116 -22 181 -80q107 -98 107 -238q-1 -136 -104 -232q-109 -94 -244 -94q-69 2 -129.5 29t-104.5 73q-45 45 -70.5 105.5t-23.5 128.5q0 137 96 235q75 77 192 95q18 -9 27 -26zM336 662q-104 -12 -182 -83
q-81 -76 -83 -193q-1 -57 16 -108t55 -90q38 -41 90.5 -65t113.5 -26q119 3 208 81q89 88 89 198q-1 128 -82 205q-88 76 -225 81z" />
    <glyph glyph-name="degree" unicode="&#xb0;" 
d="M184 734q17 4 30 1q42 -25 31 -77q-12 -51 -63 -75q-40 -19 -75 -5q-27 15 -35 48q-7 57 29 100q23 28 59 35q19 -9 24 -27zM173 715q-22 7 -38 -12q-23 -28 -22 -67q3 -27 24 -29q32 -1 57 44q21 48 -21 64z" />
    <glyph glyph-name="plusminus" unicode="&#xb1;" 
d="M320 300q2 41 8 82q-70 -8 -139 -25q-16 25 -14 57q88 10 160 13q15 87 43 173q38 -1 55 -22q-26 -70 -46 -150h38q77 -2 124 -22q11 -5 -5 -13q-23 -11 -53 -5q-57 2 -114 -2q-17 -74 -29 -155q-4 -21 -15 -1q-15 29 -13 70zM529 166q11 -5 -4 -13q-21 -11 -48 -5
q-140 6 -276 -33q-14 25 -12 59q117 19 228 14q70 -3 112 -22z" />
    <glyph glyph-name="uni00B2" unicode="&#xb2;" horiz-adv-x="350" 
d="M222 485q-75 -4 -158 -43q-9 13 -15 38q144 116 159 193q1 6 -4 6q-40 -3 -81 -54q-29 3 -51 19q64 74 138 65q31 -9 37 -34q-14 -89 -116 -169q67 14 136 7q31 -3 2 -18q-22 -10 -47 -10z" />
    <glyph glyph-name="uni00B3" unicode="&#xb3;" horiz-adv-x="350" 
d="M185 593q30 6 62 -11q20 -14 24 -40q-12 -24 -29 -44t-38 -38q-40 -37 -89 -61q-18 -9 -38 -7q-37 4 -13 17q69 33 110 71q43 39 53 77q-47 9 -133 -25q-12 17 -8 35q22 5 38 16q69 55 85 115q-30 5 -85 -48q-31 7 -38 32q81 63 138 48q25 -15 31 -41q-18 -54 -70 -96z
" />
    <glyph glyph-name="acute" unicode="&#xb4;" 
d="M429 710q26 -23 20 -60q-56 -65 -114 -102q-19 -13 -45 -14q-22 0 -6 16q79 76 145 160z" />
    <glyph glyph-name="paragraph" unicode="&#xb6;" 
d="M505 730v-655h-48v612h-76v-612h-48v381h-32q-60 0 -98 37q-38 38 -38 99t37 96q43 42 95 42h208z" />
    <glyph glyph-name="periodcentered" unicode="&#xb7;" horiz-adv-x="355" 
d="M213 474q32 -22 8 -61q-27 -40 -63 -40q-9 0 -9 15q0 43 44 84q10 8 20 2z" />
    <glyph glyph-name="cedilla" unicode="&#xb8;" 
d="M324 -73q-29 -3 -60 8l15 40q13 -7 33 -7q40 2 45 33q7 35 -46 35l35 82h65l-28 -62q36 -14 33 -50q-3 -29 -25 -51q-25 -25 -67 -28z" />
    <glyph glyph-name="uni00B9" unicode="&#xb9;" horiz-adv-x="350" 
d="M139 566q9 51 22 90h-12q-15 0 -5 20q21 31 53 35q17 -12 18 -35q-17 -34 -36 -97q-12 -45 -26 -127q-8 -38 -19 -12q-4 12 -5 31q3 51 10 95z" />
    <glyph glyph-name="ordmasculine" unicode="&#xba;" 
d="M246 436v34h219v-34h-219zM356 727q-17 0 -31 -6.5t-25 -20.5q-10 -12 -15.5 -28.5t-5.5 -34.5t5.5 -34.5t15.5 -27.5q11 -14 25 -19.5t31 -5.5q15 0 30 5.5t27 19.5q8 11 14.5 27.5t6.5 34.5t-6.5 34.5t-14.5 28.5q-12 14 -27 20.5t-30 6.5zM356 757q22 0 43.5 -10
t36.5 -26q15 -15 23.5 -37t8.5 -47q0 -24 -8.5 -45.5t-23.5 -38.5q-15 -15 -36.5 -24t-43.5 -9q-23 0 -44 9t-37 24q-15 17 -23 38t-8 46t8 46.5t23 37.5q17 16 37.5 26t43.5 10z" />
    <glyph glyph-name="guillemotright" unicode="&#xbb;" 
d="M186 617q-33 4 -56 -18q118 -97 237 -208q-93 -95 -233 -209q24 -8 48 7q114 65 224 159q2 36 -4 68q-114 116 -216 201zM326 616q-33 4 -56 -18q122 -94 227 -208q-87 -106 -223 -209q24 -8 48 7q116 62 214 159q2 36 -4 68q-106 117 -206 201z" />
    <glyph glyph-name="onequarter" unicode="&#xbc;" 
d="M523 610q27 -11 44 -33q-203 -204 -368 -463q-14 7 -11 28q110 228 290 421q22 24 45 47zM565 206q74 11 101 2q20 -11 -16 -18q-46 -10 -93 -22q-18 -91 -27 -186q-3 -29 -18 -2q-6 13 -6 50q1 63 10 127q-57 -15 -123 -33q-21 7 -36 30q41 121 132 238q28 0 50 -18
q-93 -108 -138 -204q63 18 121 28q15 96 46 196q23 -2 44 -24q-27 -81 -47 -164zM175 502q10 60 25 106h-12q-19 0 -6 21q22 35 57 39q18 -13 20 -38q-20 -35 -41 -112q-14 -53 -30 -147q-8 -45 -19 -12q-5 12 -6 34q3 58 12 109z" />
    <glyph glyph-name="onehalf" unicode="&#xbd;" 
d="M523 610q26 -12 43 -33q-203 -204 -368 -463q-14 6 -11 28q110 229 290 420q22 25 46 48zM601 123q-96 -13 -187 -50q-11 15 -17 41q172 141 190 230q0 9 -9 10q-51 -2 -99 -64q-33 5 -54 19q72 85 160 74q30 -8 42 -37q-15 -101 -141 -204q79 20 165 10q25 -3 1 -18
q-22 -14 -51 -11zM165 502q10 60 25 106h-12q-19 0 -6 21q22 35 57 39q18 -13 20 -38q-20 -35 -41 -112q-14 -53 -30 -147q-8 -45 -19 -12q-5 12 -6 34q3 58 12 109z" />
    <glyph glyph-name="threequarters" unicode="&#xbe;" 
d="M546 611q26 -12 43 -33q-203 -204 -368 -463q-14 6 -11 28q110 228 290 420q22 25 46 48zM223 508q46 6 82 -12q24 -17 27 -46q-27 -52 -77 -95t-109 -71q-20 -8 -42 -8q-35 4 -15 16q82 37 133 85q43 42 63 92q-59 13 -158 -29q-17 16 -10 35q25 12 43 22q85 69 104 140
q-40 7 -106 -55q-31 6 -42 32q96 74 160 57q29 -14 35 -46q-25 -69 -88 -117zM565 206q74 11 101 2q20 -11 -16 -18q-46 -10 -93 -22q-18 -91 -27 -186q-3 -29 -18 -2q-6 13 -6 50q1 63 10 127q-57 -15 -123 -33q-21 7 -36 30q41 121 132 238q28 0 50 -18
q-93 -108 -138 -204q63 18 121 28q15 96 46 196q23 -2 44 -24q-27 -81 -47 -164z" />
    <glyph glyph-name="questiondown" unicode="&#xbf;" 
d="M325 291q-70 -92 -76 -158q77 -9 160 86q28 -22 36 -49q-99 -94 -204 -77q-32 20 -41 62q4 59 87 165q46 58 54 153q3 28 16 11q7 -9 10 -24q13 -96 -42 -169zM330 552q-32 22 -8 61q27 40 63 40q9 0 9 -15q0 -43 -44 -84q-10 -8 -20 -2z" />
    <glyph glyph-name="Aring" unicode="&#xc5;" 
d="M373 362q39 3 76 2q-22 76 -52 141q-64 -70 -114 -156q50 9 90 13zM459 330q-102 -6 -211 -43q-43 -84 -75 -182q-6 -16 -12 1q-7 25 1 65q12 88 67 188q68 127 157 217q50 5 69 -12q-28 -26 -53 -54q27 11 54 1q26 -64 49 -160q22 -93 18 -191q0 -25 -11 -41
q-9 -13 -12 2q-19 120 -40 203q-1 3 -1 6zM434 767q17 5 30 1q42 -25 31 -77q-12 -51 -63 -75q-40 -19 -75 -5q-27 15 -35 48q-7 57 29 100q23 28 59 35q20 -9 24 -27zM423 748q-22 7 -38 -12q-23 -28 -22 -67q3 -27 24 -29q32 -1 57 44q21 48 -21 64z" />
    <glyph glyph-name="AE" unicode="&#xc6;" 
d="M354 603l-130 -253h130v253zM404 400v-209h221v-50h-271v162h-154l-84 -162h-56l289 545h261v-49h-206v-188h184v-49h-184z" />
    <glyph glyph-name="Eth" unicode="&#xd0;" 
d="M368 342h-110v-152h88q67 0 100 13q51 21 78 75.5t27 134.5q0 81 -27 135.5t-79 74.5q-32 15 -99 15h-88v-247h110v-49zM202 342h-109v49h109v295h156q102 0 161 -47q39 -33 63.5 -92t24.5 -134q0 -73 -24.5 -132.5t-64.5 -93.5q-58 -46 -160 -46h-156v201z" />
    <glyph glyph-name="multiply" unicode="&#xd7;" 
d="M225 243q36 61 81 118q-36 55 -67 118q13 27 38 33q25 -61 57 -116q62 72 140 137q27 -5 45 -27q-84 -70 -159 -151q53 -81 124 -150q14 -15 -14 -12q-22 3 -39 19q-53 50 -99 112q-56 -63 -107 -133q-14 -17 -13 5q2 24 13 47z" />
    <glyph glyph-name="Oslash" unicode="&#xd8;" 
d="M199 93l30 73q-27 16 -49 42q-34 39 -50.5 93t-16.5 112q0 59 16.5 112.5t50.5 93.5q33 37 79 57.5t95 20.5q46 0 85 -16l24 63h45l-32 -80q29 -17 53 -45q33 -40 51 -93.5t18 -112.5q0 -58 -18 -112t-51 -93q-32 -37 -78 -57t-97 -20q-46 0 -86 16l-22 -54h-47zM249 215
l170 420q-30 12 -65 12q-37 0 -72.5 -16t-62.5 -49q-26 -32 -38 -76t-12 -93q0 -48 12 -92t38 -76q15 -19 30 -30zM456 615l-169 -421q32 -13 67 -13q38 0 74.5 15.5t62.5 47.5q24 33 37.5 77t13.5 92q0 49 -13.5 92.5t-37.5 76.5q-18 21 -35 33z" />
    <glyph glyph-name="Thorn" unicode="&#xde;" 
d="M234 531v-224h128q72 0 107 26q35 27 35 85t-35 87q-31 26 -106 26h-129zM176 697h58v-116h124q109 0 152 -40q50 -43 50 -123q0 -81 -52 -121q-48 -39 -153 -39h-121v-117h-58v556z" />
    <glyph glyph-name="germandbls" unicode="&#xdf;" 
d="M337 641q-85 0 -85 -100v-99q51 -5 97 1q39 6 59.5 32t20.5 66q0 53 -25 76.5t-67 23.5zM484 554q-2 -97 -71 -130q43 -15 64.5 -46.5t21.5 -85.5q0 -45 -17 -77q-29 -61 -112 -72q-63 -11 -118 8v-17h-50v412q0 134 124 141q62 5 102 -23q29 -19 42.5 -48.5t13.5 -61.5z
M252 204q50 -22 115 -13q37 6 58 34t21 70q0 43 -26.5 70.5t-65.5 30.5q-50 4 -102 3v-195z" />
    <glyph glyph-name="ae" unicode="&#xe6;" 
d="M387 420q-8 -23 -9 -62h168q0 34 -10 63q-11 26 -30 42t-46 16q-24 0 -43.5 -16t-29.5 -43zM515 197q24 20 27 45h49q-4 -48 -36 -80q-36 -30 -88 -30q-61 0 -94 47q-14 17 -18 31q-2 -5 -11 -17q-44 -61 -135 -61q-56 1 -83 32.5t-27 74.5q0 62 36 91q18 15 37 22t55 11
q75 8 106 28v15q0 29 -19 51q-25 27 -63 27q-36 0 -58 -22.5t-25 -49.5h-55q4 25 20 52t47 45q31 17 74 17q62 0 96 -43q9 -12 12 -17q0 1 6 8q33 52 92 52q66 0 100.5 -51.5t34.5 -139.5v-22h-217q0 -62 24.5 -97t64.5 -35q29 0 48 16zM334 350q-36 -18 -97 -26
q-36 -5 -51.5 -14.5t-26.5 -26.5q-7 -14 -7 -44q-1 -26 15.5 -44t54.5 -18q43 0 75 29q37 36 37 97v47z" />
    <glyph glyph-name="eth" unicode="&#xf0;" 
d="M458 308q0 53 -32.5 84t-82.5 31t-81 -34.5t-31 -90.5q0 -52 32 -83.5t81 -31.5q55 0 84 34q30 36 30 91zM388 557q-9 12 -16 20l-104 -48l-19 31l99 46q-39 44 -83 70l25 32q56 -33 94 -69l12 -11l105 48l14 -34l-95 -42q47 -55 74 -131q23 -59 22 -137
q-1 -92 -46.5 -146.5t-123.5 -54.5q-75 0 -124 46.5t-49 121.5q0 78 47.5 125.5t124.5 47.5q50 -3 102 -38q-15 62 -59 123z" />
    <glyph glyph-name="divide" unicode="&#xf7;" 
d="M406 567q33 -23 8 -73q-28 -42 -67 -42q-9 1 -9 16q0 43 46 88q16 14 22 11zM542 355q12 -5 -5 -13q-23 -10 -53 -5q-153 5 -302 -31q-16 25 -14 57q147 17 250 14q77 -2 124 -22zM358 242q33 -23 8 -73q-28 -42 -67 -42q-9 1 -9 16q0 43 46 88q16 14 22 11z" />
    <glyph glyph-name="oslash" unicode="&#xf8;" 
d="M223 33l50 120q-26 13 -49 35q-26 28 -39.5 64t-13.5 76q0 42 13.5 78t38.5 63q27 26 61 42t73 16q36 0 65 -13l40 97h42l-47 -116q17 -11 32 -26q25 -27 39.5 -63t14.5 -78q0 -40 -14.5 -76t-39.5 -64q-26 -25 -60.5 -40t-71.5 -15q-26 0 -46 6l-43 -106h-45zM291 198
l113 273q-21 9 -47 9q-28 0 -52 -11t-43 -33q-18 -21 -27 -49t-9 -59q0 -29 9 -57t27 -48q16 -18 29 -25zM438 450l-109 -267q11 -3 28 -3q26 0 51 10t43 33q16 20 26.5 48t10.5 57q0 31 -10.5 59t-26.5 49q-8 9 -13 14z" />
    <glyph glyph-name="thorn" unicode="&#xfe;" 
d="M261 26h-56v663h56v-207q2 4 8 10q44 49 108 49q63 0 102 -36q29 -28 41 -74q11 -36 11 -90q0 -56 -12 -91q-12 -44 -43 -73q-37 -36 -99 -36q-60 0 -105 38q-8 7 -11 11v-164zM471 341q0 69 -19 101q-24 46 -87 46q-53 0 -84 -50q-19 -30 -20 -97q0 -68 18 -98
q31 -49 86 -49q60 0 86 46q20 34 20 101z" />
    <glyph glyph-name="dcroat" unicode="&#x111;" 
d="M618 580h-102v-440h-54v54q-38 -61 -113 -65q-73 -3 -119 51.5t-46 151.5q0 83 39 134q41 58 125 58q72 0 113 -63v119h-115v43h115v63h55v-63h102v-43zM461 329q0 74 -41 116q-31 33 -70 33q-50 0 -81 -35.5t-31 -111.5q0 -74 30.5 -114t81.5 -40q64 0 94 60
q17 30 17 92z" />
    <glyph glyph-name="Hbar" unicode="&#x126;" 
d="M644 579h-86v-438h-56v255h-294v-255h-56v438h-86v45h86v62h56v-62h294v62h56v-62h86v-45zM502 579h-294v-133h294v133z" />
    <glyph glyph-name="hbar" unicode="&#x127;" 
d="M351 583h-111v-124q18 30 48 47q35 21 73 21q61 0 96 -37q39 -34 39 -117v-231h-55v229q0 51 -24.5 78.5t-69.5 27.5q-39 0 -70 -33q-37 -41 -37 -115v-187h-55v441h-105v43h105v62h55v-62h111v-43z" />
    <glyph glyph-name="dotlessi" unicode="&#x131;" 
d="M326 141v374h56v-374h-56z" />
    <glyph glyph-name="IJ" unicode="&#x132;" 
d="M145 141v545h56v-545h-56zM268 287h55q2 -56 30 -82q27 -24 64 -24q41 0 67 30q23 26 23 82v393h56v-395q0 -79 -40 -119q-39 -41 -106 -41q-74 0 -114 44q-41 47 -35 112z" />
    <glyph glyph-name="ij" unicode="&#x133;" 
d="M207 141v375h54v-375h-54zM265 696v-65h-62v65h62zM477 516v-396q0 -51 -24 -74t-66 -23q-16 0 -28 4v52q21 -2 29 -1q18 1 26 13t8 38v387h55zM481 696v-65h-62v65h62z" />
    <glyph glyph-name="kgreenlandic" unicode="&#x138;" 
d="M205 141v385h56v-188l194 188h62l-160 -165l162 -220h-60l-140 187l-58 -55v-132h-56z" />
    <glyph glyph-name="Ldot" unicode="&#x13f;" 
d="M472 448q0 -18 -13.5 -30.5t-31.5 -12.5t-30.5 12.5t-12.5 30.5q0 17 12.5 30.5t30.5 13.5t31.5 -13.5t13.5 -30.5zM185 141v545h56v-495h279v-50h-335z" />
    <glyph glyph-name="ldot" unicode="&#x140;" 
d="M251 140v544h56v-544h-56zM481 449q0 -18 -13 -29.5t-30 -11.5t-29.5 11.5t-12.5 29.5t12.5 31t29.5 13t30 -13t13 -31z" />
    <glyph glyph-name="Lslash" unicode="&#x141;" 
d="M393 533l-152 -102v-240h279v-50h-335v253l-100 -68l-26 37l126 84v239h56v-201l128 86z" />
    <glyph glyph-name="lslash" unicode="&#x142;" 
d="M324 141v255l-114 -76l-26 36l140 92v237h56v-198l111 75l24 -39l-135 -90v-292h-56z" />
    <glyph glyph-name="napostrophe" unicode="&#x149;" 
d="M117 498h-37l85 183h70zM511 141h-54v246q0 40 -21 64t-66 24q-53 0 -83.5 -40.5t-30.5 -94.5v-199h-55v375h50v-63q33 72 128 73q69 0 100.5 -35t31.5 -107v-243z" />
    <glyph glyph-name="Eng" unicode="&#x14a;" 
d="M145 141v545h60v-91q57 102 179 100q88 0 127.5 -46t39.5 -135l2 -323q0 -85 -38 -153l-59 19q35 67 35 127l-1 336q0 56 -28.5 89t-91.5 33q-65 0 -114.5 -56t-49.5 -127v-318h-61z" />
    <glyph glyph-name="eng" unicode="&#x14b;" 
d="M511 121q0 -51 -24 -73t-65 -22q-20 0 -31 4v51q13 -5 24 -4q23 2 32.5 13.5t9.5 40.5v255q0 41 -21 65t-66 24q-53 0 -84 -41t-31 -95v-198h-54v375h50v-60q33 69 128 70q69 0 100.5 -35t31.5 -108v-262z" />
    <glyph glyph-name="OE" unicode="&#x152;" 
d="M348 141q-30 -10 -63 -10q-44 0 -84.5 20t-68.5 58q-31 38 -46 92t-15 112q0 59 15 112.5t46 92.5q28 38 68.5 58.5t84.5 20.5q36 0 63 -11h274v-49h-221v-188h199v-49h-199v-209h236v-50h-289zM347 634q-26 14 -62 14q-33 0 -63.5 -16.5t-55.5 -48.5q-22 -33 -33.5 -77
t-11.5 -93q0 -48 11.5 -92t33.5 -77q25 -32 55.5 -47.5t63.5 -15.5q37 0 62 12v441z" />
    <glyph glyph-name="oe" unicode="&#x153;" 
d="M239 481q-17 0 -34 -11t-32 -33q-12 -20 -17.5 -49t-5.5 -59t5.5 -58t17.5 -49q15 -21 32 -31t34 -10q19 0 35.5 10t32.5 31q12 22 19 49t7 58q0 30 -7 58.5t-19 49.5q-16 22 -32.5 33t-35.5 11zM239 528q30 0 56.5 -15.5t45.5 -42.5q10 -13 12 -18q2 9 14 24
q34 52 92 52q70 0 104.5 -51.5t34.5 -139.5v-22h-217q0 -62 24 -97t62 -35q28 0 49 16q23 17 25 45h53q-3 -50 -38 -80q-36 -30 -90 -30q-59 0 -94 47q-14 17 -19 30q-2 -8 -12 -22q-18 -26 -45 -40.5t-57 -14.5q-28 0 -55 14.5t-44 40.5q-19 26 -29 63t-10 77
q0 42 9.5 78.5t29.5 62.5q17 27 44 42.5t55 15.5zM389 422q-9 -23 -9 -62h164q0 34 -9 63q-11 26 -29.5 42t-46.5 16q-21 0 -40.5 -16t-29.5 -43z" />
    <glyph glyph-name="Tbar" unicode="&#x166;" 
d="M170 408v46h156v182h-194v50h446v-50h-195v-182h157v-46h-157v-267h-57v267h-156z" />
    <glyph glyph-name="tbar" unicode="&#x167;" 
d="M449 140h-51q-50 0 -72.5 25.5t-22.5 71.5v158h-81v46h81v87l-98 -23l-11 40l109 28v100h58v-84l102 27l11 -47l-113 -27v-101h94v-46h-94v-157q0 -48 51 -48h37v-50z" />
    <glyph glyph-name="uni02BC" unicode="&#x2bc;" horiz-adv-x="350" 
d="M103 815q47 -10 54 -53q-16 -54 -47 -97q-19 -26 -45 -33q-21 -3 -13 15q40 77 51 168z" />
    <glyph glyph-name="caron" unicode="&#x2c7;" 
d="M376 565q-14 -11 -29 0l-138 110q-16 11 -12 23q8 17 35 4l129 -64l126 64q30 14 37 -4q4 -9 -11 -22z" />
    <glyph glyph-name="uni02D0" unicode="&#x2d0;" horiz-adv-x="350" 
d="M181 427l-88 150h170zM91 215l89 149l82 -149h-171z" />
    <glyph glyph-name="breve" unicode="&#x2d8;" 
d="M369 586q-26 0 -54 7.5t-53 23.5q-18 10 -35 26t-34 43l43 27q26 -35 61.5 -54.5t67.5 -18.5q27 2 59 20t53 49l51 -17q-18 -29 -36 -47.5t-36 -30.5q-22 -13 -44.5 -20t-42.5 -8z" />
    <glyph glyph-name="dotaccent" unicode="&#x2d9;" 
d="M402 751q0 -20 -14.5 -34t-34.5 -14t-34 14t-14 34t14 34t34 14t34.5 -14t14.5 -34z" />
    <glyph glyph-name="ring" unicode="&#x2da;" 
d="M454 708q0 -20 -8.5 -37t-22.5 -31q-13 -12 -31.5 -19.5t-38.5 -7.5t-39 7.5t-32 19.5q-14 14 -21.5 31t-7.5 37q0 19 7.5 36t21.5 30q13 12 32 20t39 8t38.5 -8t31.5 -20q14 -13 22.5 -30t8.5 -36zM414 708q0 22 -18 40t-43 18t-43 -18t-18 -40q0 -24 18 -41.5t43 -17.5
t43 17.5t18 41.5z" />
    <glyph glyph-name="ogonek" unicode="&#x2db;" 
d="M359 -85q-28 1 -46 20t-19 49q-2 42 31 82l30 -12q-16 -35 -17 -57q-1 -15 6 -25.5t20 -11.5q22 -3 34 13q5 8 7 17l32 -7q-4 -35 -28 -53q-22 -17 -50 -15z" />
    <glyph glyph-name="tilde" unicode="&#x2dc;" 
d="M319 719q50 -32 82 -98q74 17 138 88q17 20 20 -4q1 -19 -21 -44q-54 -63 -133 -77q-32 5 -47 30q-28 53 -70 89q-66 -42 -102 -121q-32 9 -45 32q44 88 130 119q27 4 48 -14z" />
    <glyph glyph-name="hungarumlaut" unicode="&#x2dd;" 
d="M329 710q26 -23 20 -60q-56 -65 -114 -102q-19 -13 -45 -14q-22 0 -6 16q79 76 145 160zM481 710q26 -23 20 -60q-56 -65 -114 -102q-19 -13 -45 -14q-22 0 -6 16q79 76 145 160z" />
    <glyph glyph-name="Alpha" unicode="&#x391;" 
d="M110 141l216 546h60l206 -546h-62l-60 160h-235l-63 -160h-62zM356 612l-98 -253h189z" />
    <glyph glyph-name="Beta" unicode="&#x392;" horiz-adv-x="630" 
d="M180 394v-196h181q52 1 81.5 29t29.5 75q2 46 -33.5 69t-92.5 23h-166zM126 141l-1 546h176q95 0 138 -22q39 -22 56.5 -54.5t17.5 -69.5q0 -84 -79 -114q45 -15 71.5 -49t26.5 -83q0 -44 -19 -81q-20 -36 -61 -54.5t-85 -18.5h-241zM178 632v-182h154q53 0 84 25t30 66
q1 49 -31.5 70t-90.5 21h-146z" />
    <glyph glyph-name="Gamma" unicode="&#x393;" horiz-adv-x="555" 
d="M124 686h328l1 -54h-272l-1 -491h-56v545z" />
    <glyph glyph-name="uni0394" unicode="&#x394;" 
d="M510 186l-154 441l-166 -441h320zM110 141l219 546h57l208 -546h-484z" />
    <glyph glyph-name="Epsilon" unicode="&#x395;" horiz-adv-x="536" 
d="M124 141v546h345l1 -54h-287v-184h268v-53h-265v-200h290v-55h-352z" />
    <glyph glyph-name="Zeta" unicode="&#x396;" horiz-adv-x="611" 
d="M115 141v56l299 435h-303v55l381 -1v-56l-301 -433h329v-56h-405z" />
    <glyph glyph-name="Eta" unicode="&#x397;" horiz-adv-x="626" 
d="M124 141v546h61l1 -239h274v239h59v-546h-59v252h-275v-252h-61z" />
    <glyph glyph-name="Theta" unicode="&#x398;" 
d="M362 133q-87 0 -139 32q-64 40 -82 109q-12 44 -13 94v95q0 46 11 97q17 61 73 102q47 34 135 34q91 0 140 -33q61 -42 80 -109q13 -47 16 -95v-95q0 -46 -12 -95q-19 -64 -74 -105q-49 -31 -135 -31zM357 188q79 0 120 32q34 29 42 69q10 36 8 83v87q1 45 -9 82
q-14 39 -47 66q-38 34 -118 34q-79 0 -116 -34q-36 -29 -44 -70q-9 -36 -9 -81v-89q0 -43 9 -83q10 -38 46 -64q40 -32 118 -32zM283 461v-30h145v30h35v-101h-35v31h-146v-31h-34v101h35z" />
    <glyph glyph-name="Iota" unicode="&#x399;" horiz-adv-x="296" 
d="M124 141v546h60l1 -546h-61z" />
    <glyph glyph-name="Kappa" unicode="&#x39a;" horiz-adv-x="648" 
d="M125 141l-1 546h58v-286l267 286h84l-220 -230l222 -316h-65l-194 280l-93 -98v-182h-58z" />
    <glyph glyph-name="Lambda" unicode="&#x39b;" 
d="M518 141l-171 478l-177 -478h-69l213 545h68l205 -545h-69z" />
    <glyph glyph-name="Mu" unicode="&#x39c;" 
d="M125 141l-1 546h81l145 -480l147 480h82v-546h-53v487l-147 -487h-51l-151 489v-489h-52z" />
    <glyph glyph-name="Nu" unicode="&#x39d;" horiz-adv-x="593" 
d="M125 141v546h57l254 -458v458h58v-546h-64l-247 450v-450h-58z" />
    <glyph glyph-name="Xi" unicode="&#x39e;" horiz-adv-x="588" 
d="M122 632v55h352v-55h-352zM174 394v56l258 -1l1 -55h-259zM125 197h354v-56h-354v56z" />
    <glyph glyph-name="Omicron" unicode="&#x39f;" 
d="M361 133q-83 0 -136 32q-65 39 -83 108q-11 45 -13 95v94q0 47 12 98q16 61 74 103q49 33 135 33q87 0 138 -33q62 -42 81 -109q12 -47 15 -95v-95q1 -47 -12 -94q-19 -65 -78 -106q-48 -31 -133 -31zM357 190q74 0 115 32q33 29 41 68q11 36 9 82v87q2 44 -9 81
q-13 38 -46 66q-37 33 -112 33q-76 0 -113 -34q-35 -28 -43 -68q-9 -37 -9 -81v-89q1 -42 9 -82q10 -37 44 -64q41 -31 114 -31z" />
    <glyph glyph-name="Pi" unicode="&#x3a0;" horiz-adv-x="536" 
d="M377 141l-1 492h-194v-492h-57l-1 444v102h310v-546h-57z" />
    <glyph glyph-name="Rho" unicode="&#x3a1;" horiz-adv-x="588" 
d="M124 141v546h208q81 0 129 -46.5t49 -119.5q3 -72 -48 -115.5t-135 -43.5h-140l-1 -221h-62zM186 633v-217h143q62 0 92 29.5t29 80.5q1 49 -28 78t-93 29h-143z" />
    <glyph glyph-name="Sigma" unicode="&#x3a3;" horiz-adv-x="611" 
d="M535 194v-53h-411v49l209 243l-184 206v48h371v-51h-299l182 -214l-196 -228h328z" />
    <glyph glyph-name="Tau" unicode="&#x3a4;" 
d="M322 141v492h-203v54h465v-54h-201v-492h-61z" />
    <glyph glyph-name="Upsilon" unicode="&#x3a5;" 
d="M579 687l-202 -324v-222h-59v225l-202 321h63l167 -270l164 270h69z" />
    <glyph glyph-name="Phi" unicode="&#x3a6;" 
d="M380 701v-57q62 -1 101 -20q42 -17 74 -51q29 -33 44 -72.5t12 -88.5q-1 -47 -21 -87.5t-55 -71.5q-35 -32 -78 -51q-31 -12 -78 -18v-65h-51v67q-61 0 -102 16q-42 18 -75 52q-29 33 -43.5 72t-12.5 89q2 46 21 86t57 73q32 32 76 50q34 14 80 19v58h51zM379 591v-354
q42 9 68.5 20t51.5 35q23 26 37.5 54.5t17.5 67.5q3 37 -6.5 67t-31.5 54q-20 24 -50 38q-31 17 -87 18zM328 238v355q-42 -9 -60 -18q-35 -16 -59 -42q-27 -24 -39 -53.5t-15 -67.5q-4 -37 5 -65.5t29 -53.5q22 -24 54 -39q32 -12 85 -16z" />
    <glyph glyph-name="Chi" unicode="&#x3a7;" 
d="M127 141l192 283l-172 263h66l142 -219l142 219h76l-182 -269l182 -277h-67l-149 232l-154 -232h-76z" />
    <glyph glyph-name="Psi" unicode="&#x3a8;" horiz-adv-x="675" 
d="M370 686v-339q60 7 87 23q44 22 46 63v254h55v-260q-2 -62 -60 -96q-45 -28 -128 -34v-156h-52v154q-79 8 -125 36q-61 37 -59 102v254h53v-252q0 -39 39 -62q25 -15 94 -26v339h50z" />
    <glyph glyph-name="uni03A9" unicode="&#x3a9;" 
d="M348 648q-65 -2 -119.5 -52t-51.5 -142q0 -73 42.5 -114.5t89.5 -58.5q15 -7 18 -30l4 -110h-153v46h95l-2 59q-59 28 -103 84t-47 131q-3 100 58.5 168.5t161.5 68.5q101 0 171 -70t75 -171q3 -74 -40.5 -130t-96.5 -82l2 -58h91v-46h-145l-3 113q-5 22 11 27
q45 17 85.5 60t39.5 118q-2 90 -58 139.5t-125 49.5z" />
    <glyph glyph-name="alpha" unicode="&#x3b1;" horiz-adv-x="530" 
d="M358 502l41 -11q-13 -49 -21 -84q-9 -51 -21 -144q0 -20 6 -43q5 -23 19 -32q14 -8 27 8l7 12l38 -12q-11 -37 -27 -49q-14 -10 -29 -10q-21 0 -42 16q-13 13 -27 33q-10 -21 -37 -37q-31 -13 -55 -13q-44 0 -76 38q-43 48 -47 125q-5 119 30 171q35 55 85 55
q48 -2 79 -36q19 -22 31 -55zM235 477h-5q-24 0 -50 -42q-21 -40 -18 -141q4 -54 26 -83q23 -25 56 -24q26 0 41 23q16 25 25 76q-2 102 -26 151q-18 40 -49 40z" />
    <glyph glyph-name="beta" unicode="&#x3b2;" horiz-adv-x="530" 
d="M246 621q-71 0 -69 -95v-85h85q49 0 77 29t26 71q-1 37 -21 58.5t-64 21.5h-34zM178 214q60 -19 109 -17q49 1 78 27t26 74q-3 47 -32.5 69.5t-89.5 22.5h-91v-176zM180 163v-126h-62v494q-5 71 30 105q37 40 89 40h26q54 0 94 -23q33 -19 51 -51.5t18 -59.5
q4 -94 -75 -122q48 -14 72.5 -48t27.5 -78q4 -45 -14 -81q-15 -31 -49 -49.5t-93 -20.5q-48 0 -115 20z" />
    <glyph glyph-name="gamma" unicode="&#x3b3;" horiz-adv-x="560" 
d="M276 139q-16 -63 -25 -103h-58q13 60 31 137q-8 80 -41.5 171t-80.5 177h63q81 -154 106 -312q105 115 147 257q7 25 2 55h54q0 -21 -3 -43q-4 -50 -38 -123t-115 -167q-23 -27 -42 -49z" />
    <glyph glyph-name="delta" unicode="&#x3b4;" horiz-adv-x="560" 
d="M403 331q0 71 -29 104q-31 43 -86 43q-33 14 -89 -44q-30 -35 -29 -107q-1 -72 27 -107q32 -37 87 -37q59 0 89 36q30 39 30 112zM291 536q66 -4 118 -61q25 -28 37.5 -67t13.5 -81q0 -42 -12 -79.5t-38 -66.5q-41 -51 -121 -51q-79 0 -127 52q-24 29 -37 68t-13 82
q-2 39 11.5 76.5t34.5 63.5q14 19 41 35q-30 24 -39 58q-8 36 13 63q28 34 76 36q36 2 80 -17l-11 -42q-43 16 -66 8q-48 -14 -46 -35q3 -26 32 -38q14 -3 33 -4h20z" />
    <glyph glyph-name="epsilon" unicode="&#x3b5;" horiz-adv-x="530" 
d="M287 474q-34 0 -51 -16.5t-13 -40.5q2 -17 18.5 -28.5t38.5 -11.5h101l-10 -46h-70q-58 0 -91 -26t-27 -62q8 -57 87 -57q69 0 137 30l-11 -63q-55 -21 -115 -21q-65 0 -102 22q-49 32 -60 87q-16 84 85 116q-39 30 -45 60q-11 53 27 82t95 29q67 -1 148 -34l-20 -47
q-75 28 -122 27z" />
    <glyph glyph-name="zeta" unicode="&#x3b6;" horiz-adv-x="530" 
d="M420 632q7 -20 -41 -22l-182 -279q-23 -39 -20 -58q5 -13 27 -18q60 -14 121 -32q98 -27 101 -101q0 -41 -20.5 -70t-72.5 -29q-31 0 -54 2l3 53h43q46 0 45 42q0 34 -54 49l-98 24q-91 23 -99 73q-5 34 26 86q11 16 23 35l148 231h-179l12 51h176q37 0 53 23
q31 -27 42 -60z" />
    <glyph glyph-name="eta" unicode="&#x3b7;" horiz-adv-x="530" 
d="M118 139v378h53v-56q59 63 128 64q65 0 98.5 -35.5t32.5 -106.5v-346h-57v351q1 42 -17 63t-65 21q-49 0 -82.5 -40.5t-35.5 -94.5v-198h-55z" />
    <glyph glyph-name="theta" unicode="&#x3b8;" horiz-adv-x="552" 
d="M449 290q1 -70 -46.5 -113t-120.5 -43q-67 0 -114.5 44t-49.5 116v245q-2 69 45 114t116 45q73 0 121.5 -46.5t48.5 -122.5v-239zM392 295v105h-218v-108q-2 -49 27.5 -76.5t78.5 -27.5q51 0 81.5 29t30.5 78zM393 446v90q1 49 -28 78.5t-84 29.5q-49 0 -78 -31t-29 -80
v-87h219z" />
    <glyph glyph-name="iota" unicode="&#x3b9;" horiz-adv-x="342" 
d="M178 518v-348q0 -19 33 -21q25 -2 44 6v-51q-15 -5 -34 -7q-39 -2 -63 9q-42 23 -40 76v336h60z" />
    <glyph glyph-name="kappa" unicode="&#x3ba;" horiz-adv-x="530" 
d="M118 141v377h53v-183l180 183h81l-167 -159l158 -218h-60l-133 189l-59 -63v-126h-53z" />
    <glyph glyph-name="lambda" unicode="&#x3bb;" horiz-adv-x="530" 
d="M467 141h-61l-134 291l-103 -291h-68l141 360q-7 25 -18 45q-17 33 -60 33q-38 0 -51 -6l-5 50q18 7 55 7q28 -1 59 -18q31 -19 48 -53z" />
    <glyph glyph-name="uni03BC" unicode="&#x3bc;" horiz-adv-x="530" 
d="M432 517v-377h-53v48q-60 -51 -117 -50q-54 -1 -93 41v-144h-51v482h53v-198q0 -69 26 -96.5t60 -27.5q53 0 87 29.5t35 90.5v202h53z" />
    <glyph glyph-name="nu" unicode="&#x3bd;" horiz-adv-x="530" 
d="M450 518l-151 -377h-57l-138 377h57l114 -316l117 316h58z" />
    <glyph glyph-name="xi" unicode="&#x3be;" horiz-adv-x="500" 
d="M180 294q3 -20 15.5 -35.5t55.5 -27.5q59 -18 98 -30q53 -16 59 -81q4 -41 -21 -71t-80 -30q-19 0 -58 5l10 54q14 -3 39 -3q53 -3 52 35q0 44 -26 49q-44 9 -88 19q-34 7 -65 24q-40 26 -49 83q-14 75 43 128q26 25 62 36q-47 20 -57 66q-9 46 52 107h-66l11 43h157
q30 0 47 25q45 -44 46 -48q-7 -14 -17 -14q-23 0 -64 -10q-59 -15 -84.5 -41.5t-21.5 -55.5q9 -58 90 -58h59l-9 -47h-63q-59 0 -96.5 -38.5t-30.5 -83.5z" />
    <glyph glyph-name="omicron" unicode="&#x3bf;" horiz-adv-x="600" 
d="M459 326q0 -42 -12 -80t-38 -67q-42 -50 -122 -50q-78 0 -126 52q-24 29 -37.5 68t-13.5 81q-1 39 12.5 78.5t33.5 65.5q46 54 125 54t127 -54q25 -29 37.5 -68.5t13.5 -79.5zM401 329q1 72 -29 106q-30 40 -91 40q-57 0 -85 -43q-28 -34 -28 -106q0 -73 30 -109
q31 -36 86 -36q58 0 88 38q29 37 29 110z" />
    <glyph glyph-name="pi" unicode="&#x3c0;" horiz-adv-x="600" 
d="M113 144q59 155 50 319h-62v55h372v-54h-56q-8 -156 4 -212q9 -62 60 -111l-47 -15q-52 52 -65 110q-15 69 -8 227h-141q6 -183 -48 -334z" />
    <glyph glyph-name="rho" unicode="&#x3c1;" horiz-adv-x="530" 
d="M173 37h-54l1 480h56v-43q22 23 51 38.5t62 15.5q60 0 99 -37q31 -28 43 -78q10 -31 10 -85q1 -55 -12 -87q-12 -44 -45 -75.5t-91 -31.5q-32 0 -65 14t-55 37v-148zM383 330q0 67 -19 99q-27 44 -89 44q-45 0 -79 -51q-19 -27 -20 -94q0 -59 18 -89q28 -46 84 -51
q61 1 84 40q20 33 21 102z" />
    <glyph glyph-name="sigma" unicode="&#x3c3;" horiz-adv-x="600" 
d="M404 329q0 72 -30 105q-29 41 -90 41q-57 0 -85 -43q-28 -35 -28 -106q-1 -73 28 -108q32 -37 88 -37q58 0 87 36q29 39 30 112zM529 528v-53h-115q25 -42 34 -71q12 -38 13 -78q0 -42 -12 -80t-38 -67q-41 -50 -121 -50q-79 0 -126 52q-24 29 -37.5 68t-13.5 81
q-1 39 12 78.5t34 66.5q43 50 115 53h255z" />
    <glyph glyph-name="tau" unicode="&#x3c4;" horiz-adv-x="530" 
d="M297 463v-289q1 -22 31 -22q37 0 47 2l-1 -49q-15 -5 -32 -7q-40 -1 -63 9q-42 22 -39 75l-1 281h-131v55h334v-55h-145z" />
    <glyph glyph-name="upsilon" unicode="&#x3c5;" horiz-adv-x="530" 
d="M400 524q27 -44 35 -102q21 -140 -36 -228q-44 -67 -142 -67q-67 0 -103 38t-36 109v244h58v-249q-2 -42 16 -62.5t59 -20.5q58 0 86.5 35.5t38.5 94.5q7 44 2 95q-5 57 -35 96z" />
    <glyph glyph-name="phi" unicode="&#x3c6;" horiz-adv-x="686" 
d="M377 210q77 5 105 47q18 28 25 60.5t-2 62.5q-28 82 -84 84q-37 2 -43 -33q-1 -20 -1 -50v-171zM375 148v-111h-59v114q-60 11 -100 32q-58 35 -83 100q-33 72 0 142q28 54 109 90l36 -53q-59 -18 -86 -60q-21 -40 5 -103q12 -22 39 -49q25 -25 81 -35v204
q-2 45 22.5 72.5t58.5 28.5q57 0 109 -39.5t60 -102.5q15 -113 -52 -175q-48 -46 -140 -55z" />
    <glyph glyph-name="chi" unicode="&#x3c7;" horiz-adv-x="575" 
d="M107 141l158 190l-133 187h68l101 -145l109 145h73l-146 -188l141 -189h-68l-108 147l-119 -147h-76z" />
    <glyph glyph-name="psi" unicode="&#x3c8;" horiz-adv-x="642" 
d="M357 194q73 11 96 33t34 48q14 47 0.5 112.5t-25.5 100.5l43 11q20 -39 38.5 -113.5t-10.5 -141.5q-30 -65 -87 -87q-31 -12 -89 -16v-107h-53v105q-68 6 -103 19q-61 27 -82 108q-12 48 -11 96t17 87q14 35 31 59l50 -31q-19 -27 -32 -66q-15 -66 1 -141q8 -36 30 -54
q22 -17 99 -22v358h53v-358z" />
    <glyph glyph-name="omega" unicode="&#x3c9;" horiz-adv-x="686" 
d="M567 364q27 -95 -13.5 -162.5t-102.5 -67.5t-105 47q-32 -48 -79 -51q-49 -3 -90 24t-56 98q-17 86 12 180q20 55 43 86h67q-43 -56 -58 -117q-17 -75 -3 -129q27 -79 78 -78t52 81v167h57v-175q-2 -34 12 -52q19 -20 47 -20q53 0 76.5 47t3.5 124q-20 75 -77 152h55
q61 -81 81 -154z" />
    <glyph glyph-name="phi1" unicode="&#x3d5;" 
d="M269 114q12 30 29 85q-15 3 -29 9q-26 11 -45 30q-19 20 -27 46t-3 56q5 28 22.5 53.5t41.5 44.5q58 45 117 42l8 34q11 48 17 97q2 12 5.5 26t10.5 26q13 23 36 22q20 -2 23 -16t-1 -30q-6 -15 -14.5 -31t-16.5 -45l-26 -89q7 -2 14 -5q26 -12 45 -31t26.5 -45.5
t3.5 -54.5q-5 -29 -21.5 -55t-42.5 -45q-24 -20 -53 -30q-25 -9 -51 -11q-11 -37 -26 -96q-3 -35 -16.5 -51.5t-29.5 -10.5q-19 7 -18 29q0 10 7.5 21.5t13.5 24.5zM313 249q33 109 56 205q-17 -2 -34 -8q-22 -8 -38 -23q-19 -15 -30.5 -33.5t-14.5 -40.5q-5 -22 1 -40.5
t19 -32.5q12 -15 30 -23q5 -2 11 -4zM410 449l-59 -204q18 2 35 8q21 8 38 23q18 15 29.5 33.5t15.5 41.5q3 21 -2.5 39.5t-17.5 32.5q-12 15 -30 23q-5 2 -9 3z" />
    <glyph glyph-name="uni0401" unicode="&#x401;" horiz-adv-x="567" 
d="M118 141v467h365v-55h-302v-143h281v-53h-281v-161h304v-55h-367zM264 716q0 -18 -15 -29.5t-30 -11.5t-29 11.5t-14 29.5q0 19 13.5 32t29.5 13t30.5 -13t14.5 -32zM428 716q0 -18 -14.5 -29.5t-30.5 -11.5q-17 0 -30 11.5t-13 29.5q0 19 13 32t30 13t31 -13t14 -32z
" />
    <glyph glyph-name="uni0410" unicode="&#x410;" 
d="M98 141l222 548h60l215 -548h-71l-58 162h-235l-67 -162h-66zM350 629l-99 -271h195z" />
    <glyph glyph-name="uni0411" unicode="&#x411;" horiz-adv-x="627" 
d="M118 688h350v-55h-287v-184h150q86 0 129 -19q42 -24 58.5 -56t16.5 -76q0 -43 -20 -80q-18 -36 -54.5 -56.5t-90.5 -20.5h-252v547zM181 198h185q51 1 78.5 30t27.5 73q0 45 -31.5 70t-91.5 25h-168v-198z" />
    <glyph glyph-name="uni0412" unicode="&#x412;" horiz-adv-x="627" 
d="M180 395v-197h185q51 1 79 30t28 73q0 47 -36 70.5t-88 23.5h-168zM118 141v548h195q95 0 131 -22q37 -23 52 -52t15 -61q0 -51 -22 -79q-20 -27 -54 -45q45 -17 72 -49q25 -30 27 -83q0 -43 -20 -80q-18 -36 -54.5 -56.5t-90.5 -20.5h-251zM180 633v-182h154
q51 0 82.5 24t31.5 64q0 52 -31.5 73t-87.5 21h-149z" />
    <glyph glyph-name="uni0413" unicode="&#x413;" horiz-adv-x="530" 
d="M118 689h350v-55h-288v-493h-62v548z" />
    <glyph glyph-name="uni0414" unicode="&#x414;" horiz-adv-x="686" 
d="M332 631q-7 -244 -98 -437h235v437h-137zM528 194h46v-152h-56v99h-346v-99h-56v152h46q118 190 121 494h245v-494z" />
    <glyph glyph-name="uni0415" unicode="&#x415;" horiz-adv-x="560" 
d="M118 141v548h365v-56h-302v-184h281v-53h-281v-199h304v-56h-367z" />
    <glyph glyph-name="uni0416" unicode="&#x416;" 
d="M371 423q38 5 48 13q36 29 38 123q1 62 46 100q38 33 103 30v-51q-48 5 -76 -22q-25 -24 -27 -87q-2 -61 -35 -113q34 -6 47 -11q59 -26 67 -113q8 -109 26 -151h-61q-12 39 -18 138q-3 56 -29 80q-31 26 -129 13v-231h-55v230l-27 5q-78 7 -103 -18q-26 -23 -30 -79
q-6 -99 -17 -138h-66q23 41 30 150q8 86 68 113q10 5 46 11q-33 51 -35 114q-2 62 -28 87q-30 26 -73 20v52q62 3 101 -30q45 -37 46 -100q3 -103 36 -122q12 -6 52 -16v269h55v-266z" />
    <glyph glyph-name="uni0417" unicode="&#x417;" horiz-adv-x="582" 
d="M117 275h59q8 -46 39 -66t75 -23q78 3 108 34q28 29 28 72t-30 66t-65 32q-42 9 -83 3v55q32 -1 68 4q42 7 69 31t29 62t-26 66.5t-92 30.5q-41 -2 -72 -22q-32 -19 -39 -61h-59q8 48 32 75q60 60 134 61q71 0 111 -25q71 -40 71 -122q-3 -42 -23 -70q-26 -39 -70 -56
q31 -9 64 -36q41 -33 40 -94q0 -67 -47 -112q-48 -45 -149 -45q-85 0 -132 47q-36 39 -40 93z" />
    <glyph glyph-name="uni0418" unicode="&#x418;" horiz-adv-x="635" 
d="M525 141h-58v454l-283 -454h-64v548h58v-464l284 463l63 1v-548z" />
    <glyph glyph-name="uni0419" unicode="&#x419;" horiz-adv-x="635" 
d="M526 141h-59v387l-292 -387h-56v481h59v-394l293 394h55v-481zM322 654q-98 -2 -161 78l34 19q53 -55 128 -53q73 -2 128 53l34 -19q-68 -80 -163 -78z" />
    <glyph glyph-name="uni041A" unicode="&#x41a;" horiz-adv-x="560" 
d="M180 688v-266q69 -3 98 18q39 26 41 117q2 63 54 101q41 33 112 29v-52q-53 5 -83 -22q-29 -25 -31 -85q-5 -58 -44 -112q28 -1 54 -9q69 -22 78 -118q9 -107 34 -148h-73q-11 39 -19 134q-4 55 -32 80q-35 29 -122 19q-44 -2 -67 -3v-230h-62v547h62z" />
    <glyph glyph-name="uni041B" unicode="&#x41b;" 
d="M573 141h-59v493h-175v-365q0 -59 -26 -95q-33 -44 -98 -44q-49 0 -84 32q-31 29 -31 86v10h60v-15q0 -25 10 -39q11 -18 45 -19q36 0 52 25q14 20 14 58v421h292v-548z" />
    <glyph glyph-name="uni041C" unicode="&#x41c;" 
d="M89 141v548h80l182 -471l182 471h82v-548h-55v479l-186 -479h-47l-182 477v-477h-56z" />
    <glyph glyph-name="uni041D" unicode="&#x41d;" horiz-adv-x="638" 
d="M118 141v548h63v-242h295v242h63v-548h-63v253h-295v-253h-63z" />
    <glyph glyph-name="uni041E" unicode="&#x41e;" horiz-adv-x="686" 
d="M93 408q0 128 70.5 208t181.5 80q69 0 127 -36.5t89 -98.5q37 -73 37 -149q0 -79 -34 -148.5t-96 -103.5q-56 -27 -123 -27q-74 0 -133.5 36t-87.5 97q-30 58 -31 142zM151 405q0 -100 54 -160.5t140 -60.5q87 0 141 61t54 168q0 64 -24.5 118t-71.5 83q-44 32 -98 31
q-84 0 -139.5 -59t-55.5 -181z" />
    <glyph glyph-name="uni041F" unicode="&#x41f;" horiz-adv-x="575" 
d="M118 141v547h346v-547h-59v492h-228v-492h-59z" />
    <glyph glyph-name="uni0420" unicode="&#x420;" horiz-adv-x="592" 
d="M118 141v548h215q85 0 132.5 -45.5t47.5 -119.5q0 -72 -47.5 -116.5t-134.5 -44.5h-150v-222h-63zM181 634v-216h147q64 0 93.5 28t29.5 78q0 51 -29.5 80.5t-93.5 29.5h-147z" />
    <glyph glyph-name="uni0421" unicode="&#x421;" 
d="M520 338h60q-1 -74 -60.5 -139.5t-163.5 -65.5q-85 0 -138 39t-79 99q-27 63 -27 143q0 77 29 144.5t91 108.5q46 29 128 29q93 0 153.5 -58t64.5 -124h-60q-10 58 -55 94t-105 36q-68 0 -111.5 -31.5t-60.5 -84.5q-17 -49 -17 -114t20 -119t63 -78q47 -32 103 -32
q68 0 115 44.5t50 108.5z" />
    <glyph glyph-name="uni0422" unicode="&#x422;" horiz-adv-x="635" 
d="M290 141v493h-178v55h419v-55h-178v-493h-63z" />
    <glyph glyph-name="uni0423" unicode="&#x423;" horiz-adv-x="620" 
d="M521 687l-194 -478q-13 -39 -48 -59q-33 -17 -69 -17t-56 4v50q9 -2 54 -2q51 0 69 38q12 22 21 51l-181 414h66l142 -348l130 347h66z" />
    <glyph glyph-name="uni0424" unicode="&#x424;" 
d="M323 186q-56 1 -93 16q-44 18 -77 48q-30 33 -48.5 75t-18.5 88q0 48 18 91t49 72q33 32 76 50q39 17 94 18v58h49v-58q55 -2 92 -18q42 -18 74 -50q31 -29 51 -73t20 -90q0 -44 -20 -87.5t-51 -75.5q-32 -30 -75 -48q-36 -14 -91 -16v-66h-49v66zM372 238q49 2 75 15
q32 15 52 37q25 25 38 56.5t13 66.5q0 37 -13.5 68.5t-37.5 54.5q-20 25 -51 40q-27 13 -76 15v-353zM323 592q-49 -2 -77 -16q-32 -15 -53 -40q-26 -22 -37 -54.5t-11 -68.5q0 -35 11 -66.5t37 -57.5q22 -21 54 -35q25 -15 76 -17v355z" />
    <glyph glyph-name="uni0425" unicode="&#x425;" 
d="M113 141l195 280l-182 268h78l145 -225l145 225h76l-183 -268l195 -280h-80l-153 235l-158 -235h-78z" />
    <glyph glyph-name="uni0426" unicode="&#x426;" horiz-adv-x="630" 
d="M534 194v-152h-57v99h-359v548h59v-495h229v495h59v-495h69z" />
    <glyph glyph-name="uni0427" unicode="&#x427;" horiz-adv-x="547" 
d="M434 689v-548h-57v223q-24 -30 -64 -49q-28 -12 -68 -12q-62 0 -94.5 34t-32.5 102v250h57v-251q0 -38 19.5 -60t63.5 -22q50 0 84.5 37t34.5 78v218h57z" />
    <glyph glyph-name="uni0428" unicode="&#x428;" horiz-adv-x="660" 
d="M543 689v-548h-425v548h61v-495h123v495h60v-495h121v495h60z" />
    <glyph glyph-name="uni0429" unicode="&#x429;" 
d="M584 194v-152h-57v99h-409v548h59v-495h124v495h59v-495h122v495h59v-495h43z" />
    <glyph glyph-name="uni042A" unicode="&#x42a;" 
d="M241 198h169q49 1 75.5 29.5t26.5 71.5q0 49 -34 72.5t-84 23.5h-153v-197zM241 689v-240h133q82 0 122 -22q46 -26 61.5 -58.5t15.5 -70.5q0 -43 -21 -80q-18 -35 -52.5 -56t-84.5 -21h-234v495h-87v53h147z" />
    <glyph glyph-name="uni042B" unicode="&#x42b;" 
d="M178 198h106q49 1 74 29.5t25 71.5q0 49 -33.5 72.5t-83.5 23.5h-88v-197zM178 689v-238h72q77 0 117 -22q44 -25 59.5 -59t15.5 -72q0 -45 -17 -80q-18 -36 -52.5 -56.5t-83.5 -20.5h-169v548h58zM510 141v548h58v-548h-58z" />
    <glyph glyph-name="uni042C" unicode="&#x42c;" horiz-adv-x="630" 
d="M181 198h185q51 1 78.5 29.5t27.5 72.5q0 47 -33.5 71t-89.5 24h-168v-197zM181 689v-238h150q82 0 126 -23q46 -23 62 -57.5t16 -72.5q0 -43 -20 -80q-18 -36 -54.5 -56.5t-90.5 -20.5h-252v548h63z" />
    <glyph glyph-name="uni042D" unicode="&#x42d;" 
d="M236 441h283q-5 54 -17 86q-19 52 -62 84t-113 32q-57 0 -102 -36t-57 -94h-57q4 66 64.5 124t151.5 58q81 0 127 -28q62 -42 92.5 -109t30.5 -145q0 -80 -28 -143q-27 -60 -80.5 -99t-137.5 -39q-102 0 -161.5 65.5t-60.5 139.5h59q4 -64 51 -108t114 -44q54 0 102 30
q43 26 66 79q14 38 18 97h-283v50z" />
    <glyph glyph-name="uni042E" unicode="&#x42e;" 
d="M274 395h-112v-254h-58v548h58v-242h112q3 46 11 80q11 53 35 92q21 39 52.5 60t73.5 21t72.5 -21.5t51.5 -59.5q27 -43 39 -95.5t12 -109.5t-12 -110t-39 -95q-20 -39 -53.5 -58.5t-70.5 -19.5q-40 0 -72.5 19.5t-52.5 58.5q-23 40 -35 94q-10 38 -12 92zM563 414
q0 49 -8.5 93.5t-24.5 74.5q-17 32 -37 48.5t-47 16.5t-48.5 -15.5t-38.5 -48.5q-12 -24 -20 -72t-8 -97q0 -50 7 -95t21 -73q16 -33 39 -47.5t48 -14.5q26 0 46.5 15t36.5 47q17 31 25.5 74.5t8.5 93.5z" />
    <glyph glyph-name="uni042F" unicode="&#x42f;" horiz-adv-x="645" 
d="M471 431v202h-159q-124 0 -124 -100q0 -102 125 -102h158zM211 403q-28 12 -57.5 46t-29.5 86q0 68 46.5 111t133.5 43h230v-548h-63v240h-169q-97 0 -104 -101q-8 -97 -22 -139h-71q24 31 34 153q8 91 72 109z" />
    <glyph glyph-name="uni0430" unicode="&#x430;" horiz-adv-x="555" 
d="M389 191q-52 -61 -150 -61q-60 1 -95 31t-35 80q0 59 44 93q19 13 42 20.5t63 11.5q84 8 124 23v14q0 28 -20 47q-25 27 -75 27q-45 0 -70 -21t-32 -47h-62q4 23 24 51.5t57 48.5q34 18 86 18q74 0 118 -47q31 -33 31 -90v-87q0 -80 4 -113t14 -49h-55q-11 16 -13 50z
M382 346q-43 -21 -115 -26q-46 -4 -62 -15t-28 -24q-9 -15 -9 -43t23 -46t64 -16q56 3 94 35q33 29 33 62v73z" />
    <glyph glyph-name="uni0431" unicode="&#x431;" horiz-adv-x="555" 
d="M382 326q0 65 -27 102t-71 37q-41 0 -68 -35.5t-27 -103.5q0 -61 26 -98t63 -37q49 0 76.5 36t27.5 99zM366 647q-36 -4 -64.5 -5t-51.5 -16q-34 -23 -49.5 -57.5t-25.5 -117.5q32 61 107 67q73 5 113.5 -50t40.5 -137q0 -93 -43.5 -144t-114.5 -51q-34 0 -65.5 19
t-51.5 56q-20 31 -30 77t-10 115q0 129 37 198t101 85q22 5 51.5 5t56.5 6l55 11v-47q-20 -7 -56 -14z" />
    <glyph glyph-name="uni0432" unicode="&#x432;" horiz-adv-x="495" 
d="M174 314v-123h124q31 1 47.5 19t16.5 43q0 31 -21.5 46t-54.5 15h-112zM174 470v-112h107q33 0 49 14.5t16 39.5q0 31 -19.5 44.5t-53.5 13.5h-99zM361 343q21 -11 37 -27q19 -22 20 -63q0 -32 -13 -57q-14 -27 -40 -41t-66 -14h-181v379h143q66 0 93 -16
q26 -17 37.5 -39t11.5 -44q-1 -36 -17 -56q-9 -11 -25 -22z" />
    <glyph glyph-name="uni0433" unicode="&#x433;" horiz-adv-x="435" 
d="M118 520h251v-50h-194v-329h-57v379z" />
    <glyph glyph-name="uni0434" unicode="&#x434;" horiz-adv-x="585" 
d="M282 471q-7 -162 -61 -285h146v285h-85zM419 186h57v-111h-54v66h-251v-66h-53v111h40q74 121 78 334h183v-334z" />
    <glyph glyph-name="uni0435" unicode="&#x435;" horiz-adv-x="585" 
d="M414 257h61q-13 -55 -60 -90t-114 -35q-88 0 -137 52t-49 141q0 94 51 148t132 54q84 0 133 -55t49 -145v-10h-306q0 -61 29 -97q38 -39 96 -39q41 0 73 22q35 18 42 54zM176 362h242q0 45 -28 77q-30 39 -93 39q-46 0 -81 -28.5t-40 -87.5z" />
    <glyph glyph-name="uni0436" unicode="&#x436;" horiz-adv-x="585" 
d="M325 338q11 0 28 8q22 11 23 78q1 47 37 74q27 23 79 20v-45q-38 4 -55 -16q-15 -13 -17 -50q-1 -38 -23 -76q13 -2 24 -6q41 -21 49 -75q5 -72 20 -108h-54q-9 32 -15 97q-2 36 -19 47q-11 11 -77 10v-155h-42v156q-70 1 -80 -12q-15 -13 -18 -46q-7 -66 -15 -98h-54
q15 36 20 107q6 56 49 77q16 6 20 6q-18 38 -19 76q-1 37 -19 52q-17 15 -51 12v47q49 3 78 -21q34 -27 35 -73q2 -66 24 -77q13 -8 30 -10v183h42v-182z" />
    <glyph glyph-name="uni0437" unicode="&#x437;" horiz-adv-x="465" 
d="M115 245h57q5 -31 25 -45q21 -14 48 -14q48 1 65 20q18 16 18 44q0 25 -18 40.5t-41 21.5q-20 5 -57 3v41q30 0 48 4q27 4 43 19.5t17 38.5q2 23 -15 40t-57 19q-27 -2 -46 -14t-25 -42h-58q7 37 35 66q35 38 91 38q48 0 77 -17q53 -29 54 -90q0 -31 -19 -54
q-10 -14 -32 -27q17 -9 27 -17q32 -25 32 -70q0 -49 -35 -80q-34 -32 -104 -32q-61 0 -97 32q-27 27 -33 75z" />
    <glyph glyph-name="uni0438" unicode="&#x438;" horiz-adv-x="525" 
d="M421 141h-54v288l-200 -288h-49v379h54v-296l199 296h50v-379z" />
    <glyph glyph-name="uni0439" unicode="&#x439;" horiz-adv-x="525" 
d="M270 587q-96 0 -161 84l33 19q53 -58 128 -58t129 58l32 -19q-69 -84 -161 -84zM423 141h-56v286l-200 -286h-49v379h55v-296l199 296h51v-379z" />
    <glyph glyph-name="uni043A" unicode="&#x43a;" horiz-adv-x="487" 
d="M175 520v-179q42 -3 64 11q23 15 25 73q2 46 39 74q29 22 86 20v-44q-39 2 -59 -19q-18 -19 -17 -53q1 -50 -20 -70q-1 0 13 -2q57 -15 65 -83q4 -72 26 -107h-62q-11 32 -16 99q-5 36 -22 47q-25 16 -78 10q-24 -2 -44 -5v-151h-57v379h57z" />
    <glyph glyph-name="uni043B" unicode="&#x43b;" horiz-adv-x="510" 
d="M97 141q72 106 72 280v99h231v-379h-54v328h-123q0 -221 -71 -341z" />
    <glyph glyph-name="uni043C" unicode="&#x43c;" horiz-adv-x="600" 
d="M121 141v379h65l119 -309l121 309h66v-379h-50v295l-122 -295h-31l-119 298v-298h-49z" />
    <glyph glyph-name="uni043D" unicode="&#x43d;" horiz-adv-x="525" 
d="M118 141v379h57v-156h192v156h58v-379h-58v171h-192v-171h-57z" />
    <glyph glyph-name="uni043E" unicode="&#x43e;" horiz-adv-x="576" 
d="M296 478q-28 0 -52.5 -12.5t-40.5 -31.5q-19 -21 -27 -49t-8 -57t8 -57t27 -49q16 -18 40 -29.5t53 -11.5q27 0 51.5 11.5t40.5 30.5q18 20 27.5 47.5t9.5 57.5q0 29 -9.5 57t-27.5 49q-16 19 -40.5 31.5t-51.5 12.5zM296 527q37 0 71.5 -15t61.5 -43q23 -27 40 -64
t17 -77t-17 -76.5t-40 -65.5q-27 -26 -61.5 -40t-71.5 -14q-38 0 -72.5 14t-61.5 40q-23 29 -38.5 65.5t-15.5 76.5t14.5 77t39.5 63q29 29 62.5 44t71.5 15z" />
    <glyph glyph-name="uni043F" unicode="&#x43f;" horiz-adv-x="465" 
d="M118 141v379h242v-379h-51v328h-139v-328h-52z" />
    <glyph glyph-name="uni0440" unicode="&#x440;" horiz-adv-x="555" 
d="M169 518v-42q47 51 115 52q76 1 123.5 -52.5t47.5 -153.5q-2 -81 -42 -137q-43 -58 -124 -56q-73 1 -112 49v-142h-59v482h51zM171 324q0 -72 38 -114q29 -30 75 -30q49 0 81 35.5t32 105.5q0 77 -32 117.5t-82 40.5q-68 0 -100 -62q-13 -26 -12 -93z" />
    <glyph glyph-name="uni0441" unicode="&#x441;" horiz-adv-x="555" 
d="M406 276h61q-5 -56 -52.5 -99.5t-124.5 -43.5q-75 0 -125 50t-50 145q0 61 21.5 104t62.5 71q39 24 91 24q73 0 119 -39.5t54 -89.5h-59q-29 81 -114 81q-49 0 -82.5 -39.5t-33.5 -111.5q0 -75 35 -110.5t83 -35.5q46 0 77 27.5t37 66.5z" />
    <glyph glyph-name="uni0442" unicode="&#x442;" horiz-adv-x="525" 
d="M240 141v327h-122v52h302v-52h-122v-327h-58z" />
    <glyph glyph-name="uni0443" unicode="&#x443;" horiz-adv-x="555" 
d="M162 37v44q7 -3 33 -1q42 2 55 31l23 51l-154 358h60l121 -297l111 297h60l-151 -370q-21 -41 -30 -60q-28 -54 -84 -54q-30 0 -44 1z" />
    <glyph glyph-name="uni0444" unicode="&#x444;" horiz-adv-x="681" 
d="M371 35h-51v117q-32 -22 -75 -23q-61 0 -103 53q-21 27 -31.5 65t-10.5 80t10.5 81t30.5 68q40 51 104 51q33 -1 75 -32v131h51v-130q34 30 72 31q64 0 102 -51q22 -30 34 -68.5t12 -80.5t-12 -80t-34 -65q-42 -53 -102 -53q-37 0 -72 23v-117zM320 218v217
q-29 42 -73 39q-49 -1 -75 -40q-22 -35 -22 -108q0 -72 23 -105q26 -40 73 -40q41 0 74 37zM371 438v-222q33 -35 70 -35q46 0 73 40q27 35 27 105q0 73 -26 107q-27 41 -72 42q-40 2 -72 -37z" />
    <glyph glyph-name="uni0445" unicode="&#x445;" horiz-adv-x="555" 
d="M102 141l150 188l-140 191h67l109 -146l102 146h72l-140 -187l151 -192h-69l-114 148l-118 -148h-70z" />
    <glyph glyph-name="uni0446" unicode="&#x446;" horiz-adv-x="510" 
d="M408 191v-141h-49v91h-241v379h55v-329h138v329h55v-329h42z" />
    <glyph glyph-name="uni0447" unicode="&#x447;" horiz-adv-x="555" 
d="M434 520v-379h-55v163q-64 -58 -131 -52q-62 4 -96 33.5t-34 99.5v135h56v-133q0 -38 18.5 -60t60.5 -22q53 0 88.5 35t35.5 83v97h57z" />
    <glyph glyph-name="uni0448" unicode="&#x448;" horiz-adv-x="555" 
d="M452 520v-379h-334v379h50v-332h97v332h44v-332h92v332h51z" />
    <glyph glyph-name="uni0449" unicode="&#x449;" horiz-adv-x="585" 
d="M504 188v-138h-50v91h-336v379h51v-332h96v332h44v-332h93v332h51v-332h51z" />
    <glyph glyph-name="uni044A" unicode="&#x44a;" horiz-adv-x="555" 
d="M225 188h112q29 0 45 21t16 47q0 31 -20.5 49t-51.5 18h-101v-135zM225 520v-153h92q52 0 78 -15q33 -19 45.5 -45t12.5 -51q0 -36 -15 -61q-13 -26 -38 -40t-61 -14h-168v332h-65v47h119z" />
    <glyph glyph-name="uni044B" unicode="&#x44b;" horiz-adv-x="622" 
d="M170 188h113q29 0 45 21t16 47q0 31 -20.5 49t-50.5 18h-103v-135zM170 520v-153h94q51 0 77 -15q33 -19 44 -43.5t11 -52.5q0 -36 -13 -61q-13 -26 -38 -40t-60 -14h-167v379h52zM466 520h56v-379h-56v379z" />
    <glyph glyph-name="uni044C" unicode="&#x44c;" horiz-adv-x="487" 
d="M172 188h120q29 0 45 21.5t16 52.5q0 34 -17 50.5t-55 18.5h-109v-143zM172 520v-144h100q52 0 78 -15q33 -19 45.5 -46t12.5 -55q0 -40 -15 -65q-13 -26 -38 -40t-61 -14h-176v379h54z" />
    <glyph glyph-name="uni044D" unicode="&#x44d;" horiz-adv-x="555" 
d="M113 400q8 53 53 90.5t114 37.5q54 0 96.5 -26.5t62.5 -72.5q17 -38 17 -105q0 -84 -45 -138t-129 -54q-70 0 -117 35t-52 96h57q7 -37 37 -58.5t74 -21.5q52 0 82 34q28 26 34 90h-204v44h203q-2 30 -6 47q-9 30 -35 53q-28 26 -84 26q-39 0 -65.5 -23t-32.5 -54h-60z
" />
    <glyph glyph-name="uni044E" unicode="&#x44e;" horiz-adv-x="630" 
d="M247 316h-84v-175h-55v379h55v-158h84l10 45q11 39 32 70q41 52 111 52q67 0 110 -54q23 -29 34.5 -67.5t11.5 -79.5q0 -42 -12.5 -80t-34.5 -68q-42 -51 -109 -51q-69 0 -111 52q-21 28 -32 68q-7 26 -10 67zM505 328q0 72 -29 106q-27 42 -76 42q-51 0 -79 -42
q-24 -35 -24 -106q0 -73 24 -107q27 -40 79 -40q48 0 75 40q30 35 30 107z" />
    <glyph glyph-name="uni044F" unicode="&#x44f;" horiz-adv-x="510" 
d="M356 344v128h-104q-74 0 -74 -63q0 -65 75 -65h103zM184 239q-4 -63 -14 -98h-64q20 35 26 111q2 52 40 67q-12 9 -27 24q-20 19 -22 73q0 45 32 74t96 29h160v-378h-55v159h-105q-63 1 -67 -61z" />
    <glyph glyph-name="uni0451" unicode="&#x451;" horiz-adv-x="583" 
d="M264 641q0 -18 -14 -31t-30 -13t-29.5 13t-13.5 31q0 19 13.5 32.5t29.5 13.5t30 -13.5t14 -32.5zM429 641q0 -18 -14.5 -31t-31.5 -13q-16 0 -29.5 13t-13.5 31q0 19 13.5 32.5t29.5 13.5q17 0 31.5 -13.5t14.5 -32.5zM414 256h63q-14 -55 -61.5 -89.5t-114.5 -34.5
q-88 0 -137 51t-49 140q0 94 51 147.5t132 53.5q84 0 133.5 -54t49.5 -145v-10h-307q0 -59 29 -95q38 -39 96 -39q41 0 73 22q35 20 42 53zM177 360h241q0 45 -28 78q-30 37 -93 37q-46 0 -80.5 -30t-39.5 -85z" />
    <glyph glyph-name="endash" unicode="&#x2013;" horiz-adv-x="290" 
d="M33 385v53h232v-53h-232z" />
    <glyph glyph-name="emdash" unicode="&#x2014;" 
d="M660 438v-53h-602v53h602z" />
    <glyph glyph-name="uni2015" unicode="&#x2015;" 
d="M667 436v-49h-598v49h598z" />
    <glyph glyph-name="uni2016" unicode="&#x2016;" horiz-adv-x="681" 
d="M404 37v710h42v-710h-42zM254 37v710h42v-710h-42z" />
    <glyph glyph-name="quoteleft" unicode="&#x2018;" horiz-adv-x="350" 
d="M239 630q-47 10 -54 53q16 54 47 97q19 26 45 33q23 4 13 -15q-40 -77 -51 -168z" />
    <glyph glyph-name="quoteright" unicode="&#x2019;" horiz-adv-x="350" 
d="M103 815q47 -10 54 -53q-16 -54 -47 -97q-19 -26 -45 -33q-23 -5 -13 15q40 77 51 168z" />
    <glyph glyph-name="quotereversed" unicode="&#x201b;" horiz-adv-x="350" 
d="M238 814q11 -91 51 -168q8 -18 -13 -15q-26 7 -45 33q-31 43 -47 97q7 43 54 53z" />
    <glyph glyph-name="quotedblleft" unicode="&#x201c;" horiz-adv-x="385" 
d="M133 630q-47 10 -54 53q16 54 47 97q19 26 45 33q23 4 13 -15q-40 -77 -51 -168zM280 630q-47 10 -54 53q16 54 47 97q19 26 45 33q23 4 13 -15q-40 -77 -51 -168z" />
    <glyph glyph-name="quotedblright" unicode="&#x201d;" horiz-adv-x="385" 
d="M103 815q47 -10 54 -53q-16 -54 -47 -97q-19 -26 -45 -33q-23 -5 -13 15q40 77 51 168zM247 815q47 -10 54 -53q-16 -54 -47 -97q-19 -26 -45 -33q-23 -5 -13 15q40 77 51 168z" />
    <glyph glyph-name="uni201F" unicode="&#x201f;" horiz-adv-x="380" 
d="M279 814q11 -91 51 -168q8 -18 -13 -15q-26 7 -45 33q-31 43 -47 97q7 43 54 53zM135 814q11 -91 51 -168q8 -18 -13 -15q-26 7 -45 33q-31 43 -47 97q7 43 54 53z" />
    <glyph glyph-name="dagger" unicode="&#x2020;" 
d="M354 728q22 0 27.5 -27t-0.5 -59q-11 -45 -11 -68q27 0 64 13q23 7 50 2t27 -31q0 -23 -27 -29.5t-51 2.5q-36 13 -63 13q0 -53 14 -69q13 -16 16.5 -19.5t-14.5 -34.5q-19 -31 -17.5 -159t-0.5 -168q-3 -34 -14 -34q-13 0 -16 34q-2 40 -0.5 168t-14.5 157
q-20 32 -17 36t17 20t14 69q-31 0 -63 -13q-24 -9 -50.5 -2.5t-27.5 29.5q0 26 27 31t51 -2q37 -13 63 -13q0 23 -11 68q-6 32 0 59t28 27z" />
    <glyph glyph-name="daggerdbl" unicode="&#x2021;" 
d="M370 449q0 -41 13 -60q11 -15 14.5 -18t-13.5 -35q-17 -31 -17 -118v-129q0 -31 -13 -31t-15 35q-1 41 -1 129t-14 114q-18 32 -15 35t15 18q13 20 13 60v4h-1q-30 -1 -62 -11q-24 -9 -50.5 -3.5t-27.5 28.5q0 27 27 31t52 -3q36 -11 58 -11h4v67h-1q-30 -1 -62 -12
q-24 -9 -50.5 -3.5t-27.5 28.5q0 27 27 31t52 -3q36 -12 58 -12h4q-1 19 -11 61q-6 33 0 60t28 27t27.5 -27t-0.5 -60q-10 -42 -11 -61h3q24 0 61 12q23 8 50 3.5t27 -31.5q0 -23 -27 -28.5t-51 3.5q-36 12 -60 12h-3v-67h-1q28 -1 65 11q23 8 50 3.5t27 -31.5
q0 -23 -27 -28.5t-51 3.5q-36 12 -64 11h1v-4z" />
    <glyph glyph-name="bullet" unicode="&#x2022;" 
d="M438 398q0 -34 -25 -59t-58 -25t-58 25t-25 59t25 59t58 25t58 -25t25 -59z" />
    <glyph glyph-name="twodotenleader" unicode="&#x2025;" 
d="M223 474q32 -22 8 -61q-27 -40 -63 -40q-9 0 -9 15q0 43 44 84q10 8 20 2zM560 474q32 -22 8 -61q-27 -40 -63 -40q-9 0 -9 15q0 43 44 84q10 8 20 2z" />
    <glyph glyph-name="ellipsis" unicode="&#x2026;" 
d="M153 474q32 -22 8 -61q-27 -40 -63 -40q-9 0 -9 15q0 43 44 84q10 8 20 2zM390 474q32 -22 8 -61q-27 -40 -63 -40q-9 0 -9 15q0 43 44 84q10 8 20 2zM629 474q32 -22 8 -61q-27 -40 -63 -40q-9 0 -9 15q0 43 44 84q10 8 20 2z" />
    <glyph glyph-name="perthousand" unicode="&#x2030;" 
d="M93 139q4 45 24 89q95 204 304 434q27 -16 47 -36q-211 -220 -353 -482q-25 -41 -22 -5zM171 608q15 -1 25 -8q42 -40 32 -86q-13 -52 -77 -88q-33 -18 -70 -5q-29 19 -35 48q-9 55 53 120q22 22 42 36q22 -4 30 -17zM162 584q-11 -4 -23 -14q-50 -52 -50 -104
q0 -16 10 -17q36 2 68 56q31 53 -5 79zM384 364q15 -1 27 -9q43 -38 31 -89q-16 -58 -79 -95q-39 -23 -75 -5q-29 20 -35 50q-12 62 53 128q26 26 47 40q22 -7 31 -20zM374 342q-11 -4 -24 -15q-56 -58 -56 -113q0 -20 11 -19q49 4 77 57q32 62 -8 90zM604 364q15 -1 27 -9
q43 -38 31 -89q-16 -58 -79 -95q-39 -23 -75 -5q-29 20 -35 50q-12 62 53 128q26 26 47 40q22 -7 31 -20zM594 342q-11 -4 -24 -15q-56 -58 -56 -113q0 -20 11 -19q49 4 77 57q32 62 -8 90z" />
    <glyph glyph-name="minute" unicode="&#x2032;" horiz-adv-x="350" 
d="M204 730q26 -23 20 -60q-56 -65 -114 -102q-19 -13 -45 -14q-23 -1 -6 16q79 76 145 160z" />
    <glyph glyph-name="second" unicode="&#x2033;" horiz-adv-x="420" 
d="M204 730q26 -23 20 -60q-56 -65 -114 -102q-19 -13 -45 -14q-23 -1 -6 16q79 76 145 160zM344 730q26 -23 20 -60q-56 -65 -114 -102q-19 -13 -45 -14q-23 -1 -6 16q79 76 145 160z" />
    <glyph glyph-name="uni2034" unicode="&#x2034;" horiz-adv-x="543" 
d="M204 730q26 -23 20 -60q-56 -65 -114 -102q-19 -13 -45 -14q-21 1 -6 16q79 76 145 160zM344 730q25 -21 23 -57q-53 -68 -117 -105q-19 -12 -45 -14q-21 1 -6 16q79 72 145 160zM485 730q25 -21 23 -57q-53 -68 -117 -105q-19 -12 -45 -14q-21 1 -6 16q79 72 145 160z
" />
    <glyph glyph-name="uni2035" unicode="&#x2035;" horiz-adv-x="350" 
d="M103 712q90 -56 189 -98q19 -9 0 -17q-25 -8 -47 -3q-66 15 -140 57q-18 31 -2 61z" />
    <glyph glyph-name="uni2036" unicode="&#x2036;" horiz-adv-x="350" 
d="M103 712q90 -56 189 -98q19 -9 0 -17q-25 -8 -47 -3q-66 15 -140 57q-18 31 -2 61zM102 608q90 -56 189 -98q19 -9 0 -17q-25 -8 -47 -3q-66 15 -140 57q-18 31 -2 61z" />
    <glyph glyph-name="guilsinglleft" unicode="&#x2039;" 
d="M633 736v-36l-484 -301l484 -300v-38l-552 338z" />
    <glyph glyph-name="guilsinglright" unicode="&#x203a;" 
d="M76 736l552 -337l-552 -338v38l484 300l-484 301v36z" />
    <glyph glyph-name="uni203B" unicode="&#x203b;" 
d="M364 474q91 106 155 164q32 -2 48 -31q-86 -79 -184 -194q67 -94 152 -189q11 -13 -9 -13q-23 0 -54 29q-67 64 -122 133q-68 -83 -141 -183q-12 -15 -12 7q0 28 15 55q49 89 105 164q-52 73 -93 151q3 45 30 57q42 -82 97 -165q7 8 13 15zM183 472q32 -22 8 -61
q-27 -40 -63 -40q-9 0 -9 15q0 43 44 84q10 8 20 2zM590 472q32 -22 8 -61q-27 -40 -63 -40q-9 0 -9 15q0 43 44 84q10 8 20 2zM403 704q32 -22 8 -61q-27 -40 -63 -40q-9 0 -9 15q0 43 44 84q10 8 20 2zM373 214q32 -22 8 -61q-27 -40 -63 -40q-9 0 -9 15q0 43 44 84
q10 8 20 2z" />
    <glyph glyph-name="exclamdbl" unicode="&#x203c;" 
d="M302 672q31 -4 58 -19q-61 -180 -85 -345q-6 -36 -18 -12q-13 24 -11 68q8 149 56 308zM441 672q31 -4 58 -19q-61 -180 -85 -345q-6 -36 -18 -12q-13 24 -11 68q8 149 56 308zM280 224q32 -22 8 -61q-28 -42 -63 -40q-10 0 -9 15q0 43 44 84q11 6 20 2zM420 224
q32 -22 8 -61q-28 -42 -63 -40q-10 0 -9 15q0 43 44 84q11 6 20 2z" />
    <glyph glyph-name="uni203E" unicode="&#x203e;" 
d="M646 818h-585v36h585v-36z" />
    <glyph glyph-name="uni2042" unicode="&#x2042;" 
d="M337 597l-10 99h54l-11 -99l80 59l27 -46l-93 -40l93 -40l-27 -46l-80 59l11 -99h-54l10 99l-79 -59l-27 46l93 40l-93 40l27 46zM512 280l-11 99h55l-10 -99l79 60l27 -47l-93 -40l93 -39l-27 -46l-79 58l10 -99h-55l11 99l-79 -58l-27 46l93 39l-93 40l27 47zM162 280
l-11 99h55l-11 -99l80 60l27 -47l-93 -40l93 -39l-27 -46l-80 58l11 -99h-55l11 99l-79 -58l-27 46l93 39l-93 40l27 47z" />
    <glyph glyph-name="uni2047" unicode="&#x2047;" 
d="M495 485q70 92 76 158q-77 9 -160 -86q-28 22 -36 49q99 94 204 77q32 -20 41 -62q-4 -59 -87 -165q-46 -58 -54 -153q-3 -27 -16 -11q-7 9 -10 24q-13 96 42 169zM237 484q70 92 76 158q-77 9 -160 -86q-28 22 -36 49q99 94 204 77q32 -20 41 -62q-4 -59 -87 -165
q-46 -58 -54 -153q-3 -27 -16 -11q-7 9 -10 24q-13 96 42 169zM235 224q32 -22 8 -61q-28 -42 -63 -40q-10 0 -9 15q0 43 44 84q11 6 20 2zM490 224q32 -22 8 -61q-28 -42 -63 -40q-10 0 -9 15q0 43 44 84q11 6 20 2z" />
    <glyph glyph-name="uni2049" unicode="&#x2049;" 
d="M272 672q31 -4 58 -19q-61 -180 -85 -345q-6 -36 -18 -12q-13 24 -11 68q8 149 56 308zM465 485q70 92 76 158q-77 9 -160 -86q-28 22 -36 49q99 94 204 77q32 -20 41 -62q-4 -59 -87 -165q-46 -58 -54 -153q-3 -27 -16 -11q-7 9 -10 24q-13 96 42 169zM250 224
q32 -22 8 -61q-28 -42 -63 -40q-10 0 -9 15q0 43 44 84q11 6 20 2zM465 224q32 -22 8 -61q-28 -42 -63 -40q-10 0 -9 15q0 43 44 84q11 6 20 2z" />
    <glyph glyph-name="uni204C" unicode="&#x204c;" horiz-adv-x="351" 
d="M323 701v-637h-39v637h39zM257 64q-16 6 -29 11q-56 27 -99 71q-42 46 -67 106.5t-25 130.5q0 68 25 128.5t67 106.5q43 44 99 72q12 4 29 11v-637z" />
    <glyph glyph-name="uni204D" unicode="&#x204d;" horiz-adv-x="351" 
d="M45 700h39v-637h-39v637zM111 63v637q17 -7 29 -11q56 -28 99 -72q42 -46 67 -106.5t25 -128.5q0 -70 -25 -130.5t-67 -106.5q-43 -44 -99 -71q-13 -5 -29 -11z" />
    <glyph glyph-name="uni204E" unicode="&#x204e;" 
d="M328 446l-13 119h77l-12 -119l95 72l39 -66l-112 -48l111 -48l-38 -65l-95 70l12 -119h-77l13 119l-95 -70l-38 65l111 48l-112 48l39 66z" />
    <glyph glyph-name="uni2051" unicode="&#x2051;" horiz-adv-x="213" 
d="M93 569l-5 64h44l-6 -64l51 39l24 -41l-60 -26l60 -26l-24 -40l-51 38l6 -64h-44l5 64l-50 -38l-24 40l60 26l-60 26l24 41zM93 289l-5 64h44l-6 -64l51 38l24 -40l-60 -26l60 -26l-24 -40l-51 38l6 -64h-44l5 64l-50 -38l-24 40l60 26l-60 26l24 40z" />
    <glyph glyph-name="uni2074" unicode="&#x2074;" horiz-adv-x="350" 
d="M217 568q60 7 78 2q26 -9 -5 -15q-42 -9 -80 -18q-14 -71 -21 -144q-4 -31 -16 -3q-6 15 -5 41q2 48 9 98q-44 -12 -96 -27q-19 7 -31 25q32 98 105 190q24 1 43 -16q-75 -86 -108 -156q49 11 92 18q13 84 39 174q27 -2 39 -23q-26 -72 -43 -146z" />
    <glyph glyph-name="uni207A" unicode="&#x207a;" horiz-adv-x="340" 
d="M155 594v99h-100v38h100v99h42v-99h99v-38h-99v-99h-42z" />
    <glyph glyph-name="uni207B" unicode="&#x207b;" horiz-adv-x="340" 
d="M72 693v38h205v-38h-205z" />
    <glyph glyph-name="uni207C" unicode="&#x207c;" horiz-adv-x="340" 
d="M65 739v40h218v-40h-218zM65 646v41h218v-41h-218z" />
    <glyph glyph-name="uni207D" unicode="&#x207d;" horiz-adv-x="340" 
d="M105 680q0 84 64 142h37q-55 -64 -55 -142t55 -142h-37q-64 58 -64 142z" />
    <glyph glyph-name="uni207E" unicode="&#x207e;" horiz-adv-x="340" 
d="M205 680q0 -84 -64 -142h-37q55 64 55 142t-56 142h38q63 -58 64 -142z" />
    <glyph glyph-name="uni207F" unicode="&#x207f;" horiz-adv-x="350" 
d="M279 500q-10 -25 -28 -40q-19 -15 -12 11q24 102 24 188q-62 -12 -133 -81q-14 -57 -23 -114q-4 -16 -13 -2q-14 23 -11 66q6 79 30 183q28 -3 49 -21q-6 -18 -11 -35q48 33 99 46q31 -7 45 -23q16 -16 13 -46q-6 -74 -29 -132z" />
    <glyph glyph-name="uni2081" unicode="&#x2081;" horiz-adv-x="350" 
d="M139 126q9 51 22 90h-12q-15 0 -5 20q21 31 53 35q17 -12 18 -35q-17 -34 -36 -97q-12 -45 -26 -127q-8 -39 -19 -12q-4 12 -5 31q3 51 10 95z" />
    <glyph glyph-name="uni2082" unicode="&#x2082;" horiz-adv-x="350" 
d="M222 45q-75 -4 -158 -43q-9 13 -15 38q144 116 159 193q1 6 -4 6q-40 -3 -81 -54q-29 3 -51 19q64 74 138 65q31 -9 37 -34q-14 -89 -116 -169q67 14 136 7q31 -3 2 -18q-22 -10 -47 -10z" />
    <glyph glyph-name="uni2083" unicode="&#x2083;" horiz-adv-x="350" 
d="M185 153q30 6 62 -11q20 -14 24 -40q-12 -24 -29 -44t-38 -38q-40 -37 -89 -61q-18 -9 -38 -7q-37 5 -13 17q69 33 110 71q43 39 53 77q-47 9 -133 -25q-12 17 -8 35q22 5 38 16q69 55 85 115q-30 5 -85 -48q-31 7 -38 32q81 63 138 48q25 -15 31 -41q-18 -54 -70 -96z
" />
    <glyph glyph-name="uni2084" unicode="&#x2084;" horiz-adv-x="350" 
d="M217 129q60 7 78 2q25 -9 -5 -15q-41 -9 -79 -18q-14 -71 -21 -144q-3 -32 -18 -3q-5 11 -4 41q1 48 7 97q-43 -11 -94 -26q-19 7 -31 25q32 98 105 190q24 1 43 -16q-75 -86 -108 -156q48 11 90 17q13 85 41 175q27 -2 39 -23q-26 -72 -43 -146z" />
    <glyph glyph-name="uni20A9" unicode="&#x20a9;" 
d="M589 380q-15 1 -31 1q-33 -95 -58 -188q-40 -30 -83 -21q-26 107 -39 202q-41 -4 -83 -10q-40 -97 -75 -210q-37 -23 -73 -20q-25 93 -39 192q-21 -5 -42 -11q-22 22 -28 52q32 6 63 11q-13 123 -10 254q31 7 61 -17q-4 -124 2 -228q50 7 101 14q41 99 88 191
q36 5 61 -12q8 -85 19 -164q53 3 98 1q39 97 87 182q18 30 41 40q17 7 10 -10q-50 -109 -89 -215q45 -4 80 -14q41 -11 2 -24q-28 -7 -63 4zM507 382q-39 0 -79 -3q11 -84 25 -160q24 85 54 163zM236 354q-39 -8 -79 -17q6 -80 19 -147q28 84 60 164zM313 407q30 3 60 5
q-7 51 -9 99q-26 -49 -51 -104z" />
    <glyph glyph-name="Euro" unicode="&#x20ac;" 
d="M572 268q21 11 14 -13q-8 -27 -46 -55q-71 -53 -161 -59q-54 -4 -97 10q-53 28 -71 80q-8 24 -10 49q-50 -7 -99 -19q-16 25 -14 57q61 7 114 11q0 8 2 16q5 31 13 59q-37 -7 -74 -16q-16 25 -14 57q56 7 108 11q65 145 237 196q47 -2 70 -32q-164 -39 -235 -161
q36 1 70 0q77 -3 124 -22q11 -4 -5 -13q-23 -11 -53 -5q-80 3 -159 -5q-8 -20 -14 -42q-6 -21 -9 -40q40 1 75 0q77 -2 124 -22q12 -5 -5 -13q-23 -11 -53 -5q-73 2 -146 -5q-2 -51 17 -89q86 -10 173 15q73 21 124 55z" />
    <glyph glyph-name="uni2103" unicode="&#x2103;" 
d="M184 714q17 5 30 1q42 -25 31 -77q-12 -51 -63 -75q-40 -19 -75 -5q-27 15 -35 48q-7 57 29 100q23 28 59 35q20 -9 24 -27zM173 695q-22 7 -38 -12q-23 -28 -22 -67q3 -27 24 -29q32 -1 57 44q21 48 -21 64zM592 288q23 15 16 -7q-13 -34 -48 -60q-80 -63 -171 -80
q-53 -8 -97 10q-53 28 -71 80t-7 114q49 238 280 307q47 -2 70 -32q-217 -52 -282 -248q-29 -108 3 -174q89 -17 173 17q77 31 134 73z" />
    <glyph glyph-name="uni2109" unicode="&#x2109;" 
d="M184 724q17 5 30 1q42 -25 31 -77q-12 -51 -63 -75q-40 -19 -75 -5q-27 15 -35 48q-7 57 29 100q23 28 59 35q20 -9 24 -27zM173 705q-22 7 -38 -12q-23 -28 -22 -67q3 -27 24 -29q32 -1 57 44q21 48 -21 64zM273 348q-21 25 -21 58q23 6 45 11q17 95 47 187
q-30 -9 -60 -20q-23 25 -16 57q149 31 294 13q26 -6 41 -22q8 -10 -5 -9q-96 9 -184 -5q-34 -92 -58 -188q134 23 235 6q16 -4 0 -12q-26 -14 -47 -11q-105 -7 -201 -38q-25 -114 -38 -232q-7 -38 -22 -3q-10 31 -8 82q3 67 12 132z" />
    <glyph glyph-name="uni2113" unicode="&#x2113;" 
d="M315 172q-31 -23 -69 -44q-21 19 -27 47q45 20 73 41q-42 102 -14 271q16 75 48 143q40 80 108 71q47 -5 61 -81q25 -124 -39 -275q-36 -84 -100 -140q24 -41 60 -51q40 -9 77 26q26 22 28 4q1 -15 -8 -29q-42 -57 -107 -47q-55 9 -91 64zM335 251q51 49 83 131
q39 101 34 207q-3 61 -30 66q-24 3 -50 -49q-32 -64 -45 -149q-19 -120 8 -206z" />
    <glyph glyph-name="uni2116" unicode="&#x2116;" 
d="M337 165q-19 -20 -50 -27q-64 76 -114 183q-37 78 -60 159q-42 -165 -58 -337q-5 -41 -21 -3q-10 31 -9 82q13 218 71 417q37 -1 55 -29l-10 -30q18 -107 68 -226q36 -85 85 -162q9 162 51 313q18 64 43 91q27 26 20 -4q-48 -184 -71 -427zM555 383q19 -1 35 -9
q53 -44 35 -99q-22 -65 -103 -105q-48 -22 -89 -6q-37 17 -45 56q-11 64 49 128q44 45 81 57q24 -7 37 -22zM542 363q-36 -6 -70 -43q-48 -51 -43 -101q3 -23 20 -23q69 1 112 62q46 68 -19 105zM676 246q31 -20 8 -57q-24 -38 -59 -38q-9 0 -9 14q0 40 41 79q10 7 19 2z
" />
    <glyph glyph-name="uni2121" unicode="&#x2121;" 
d="M413 612q-61 6 -132 -1q-72 -229 -98 -489q-6 -38 -22 -3q-11 31 -8 82q10 210 64 402q-82 -12 -176 -39q-17 28 -17 62q134 25 268 26q110 1 165 -20q18 -6 7 -13q-27 -14 -51 -7zM695 627q-78 -239 -101 -483q-5 -38 -21 -3q-10 28 -8 79q9 228 76 437q35 -6 54 -30z
M312 306q102 1 165 54q0 61 -88 33q-54 -24 -77 -87zM324 139q-37 9 -58 39q-14 32 -12 67q0 9 1 17q-5 3 -11 6q0 27 8 46l12 -4q11 36 34 66q40 54 99 69q113 23 119 -53q0 -45 -26 -71q-64 -59 -188 -65q-4 -37 5 -73q59 -4 103 13q53 22 79 53q11 13 13 -5
q-3 -21 -17 -38q-60 -70 -161 -67z" />
    <glyph glyph-name="trademark" unicode="&#x2122;" 
d="M319 640q-29 2 -62 0q-47 -122 -59 -258q-3 -36 -22 -3q-9 19 -8 51q6 108 34 203q-46 -7 -99 -22q-12 20 -12 47q82 15 159 17q47 -1 100 -16q20 -6 5 -13q-18 -10 -36 -6zM388 662q30 6 49 -10q-10 -14 -19 -29q5 -63 14 -113q7 -36 16 -68q17 55 34 92q29 64 58 108
q29 3 46 -10q1 -68 8 -145q4 -49 17 -97q5 -18 -12 -9q-12 7 -20 23q-14 35 -21 83q-7 47 -10 93q-37 -59 -77 -180q-17 -12 -41 -10q-20 37 -35 113q-5 28 -10 57q-35 -76 -59 -171q-9 -31 -20 -1q-5 15 -2 37q7 43 21 85q29 87 63 152z" />
    <glyph glyph-name="Omega" unicode="&#x2126;" 
d="M364 669q-69 0 -123 -53t-54 -148q0 -78 43 -128t91 -67q13 -5 13 -27v-108h-137v43h81v63q-61 30 -104 88t-43 138q0 105 65.5 174.5t167.5 69.5q103 0 168.5 -69.5t65.5 -174.5q0 -80 -46 -140t-101 -86v-63h82v-43h-138v108q0 22 13 27q48 17 91 67t43 128
q0 96 -54.5 148.5t-123.5 52.5z" />
    <glyph glyph-name="uni212B" unicode="&#x212b;" 
d="M373 362q39 3 76 2q-22 76 -52 141q-64 -70 -114 -156q50 9 90 13zM459 330q-102 -6 -211 -43q-43 -84 -75 -182q-6 -16 -12 1q-7 25 1 65q12 88 67 188q68 127 157 217q50 5 69 -12q-28 -26 -53 -54q27 11 54 1q26 -64 49 -160q22 -93 18 -191q0 -25 -11 -41
q-9 -13 -12 2q-19 120 -40 203q-1 3 -1 6zM434 767q17 5 30 1q42 -25 31 -77q-12 -51 -63 -75q-40 -19 -75 -5q-27 15 -35 48q-7 57 29 100q23 28 59 35q20 -9 24 -27zM423 748q-22 7 -38 -12q-23 -28 -22 -67q3 -27 24 -29q32 -1 57 44q21 48 -21 64z" />
    <glyph glyph-name="onethird" unicode="&#x2153;" 
d="M521 610q26 -12 44 -34q-203 -203 -369 -462q-13 6 -10 28q109 227 289 420zM544 207q47 7 82 -11q24 -17 27 -46q-26 -53 -77 -96q-50 -43 -109 -71q-19 -8 -42 -8q-35 4 -14 15q81 38 132 87q43 41 64 92q-60 13 -159 -29q-17 16 -10 35q26 12 43 22q85 69 104 139
q-39 7 -106 -54q-31 5 -42 32q96 73 160 55q30 -13 35 -45q-25 -68 -88 -117zM165 502q10 60 25 106h-12q-19 0 -6 21q22 35 57 39q18 -13 20 -38q-20 -35 -41 -112q-14 -53 -30 -147q-8 -45 -19 -12q-5 12 -6 34q3 58 12 109z" />
    <glyph glyph-name="twothirds" unicode="&#x2154;" 
d="M540 208q46 6 82 -12q24 -17 27 -46q-27 -52 -77 -95t-109 -71q-20 -8 -42 -8q-36 3 -15 15q82 38 133 86q43 42 63 92q-59 14 -158 -29q-17 17 -10 36q25 11 43 21q85 69 104 140q-40 7 -106 -55q-31 6 -42 32q96 73 160 56q29 -14 35 -44q-25 -70 -88 -118zM276 410
q-96 -12 -188 -50q-11 15 -17 41q172 141 189 229q2 10 -7 12q-51 -3 -99 -64q-33 4 -54 19q72 85 160 74q30 -8 42 -37q-15 -102 -141 -205q79 20 165 10q25 -3 1 -18q-21 -12 -51 -11zM544 610q26 -11 43 -33q-203 -204 -368 -463q-13 7 -11 28q110 228 290 421
q23 24 46 47z" />
    <glyph glyph-name="oneeighth" unicode="&#x215b;" 
d="M468 197q-18 14 -30 31q-18 24 -8 72q14 60 71 83q43 13 78 -3q12 -9 19 -22q2 1 3 2q23 15 40 15q25 -1 8 -16q-13 -11 -28 -27q-48 -47 -102 -129q31 -15 57 -21q38 -12 41 -49q0 -18 -6 -32q-16 -41 -62 -76t-98 -30q-44 16 -55 57q23 67 72 145zM577 339
q-46 10 -79 -16q-27 -24 -27 -61q1 -13 6 -22t10 -13q46 71 90 112zM503 177q-39 -63 -54 -126q-2 -15 2 -17q34 -2 70 28.5t49 63.5q6 23 -2 26q-35 12 -65 25zM522 611q26 -12 44 -34q-203 -203 -369 -463q-13 7 -10 28q109 228 289 421zM175 502q10 60 25 106h-12
q-19 0 -6 21q22 35 57 39q18 -13 20 -38q-20 -35 -41 -112q-14 -53 -30 -147q-8 -45 -19 -12q-5 12 -6 34q3 58 12 109z" />
    <glyph glyph-name="threeeighths" unicode="&#x215c;" 
d="M225 523q47 6 82 -12q24 -17 27 -46q-26 -52 -76 -95q-51 -42 -109 -70q-20 -8 -43 -8q-35 3 -14 15q82 38 132 86q43 41 64 91q-59 14 -158 -29q-18 17 -10 36q25 11 42 21q86 70 104 141q-39 7 -106 -55q-30 5 -41 31q95 74 159 57q30 -14 35 -45q-25 -69 -88 -118z
M545 612q26 -12 43 -33q-204 -204 -368 -463q-14 6 -11 28q110 228 290 420q22 25 46 48zM463 198q-18 14 -30 31q-18 24 -8 72q14 60 71 83q43 13 78 -3q12 -9 19 -22q2 1 3 2q23 15 40 15q25 -1 8 -16q-13 -11 -28 -27q-48 -47 -102 -129q31 -15 57 -21q38 -12 41 -49
q0 -18 -6 -32q-16 -41 -62 -76t-98 -30q-44 16 -55 57q23 67 72 145zM572 340q-46 10 -79 -16q-27 -24 -27 -61q1 -13 6 -22t10 -13q46 71 90 112zM498 178q-39 -63 -54 -126q-2 -15 2 -17q34 -2 70 28.5t49 63.5q6 23 -2 26q-35 12 -65 25z" />
    <glyph glyph-name="fiveeighths" unicode="&#x215d;" 
d="M108 293q-29 3 -4 16q65 36 107 78q45 47 55 99q-59 -10 -134 -47q-26 6 -33 33q11 57 29 108q-17 -8 -36 -17q-13 23 -10 46q36 14 68 24q15 32 33 62q31 5 52 -14q-11 -16 -21 -31q79 17 138 10q22 -3 3 -18q-16 -12 -39 -11q-47 -3 -106 -19q-11 -3 -23 -8
q-33 -60 -43 -115q69 32 135 32q27 -18 30 -49q-12 -60 -66 -108q-51 -47 -105 -67q-14 -6 -30 -4zM545 612q26 -12 43 -33q-203 -204 -368 -463q-14 6 -11 28q110 228 290 420q22 25 46 48zM463 198q-18 14 -30 31q-18 24 -8 72q14 60 71 83q43 13 78 -3q12 -9 19 -22
q2 1 3 2q23 15 40 15q25 -1 8 -16q-13 -11 -28 -27q-48 -47 -102 -129q31 -15 57 -21q38 -12 41 -49q0 -18 -6 -32q-16 -41 -62 -76t-98 -30q-44 16 -55 57q23 67 72 145zM572 340q-46 10 -79 -16q-27 -24 -27 -61q1 -13 6 -22t10 -13q46 71 90 112zM498 178
q-39 -63 -54 -126q-2 -15 2 -17q34 -2 70 28.5t49 63.5q6 23 -2 26q-35 12 -65 25z" />
    <glyph glyph-name="seveneighths" unicode="&#x215e;" 
d="M547 612q26 -12 43 -34q-202 -203 -368 -462q-13 6 -11 28q110 227 290 420zM197 642q54 23 101 26q27 -17 40 -47q-13 -77 -36 -142q-28 -87 -70 -163q-7 -11 -20 -19q-27 -17 -14 16q30 77 50 141q27 91 39 177q-49 -8 -118 -53q-13 -40 -21 -87q-6 -33 -21 0
q-7 19 -5 38q4 93 48 165q25 -7 43 -24q-9 -13 -16 -28zM465 198q-18 14 -30 31q-18 24 -8 72q14 60 71 83q43 13 78 -3q12 -9 19 -22q2 1 3 2q23 15 40 15q25 -1 8 -16q-13 -11 -28 -27q-48 -47 -102 -129q31 -15 57 -21q38 -12 41 -49q0 -18 -6 -32q-16 -41 -62 -76
t-98 -30q-44 16 -55 57q23 67 72 145zM574 340q-46 10 -79 -16q-27 -24 -27 -61q1 -13 6 -22t10 -13q46 71 90 112zM500 178q-39 -63 -54 -126q-2 -15 2 -17q34 -2 70 28.5t49 63.5q6 23 -2 26q-35 12 -65 25z" />
    <glyph glyph-name="uni2160" unicode="&#x2160;" 
d="M528 636q-52 1 -103 -6q-68 -207 -93 -425q47 6 100 6q33 0 52 -12q18 -12 -4 -14q-149 -13 -284 -76q-19 28 -13 58q53 22 115 33q-2 93 16 209q21 135 44 209q-55 -14 -107 -36q-18 31 -9 58q122 34 239 23q35 -4 49 -18q8 -9 -2 -9z" />
    <glyph glyph-name="uni2161" unicode="&#x2161;" 
d="M388 636q-38 0 -73 -6q-69 -212 -94 -435q29 5 61 6q33 1 52 -12q14 -12 -4 -14q-115 -15 -194 -66q-19 28 -13 58q31 14 65 22q-4 97 16 220q20 126 42 201q-29 -11 -55 -28q-18 31 -9 58q89 28 159 23q36 -2 49 -18q7 -9 -2 -9zM620 636q-38 0 -73 -6
q-69 -212 -94 -435q29 5 61 6q33 1 52 -12q12 -12 -4 -14q-115 -15 -194 -66q-19 28 -13 58q31 14 65 22q-4 97 16 220q20 126 42 201q-29 -11 -55 -28q-18 31 -9 58q89 28 159 23q34 -3 49 -18q7 -9 -2 -9z" />
    <glyph glyph-name="uni2162" unicode="&#x2162;" 
d="M277 636q-38 0 -72 -8q-69 -212 -95 -435q32 7 66 8q30 1 47 -12q12 -12 -4 -14q-102 -15 -173 -66q-17 28 -12 58q21 10 44 18q0 97 16 224q19 115 39 193q-16 -9 -32 -20q-16 31 -8 58q80 28 142 23q28 -2 44 -18q6 -9 -2 -9zM479 636q-38 0 -72 -8q-69 -212 -95 -435
q32 7 66 8q30 1 47 -12q12 -11 -4 -14q-102 -15 -173 -66q-17 28 -12 58q21 10 44 18q0 97 16 224q19 115 39 193q-16 -9 -32 -20q-16 31 -8 58q80 28 142 23q28 -2 44 -18q6 -9 -2 -9zM683 636q-38 0 -72 -8q-69 -212 -95 -435q32 7 66 8q30 1 47 -12q12 -12 -4 -14
q-102 -15 -173 -66q-17 28 -12 58q21 10 44 18q0 97 16 224q19 115 39 193q-16 -9 -32 -20q-16 31 -8 58q80 28 142 23q28 -2 44 -18q6 -9 -2 -9z" />
    <glyph glyph-name="uni2163" unicode="&#x2163;" 
d="M434 195q91 241 195 405q18 27 43 34q21 6 15 -6q-120 -223 -205 -470q-30 -24 -76 -19q-92 214 -136 461q35 6 67 -10q26 -214 97 -395zM308 636q-38 0 -73 -6q-69 -212 -94 -435q29 5 61 6q33 1 52 -12q14 -12 -4 -14q-115 -15 -194 -66q-19 28 -13 58q31 14 65 22
q-4 97 16 220q20 126 42 201q-29 -11 -55 -28q-18 31 -9 58q89 28 159 23q36 -2 49 -18q7 -9 -2 -9z" />
    <glyph glyph-name="uni2164" unicode="&#x2164;" 
d="M354 196q91 241 195 405q18 27 43 34q21 6 15 -6q-120 -223 -205 -470q-30 -24 -76 -19q-129 226 -181 492q35 4 67 -12q43 -222 142 -424z" />
    <glyph glyph-name="uni2165" unicode="&#x2165;" 
d="M224 196q91 241 195 405q18 27 43 34q21 6 15 -6q-120 -223 -205 -470q-30 -24 -76 -19q-98 227 -141 492q35 4 67 -12q28 -244 102 -424zM696 635q-38 0 -73 -6q-69 -212 -94 -435q29 5 61 6q33 1 52 -12q14 -12 -4 -14q-115 -15 -194 -66q-19 28 -13 58q31 14 65 22
q-4 97 16 220q20 126 42 201q-29 -11 -55 -28q-18 31 -9 58q89 28 159 23q36 -2 49 -18q7 -9 -2 -9z" />
    <glyph glyph-name="uni2166" unicode="&#x2166;" 
d="M174 196q59 232 134 402q14 27 37 36q24 11 17 -5q-89 -251 -140 -470q-30 -24 -76 -19q-88 227 -131 492q35 4 67 -12q27 -230 92 -424zM535 636q-25 -2 -47 -8q-71 -213 -94 -438q41 4 62 -13q11 -11 -4 -14q-73 -13 -133 -54q-17 28 -12 58q26 14 54 21q1 86 16 211
q18 119 44 211q-15 -8 -33 -23q-14 24 -7 53q56 25 112 23q27 -1 44 -18q6 -8 -2 -9zM699 635q-25 -2 -47 -8q-71 -213 -94 -438q38 4 62 -13q13 -11 -4 -14q-73 -13 -133 -54q-17 28 -12 58q26 14 54 21q1 86 16 211q18 119 44 211q-15 -8 -33 -23q-14 24 -7 53
q56 25 112 23q28 -1 44 -18q6 -8 -2 -9z" />
    <glyph glyph-name="uni2167" unicode="&#x2167;" 
d="M154 196q37 197 114 404q16 25 37 35q23 10 17 -6q-88 -251 -120 -470q-30 -24 -76 -19q-68 227 -111 492q35 4 67 -12q27 -230 72 -424zM452 625q-18 0 -35 -3q-45 -204 -66 -431h13q17 0 30 -13q9 -12 -1 -14q-52 -9 -106 -42q-11 27 -3 55q26 10 38 11
q0 95 13.5 217.5t30.5 205.5q-10 -5 -25 -14q-6 32 4 52q44 18 79 8q22 -6 30 -23q3 -9 -2 -9zM576 625q-18 0 -35 -3q-45 -204 -66 -431h13q17 0 30 -13q9 -12 -1 -14q-52 -9 -106 -42q-11 27 -3 55q26 10 38 11q0 95 13.5 217.5t30.5 205.5q-10 -5 -25 -14q-6 32 4 52
q44 18 79 8q22 -6 30 -23q3 -9 -2 -9zM701 624q-18 0 -35 -3q-45 -204 -66 -431h13q17 0 30 -13q9 -12 -1 -14q-52 -9 -106 -42q-11 27 -3 55q26 10 38 11q0 95 13.5 217.5t30.5 205.5q-10 -5 -25 -14q-6 32 4 52q44 18 79 8q22 -6 30 -23q3 -9 -2 -9z" />
    <glyph glyph-name="uni2168" unicode="&#x2168;" 
d="M426 456q96 120 185 193q35 -4 50 -26q-106 -94 -217 -229q82 -120 190 -231q13 -13 -9 -13t-54 29q-87 77 -160 175q-78 -97 -158 -214q-10 -15 -12 7q1 28 16 55q48 93 123 195q-56 82 -103 178q5 40 29 61q46 -101 107 -196q6 8 13 16zM288 636q-38 0 -73 -6
q-69 -212 -94 -435q29 5 61 6q33 1 52 -12q14 -12 -4 -14q-115 -15 -194 -66q-19 28 -13 58q31 14 65 22q-4 97 16 220q20 126 42 201q-29 -11 -55 -28q-18 31 -9 58q89 28 159 23q36 -2 49 -18q7 -9 -2 -9z" />
    <glyph glyph-name="uni2169" unicode="&#x2169;" 
d="M344 456q100 124 190 193q35 -4 50 -26q-100 -85 -220 -228q85 -120 193 -232q11 -13 -9 -13q-22 0 -54 29q-88 78 -163 176q-79 -96 -165 -215q-12 -16 -12 7q1 28 16 55q55 97 129 196q-58 82 -109 177q5 40 29 61q49 -100 113 -195q6 7 12 15z" />
    <glyph glyph-name="uni2170" unicode="&#x2170;" 
d="M340 455q34 6 53 -16q-31 -129 -49 -299q-4 -27 -16 -9q-13 20 -13 45q-2 147 25 279zM398 662q39 -9 50 -48q-50 -31 -94 -82q-21 -23 -17 16q7 65 61 114z" />
    <glyph glyph-name="uni2171" unicode="&#x2171;" 
d="M260 455q34 6 53 -16q-31 -129 -49 -299q-4 -27 -16 -9q-13 20 -13 45q-2 147 25 279zM318 662q39 -9 50 -48q-50 -31 -94 -82q-21 -23 -17 16q7 65 61 114zM410 455q34 6 53 -16q-31 -129 -49 -299q-4 -27 -16 -9q-13 20 -13 45q-2 147 25 279zM468 662q39 -9 50 -48
q-50 -31 -94 -82q-21 -23 -17 16q7 65 61 114z" />
    <glyph glyph-name="uni2172" unicode="&#x2172;" 
d="M190 455q34 6 53 -16q-31 -129 -49 -299q-4 -27 -16 -9q-13 20 -13 45q-2 147 25 279zM248 662q39 -9 50 -48q-50 -31 -94 -82q-21 -23 -17 16q7 65 61 114zM340 455q34 6 53 -16q-31 -129 -49 -299q-4 -27 -16 -9q-13 20 -13 45q-2 147 25 279zM398 662q39 -9 50 -48
q-50 -31 -94 -82q-21 -23 -17 16q7 65 61 114zM490 455q34 6 53 -16q-31 -129 -49 -299q-4 -27 -16 -9q-13 20 -13 45q-2 147 25 279zM548 662q39 -9 50 -48q-50 -31 -94 -82q-21 -23 -17 16q7 65 61 114z" />
    <glyph glyph-name="uni2173" unicode="&#x2173;" 
d="M360 464q22 -163 75 -284q60 135 134 234q21 28 45 36q19 5 8 -14q-92 -144 -150 -291q-18 -18 -48 -17q-89 154 -127 347q37 1 63 -11zM160 455q34 6 53 -16q-31 -129 -49 -299q-4 -27 -16 -9q-13 20 -13 45q-2 147 25 279zM218 662q39 -9 50 -48q-50 -31 -94 -82
q-21 -23 -17 16q7 65 61 114z" />
    <glyph glyph-name="uni2174" unicode="&#x2174;" 
d="M270 464q27 -166 95 -284q70 148 144 234q23 27 45 36q22 8 8 -14q-91 -146 -160 -291q-18 -18 -48 -17q-109 152 -147 347q37 1 63 -11z" />
    <glyph glyph-name="uni2175" unicode="&#x2175;" 
d="M190 464q22 -163 75 -284q60 135 134 234q21 28 45 36q19 5 8 -14q-92 -144 -150 -291q-18 -18 -48 -17q-89 154 -127 347q37 1 63 -11zM540 455q34 6 53 -16q-31 -129 -49 -299q-4 -27 -16 -9q-13 20 -13 45q-2 147 25 279zM598 662q39 -9 50 -48q-50 -31 -94 -82
q-21 -23 -17 16q7 65 61 114z" />
    <glyph glyph-name="uni2176" unicode="&#x2176;" 
d="M140 464q19 -152 67 -284q44 122 111 233q15 25 44 36q21 7 10 -13q-83 -142 -130 -291q-18 -18 -48 -17q-77 154 -117 347q37 1 63 -11zM580 455q34 6 53 -16q-31 -129 -49 -299q-4 -27 -16 -9q-13 20 -13 45q-2 147 25 279zM638 662q39 -9 50 -48q-50 -31 -94 -82
q-21 -23 -17 16q7 65 61 114zM440 455q34 6 53 -16q-31 -129 -49 -299q-4 -27 -16 -9q-13 20 -13 45q-2 147 25 279zM498 662q39 -9 50 -48q-50 -31 -94 -82q-21 -23 -17 16q7 65 61 114z" />
    <glyph glyph-name="uni2177" unicode="&#x2177;" 
d="M100 464q21 -152 68 -284q45 134 100 233q14 25 44 36q20 7 10 -13q-73 -148 -120 -293q-19 -17 -48 -15q-77 154 -117 347q37 1 63 -11zM370 455q29 5 49 -13q-30 -128 -47 -300q-3 -30 -16 -9q-11 16 -11 43q-2 143 25 279zM407 662q33 -1 53 -32q-48 -51 -71 -106
q-12 -27 -18 13q-5 64 36 125zM480 455q29 5 49 -13q-30 -128 -47 -300q-4 -29 -16 -9q-11 16 -11 43q-2 143 25 279zM590 455q29 5 49 -13q-30 -128 -47 -300q-4 -29 -16 -9q-11 16 -11 43q-2 143 25 279zM527 662q33 -1 53 -32q-48 -51 -71 -106q-12 -27 -18 13
q-5 64 36 125zM647 662q33 -1 53 -32q-48 -51 -71 -106q-12 -27 -18 13q-5 64 36 125z" />
    <glyph glyph-name="uni2178" unicode="&#x2178;" 
d="M306 186q36 61 81 118q-36 55 -67 118q13 27 38 33q25 -61 57 -116q62 72 140 137q27 -5 45 -27q-84 -70 -159 -151q53 -81 124 -150q16 -17 -14 -10q-22 4 -39 18q-53 50 -99 111q-56 -63 -107 -133q-14 -18 -13 5q2 24 13 47zM190 455q34 6 53 -16q-31 -129 -49 -299
q-4 -27 -16 -9q-13 20 -13 45q-2 147 25 279zM248 662q39 -9 50 -48q-50 -31 -94 -82q-21 -23 -17 16q7 65 61 114z" />
    <glyph glyph-name="uni2179" unicode="&#x2179;" 
d="M236 186q40 62 89 119q-40 54 -75 117q13 27 38 33q29 -60 66 -117q69 74 151 138q28 -4 45 -27q-88 -66 -169 -148q58 -82 134 -155q13 -13 -14 -9q-20 3 -39 18q-58 50 -111 115q-60 -64 -116 -136q-14 -17 -13 5q2 25 14 47z" />
    <glyph glyph-name="arrowleft" unicode="&#x2190;" 
d="M30 402l240 80l-16 -61h428v-41h-428l16 -62z" />
    <glyph glyph-name="arrowup" unicode="&#x2191;" 
d="M352 744l82 -238l-61 15v-465h-40v465l-64 -14z" />
    <glyph glyph-name="arrowright" unicode="&#x2192;" 
d="M675 402l-238 -84l13 62h-425v41h425l-13 61z" />
    <glyph glyph-name="arrowdown" unicode="&#x2193;" 
d="M352 55l-83 236l64 -13v464h40v-464l61 13z" />
    <glyph glyph-name="arrowboth" unicode="&#x2194;" 
d="M506 380h-307l15 -62l-192 84l192 80l-15 -61h307l-15 61l193 -80l-193 -84z" />
    <glyph glyph-name="arrowupdn" unicode="&#x2195;" 
d="M465 230l-113 -199l-114 199l97 -14v351l-97 -14l114 200l113 -200l-94 14v-351z" />
    <glyph glyph-name="uni2196" unicode="&#x2196;" 
d="M33 721l216 -105l-55 -34l487 -474l-24 -26l-488 477l-33 -54z" />
    <glyph glyph-name="uni2197" unicode="&#x2197;" 
d="M678 712l-105 -216l-34 55l-485 -478l-24 26l485 477l-53 32z" />
    <glyph glyph-name="uni2198" unicode="&#x2198;" 
d="M679 82l-216 102l55 34l-486 475l23 27l487 -476l32 53z" />
    <glyph glyph-name="uni2199" unicode="&#x2199;" 
d="M36 82l103 215l34 -54l486 477l25 -27l-485 -476l53 -34z" />
    <glyph glyph-name="uni219C" unicode="&#x219c;" 
d="M271 620v-101l-109 117l109 111v-94h82q70 0 108 -31q50 -37 50 -101q0 -34 -10.5 -59.5t-28.5 -44.5q-19 -18 -42 -32t-47 -27q-24 -14 -47 -27.5t-40 -30.5q-20 -17 -28 -37t-8 -45q0 -49 39 -84q33 -30 87 -44q48 -12 115 -9v-32q-69 -1 -125 11q-58 13 -107 52
q-46 41 -46 106q0 31 10.5 56.5t29.5 45.5q20 18 43.5 33t47.5 29q24 13 47.5 26.5t39.5 29.5q18 16 26.5 34.5t8.5 48.5q0 42 -31 70.5t-93 28.5h-81z" />
    <glyph glyph-name="uni219D" unicode="&#x219d;" 
d="M439 620h-81q-62 0 -93 -28.5t-31 -70.5q0 -30 8.5 -48.5t26.5 -34.5q16 -16 39.5 -29t48.5 -26q24 -15 47 -30t43 -33q19 -20 29.5 -45.5t10.5 -56.5q0 -65 -46 -106q-48 -39 -106 -52q-57 -12 -126 -11v32q68 -3 115 9q54 14 88 44q38 35 38 84q0 25 -8 45t-28 37
q-17 17 -40 30.5t-47 27.5q-24 13 -47 27t-42 32q-18 19 -28.5 44.5t-10.5 59.5q0 64 50 101q39 31 109 31h81v94l109 -111l-109 -117v101z" />
    <glyph glyph-name="uni21B0" unicode="&#x21b0;" 
d="M584 561v-524h-34v492h-431v-99l-110 114l110 113v-96h465z" />
    <glyph glyph-name="uni21B1" unicode="&#x21b1;" 
d="M106 560h466v96l109 -113l-109 -114v99h-432v-492h-34v524z" />
    <glyph glyph-name="uni21B2" unicode="&#x21b2;" 
d="M584 222h-465v-96l-110 113l110 114v-99h431v492h34v-524z" />
    <glyph glyph-name="uni21B3" unicode="&#x21b3;" 
d="M106 222v524h34v-492h432v99l109 -114l-109 -113v96h-466z" />
    <glyph glyph-name="uni21B4" unicode="&#x21b4;" 
d="M575 637v-465h96l-113 -110l-114 110h99v431h-492v34h524z" />
    <glyph glyph-name="uni21B6" unicode="&#x21b6;" 
d="M546 50h-36l1 540q0 53 -31 88q-17 21 -40.5 30t-56.5 9q-32 0 -55.5 -14t-40.5 -38q-31 -45 -23 -106h94l-112 -112l-115 112h97q-7 69 32 124q19 28 50.5 46t73.5 18q37 0 67 -10.5t52 -32.5q44 -45 44 -125z" />
    <glyph glyph-name="uni21B7" unicode="&#x21b7;" 
d="M220 50l-1 529q0 80 44 125q22 22 52 32.5t67 10.5q42 0 73.5 -18t50.5 -46q39 -55 32 -124h97l-115 -112l-112 112h94q8 61 -23 106q-17 24 -40.5 38t-55.5 14q-33 0 -56.5 -9t-40.5 -30q-31 -35 -31 -88l1 -540h-36z" />
    <glyph glyph-name="uni21BC" unicode="&#x21bc;" 
d="M184 524q66 45 134 45q-59 -29 -100 -73q-37 -35 -47 -58h513v-28h-672q28 23 72 50q46 27 100 64z" />
    <glyph glyph-name="uni21C0" unicode="&#x21c0;" 
d="M525 524q54 -37 100 -64q44 -27 72 -50h-672v28h513q-9 23 -47 58q-41 44 -99 73q67 0 133 -45z" />
    <glyph glyph-name="uni21C4" unicode="&#x21c4;" 
d="M680 514l-232 -91l77 69h-499v45h499l-78 68zM674 265h-498l77 -68l-232 91l232 90l-78 -68h499v-45z" />
    <glyph glyph-name="uni21C5" unicode="&#x21c5;" 
d="M247 737l89 -229l-68 76v-508h-43v509l-68 -78zM495 726v-508l68 76l-91 -229l-88 230l68 -78v509h43z" />
    <glyph glyph-name="uni21CD" unicode="&#x21cd;" 
d="M231 217l-22 -20l-192 201l192 200l21 -20l-94 -97h266l38 144l31 -7l-37 -137h241v-29h-249l-29 -109h278v-28h-286l-39 -148l-28 7l37 141h-222zM109 452l-52 -54l53 -55h256l29 109h-286z" />
    <glyph glyph-name="uni21CF" unicode="&#x21cf;" 
d="M469 217l94 98h-222l37 -141l-28 -7l-39 148h-286v28h278l-29 109h-249v29h241l-37 137l31 7l38 -144h266l-94 97l21 20l192 -200l-192 -201zM590 343l53 55l-52 54h-286l29 -109h256z" />
    <glyph glyph-name="arrowdblleft" unicode="&#x21d0;" 
d="M231 218l-22 -21l-192 201l192 201l21 -21l-94 -97h539v-29h-566l-52 -54l53 -54h565v-28h-538z" />
    <glyph glyph-name="arrowdblup" unicode="&#x21d1;" 
d="M304 745v-696h-31v611l-212 -249l-26 20zM412 745l271 -314l-29 -19l-210 248v-611h-32v696z" />
    <glyph glyph-name="arrowdblright" unicode="&#x21d2;" 
d="M459 156l-35 33l97 95h-496v45h539l58 55l-58 55h-539v45h496l-97 92l34 35l231 -227z" />
    <glyph glyph-name="arrowdbldown" unicode="&#x21d3;" 
d="M411 43v696h31v-611l212 248l27 -19zM303 43l-270 314l28 19l211 -248v611h31v-696z" />
    <glyph glyph-name="arrowdblboth" unicode="&#x21d4;" 
d="M522 284h-336l98 -94l-33 -34l-231 228l231 227l33 -35l-98 -92h336l-98 92l34 35l231 -227l-231 -228l-34 34zM144 329h421l57 55l-57 55h-421l-58 -55z" />
    <glyph glyph-name="uni21E0" unicode="&#x21e0;" 
d="M177 545v-303l-157 152zM339 394q0 -22 -15 -37t-37 -15q-21 0 -36 15t-15 37q0 20 15 35t36 15q22 0 37 -15t15 -35zM507 394q0 -22 -14.5 -37t-36.5 -15q-21 0 -36 15t-15 37q0 20 15 35t36 15q22 0 36.5 -15t14.5 -35zM677 394q0 -22 -15 -37t-36 -15q-22 0 -37 15
t-15 37q0 20 15 35t37 15q21 0 36 -15t15 -35z" />
    <glyph glyph-name="uni21E1" unicode="&#x21e1;" 
d="M506 572h-304l153 156zM355 410q-22 0 -37 14.5t-15 36.5q0 21 15 36t37 15q20 0 35 -15t15 -36q0 -22 -15 -36.5t-35 -14.5zM355 241q-22 0 -37 15t-15 36q0 22 15 36.5t37 14.5q20 0 35 -14.5t15 -36.5q0 -21 -15 -36t-35 -15zM355 71q-22 0 -37 15t-15 37q0 21 15 36
t37 15q20 0 35 -15t15 -36q0 -22 -15 -37t-35 -15z" />
    <glyph glyph-name="uni21E2" unicode="&#x21e2;" 
d="M526 544l156 -151l-156 -153v304zM364 393q0 20 14.5 35t36.5 15q21 0 36 -15t15 -35q0 -22 -15 -37t-36 -15q-22 0 -36.5 15t-14.5 37zM195 393q0 20 15 35t36 15q22 0 36.5 -15t14.5 -35q0 -22 -14.5 -37t-36.5 -15q-21 0 -36 15t-15 37zM25 393q0 20 15 35t37 15
q21 0 36 -15t15 -35q0 -22 -15 -37t-36 -15q-22 0 -37 15t-15 37z" />
    <glyph glyph-name="uni21E3" unicode="&#x21e3;" 
d="M202 201h303l-151 -157zM354 363q21 0 36 -15t15 -37q0 -21 -15 -36t-36 -15t-36 15t-15 36q0 22 15 37t36 15zM354 531q21 0 36 -14.5t15 -36.5q0 -21 -15 -36t-36 -15t-36 15t-15 36q0 22 15 36.5t36 14.5zM354 701q21 0 36 -15t15 -36q0 -22 -15 -37t-36 -15t-36 15
t-15 37q0 21 15 36t36 15z" />
    <glyph glyph-name="uni21E6" unicode="&#x21e6;" 
d="M649 297v202h-378v114l-209 -215l209 -215v114h378zM678 526v-256h-379v-156l-279 284l279 284v-156h379z" />
    <glyph glyph-name="uni21E7" unicode="&#x21e7;" 
d="M252 99h202v379h114l-215 208l-215 -208h114v-379zM481 71h-256v378h-156l284 280l284 -280h-156v-378z" />
    <glyph glyph-name="uni21E8" unicode="&#x21e8;" 
d="M52 296h379v-114l208 215l-208 215v-114h-379v-202zM24 525h378v156l280 -284l-280 -284v156h-378v256z" />
    <glyph glyph-name="uni21E9" unicode="&#x21e9;" 
d="M253 689v-378h-114l215 -209l215 209h-114v378h-202zM482 718v-379h156l-284 -279l-284 279h156v379h256z" />
    <glyph glyph-name="uni21F0" unicode="&#x21f0;" 
d="M686 399q-223 -108 -393 -272v210h-152l-110 -70v264l110 -70h152v210q170 -164 393 -272zM625 399q-175 90 -303 204v-169h-188l-76 42v-154l76 42h188v-169q128 114 303 204z" />
    <glyph glyph-name="universal" unicode="&#x2200;" 
d="M476 496l68 174h66l-224 -559h-61l-206 559h66l61 -174h230zM458 447h-195l93 -271z" />
    <glyph glyph-name="partialdiff" unicode="&#x2202;" horiz-adv-x="350" 
d="M91 551q19 38 40 62q17 19 37 32t50 13q53 0 84 -42t29 -117q-2 -77 -19 -146q-26 -102 -59 -163q-24 -46 -54.5 -66t-59.5 -20q-51 0 -79 32q-28 34 -28 90q0 78 46 144q23 32 53 52q33 19 64 15q64 -8 74 -68q18 77 17 129q0 45 -15 75q-17 38 -56 38q-24 0 -46 -23
t-37 -60zM113 346q-34 -56 -35 -119q0 -36 15.5 -57t46.5 -21q37 -1 66 47.5t33 106.5q2 31 -10 58q-16 31 -49 33q-18 1 -36.5 -13.5t-30.5 -34.5z" />
    <glyph glyph-name="existential" unicode="&#x2203;" 
d="M567 662v-551h-387v52h328v191h-307v50h307v207h-342v51h401z" />
    <glyph glyph-name="Delta" unicode="&#x2206;" 
d="M353 659l304 -579h-609zM111 116h483l-241 464z" />
    <glyph glyph-name="gradient" unicode="&#x2207;" 
d="M353 57l-305 579h609zM111 600l242 -464l241 464h-483z" />
    <glyph glyph-name="element" unicode="&#x2208;" 
d="M56 400q0 87 61 150q68 73 185 73h332v-49h-338q-83 0 -134 -48q-48 -44 -54 -101h526v-50h-526q6 -57 54 -102q51 -47 134 -47h338v-49h-332q-117 0 -185 72q-61 63 -61 151z" />
    <glyph glyph-name="notelement" unicode="&#x2209;" 
d="M54 400q0 89 62 153q69 72 185 72h143l33 83h39l-31 -83h151v-53h-171l-56 -145h226v-54h-247l-55 -145h303v-53h-323l-32 -84h-41l33 85q-95 7 -157 71t-62 153zM424 572h-131q-79 0 -130 -48q-47 -43 -54 -97h260zM348 373h-238q6 -53 53 -97q51 -48 128 -48h1z" />
    <glyph glyph-name="suchthat" unicode="&#x220b;" 
d="M661 400q0 -88 -62 -151q-69 -72 -187 -72h-329v49h336q83 0 133 47q50 45 54 102h-523v50h523q-4 57 -54 101q-50 48 -133 48h-336v49h329q118 0 187 -73q62 -63 62 -150z" />
    <glyph glyph-name="uni220C" unicode="&#x220c;" 
d="M635 400q0 -89 -62 -153t-157 -71l33 -85h-41l-32 84h-323v53h303l-55 145h-247v54h226l-56 145h-171v53h151l-31 83h39l33 -83h143q116 0 185 -72q62 -64 62 -153zM265 572l55 -145h260q-7 54 -54 97q-51 48 -130 48h-131zM341 373l56 -145h1q77 0 128 48q47 44 53 97
h-238z" />
    <glyph glyph-name="product" unicode="&#x220f;" 
d="M599 605h-106v-465h-49v465h-183v-465h-49v465h-106v41h493v-41z" />
    <glyph glyph-name="summation" unicode="&#x2211;" 
d="M518 185l-10 -44h-395l10 42l250 233l-148 199l10 44h356l-10 -44h-306l150 -205l-243 -225h336z" />
    <glyph glyph-name="uni2213" unicode="&#x2213;" 
d="M380 532v-155h166v-43h-166v-156h-53v156h-165v43h165v155h53zM546 589h-384v43h384v-43z" />
    <glyph glyph-name="radical" unicode="&#x221a;" 
d="M648 745v-42h-224l-192 -623l-136 318l-47 -41l-19 36l85 79l109 -258l161 531h263z" />
    <glyph glyph-name="proportional" unicode="&#x221d;" 
d="M194 291q38 0 70.5 29t48.5 72q-16 42 -48 71.5t-72 29.5q-45 0 -73 -28q-29 -28 -29 -73q0 -44 28 -73q31 -28 75 -28zM608 286q-43 -41 -110 -41q-45 0 -88.5 30t-63.5 74q-20 -44 -63.5 -74t-88.5 -30q-68 1 -111 40q-41 42 -41 107t41 105q44 42 110 42
q46 0 89.5 -31.5t63.5 -73.5q22 42 64.5 72.5t88.5 32.5q66 0 110 -42l-32 -36q-35 32 -79 32q-39 0 -70.5 -29.5t-49.5 -71.5q18 -43 50 -72t70 -29q43 0 81 33z" />
    <glyph glyph-name="infinity" unicode="&#x221e;" 
d="M575 247q-23 -17 -56 -21q-90 0 -202 95q-143 -98 -231 -85q-36 29 -46 68q50 144 139 225q-3 13 -6 25q-4 22 -1 37q9 32 21 2q6 -21 14 -41q30 23 64 39l30 -44q-39 -21 -71 -47q34 -68 90 -116l2 -2q16 12 33 26q209 167 283 180q29 -2 50 -20q8 -74 -18 -164
q-28 -99 -95 -157zM281 354q-54 54 -83 119q-78 -74 -112 -182q78 -13 195 63zM360 352q84 -66 155 -85q76 45 111 148q21 74 19 122q-69 -14 -255 -162q-15 -12 -30 -23z" />
    <glyph glyph-name="orthogonal" unicode="&#x221f;" 
d="M146 631h42v-392h388v-35h-430v427z" />
    <glyph glyph-name="angle" unicode="&#x2220;" 
d="M181 186h448v-45h-514q-6 0 -12 3t-10 11q-1 7 5 14t13 15l442 449l35 -31z" />
    <glyph glyph-name="uni2222" unicode="&#x2222;" 
d="M108 397l317 134q-24 33 -57 52v37q55 -25 90 -75l113 46l14 -34l-106 -43q29 -52 29 -118q0 -73 -24 -118l100 -41l-14 -33l-105 44q-41 -61 -99 -87v38q39 22 67 62zM445 500l-250 -103l256 -106q23 44 23 105q0 54 -29 104z" />
    <glyph glyph-name="uni2225" unicode="&#x2225;" 
d="M410 49v711h42v-711h-42zM259 49v711h42v-711h-42z" />
    <glyph glyph-name="uni2226" unicode="&#x2226;" 
d="M151 271l108 84v405h42v-373l109 85v288h42v-256l69 55l24 -31l-93 -72v-407h-42v375l-109 -86v-289h-42v257l-85 -66z" />
    <glyph glyph-name="logicaland" unicode="&#x2227;" 
d="M355 585l-226 -452l-48 21l249 498q9 19 25 19t25 -19l249 -498l-48 -21z" />
    <glyph glyph-name="logicalor" unicode="&#x2228;" 
d="M355 217l226 452l48 -22l-249 -497q-9 -19 -25 -19q-15 0 -26 19l-248 498l48 21z" />
    <glyph glyph-name="intersection" unicode="&#x2229;" 
d="M356 656q-73 0 -124 -54q-47 -49 -47 -130v-331h-53v325q0 121 70 183q67 56 154 56t155 -56q70 -62 70 -183v-325h-53v331q0 81 -47 130q-52 54 -125 54z" />
    <glyph glyph-name="union" unicode="&#x222a;" 
d="M357 180q73 0 124 53q47 49 47 130v331h53v-325q0 -120 -70 -183q-68 -55 -154 -55q-87 0 -155 55q-70 63 -70 183v325h53v-331q0 -81 47 -130q52 -53 125 -53z" />
    <glyph glyph-name="integral" unicode="&#x222b;" horiz-adv-x="650" 
d="M313 673q0 8 -6 11.5t-15 2.5q-23 -2 -41 -36.5t-18 -88.5q0 -45 4 -110q2 -63 5 -124q3 -91 -16 -144q-19 -50 -51 -78q-40 -32 -93 -30q-29 0 -45 15.5t-16 37.5q0 14 9 26t26 12t27 -13t10 -29q1 -9 6.5 -13t12.5 -4q15 0 32 11.5t29 31.5q23 41 23 100q0 32 -2 62
q-11 125 -11 183q1 65 10.5 106t24.5 62q13 22 36.5 36.5t53.5 14.5q37 0 59 -18q8 -7 13 -16t5 -20q0 -15 -10.5 -27.5t-28.5 -12.5q-15 0 -24 10t-9 25v17z" />
    <glyph glyph-name="uni222C" unicode="&#x222c;" 
d="M433 140q-36 -59 -97 -59q-18 0 -30 12.5t-12 28.5q0 12 8.5 20.5t20.5 8.5q20 0 27 -20t16 -18q15 1 32 25q29 41 29 149q-1 78 -3 146q-3 58 4 106q6 93 36 140q25 41 78 41q21 0 34 -13t13 -30q0 -13 -9.5 -22t-24.5 -9q-11 0 -21.5 7t-12.5 18q-6 13 -17 12
q-9 -1 -16 -14q-19 -34 -19 -115v-218q0 -137 -36 -196zM261 140q-36 -58 -97 -59q-18 0 -30 12.5t-12 28.5q0 12 8 20.5t20 8.5q20 0 27.5 -20t17.5 -18q15 1 32 26q29 41 28 148q-1 78 -3 146q-2 58 4 106q6 97 35 141q25 40 80 40q19 0 32.5 -13t13.5 -31q0 -12 -10 -21
t-24 -9q-13 0 -22 7t-12 19q-5 12 -17 11q-10 0 -17 -14q-16 -35 -17 -115l1 -217q0 -138 -38 -197z" />
    <glyph glyph-name="uni222E" unicode="&#x222e;" 
d="M319 106q-46 -59 -104 -59q-18 0 -30.5 13.5t-11.5 29.5q1 13 11 22t24 9q21 0 26 -18t15 -18q14 1 31 24q32 37 43 140q-10 1 -21 6q-24 10 -43 27q-18 18 -27.5 40t-9.5 47t9.5 47t27.5 40q19 17 44 27q20 8 41 9l2 15q17 100 52 145q30 39 81 37q22 0 34.5 -14
t10.5 -30q-1 -14 -11.5 -23.5t-26.5 -9.5q-12 0 -21 7t-13 19q-4 11 -14 9q-9 -1 -17 -14q-18 -34 -29 -112l-4 -34q5 -1 14 -4q24 -10 42 -27q19 -18 29 -40t10 -47t-10 -47t-29 -40q-18 -17 -42 -27q-18 -7 -34 -9q-14 -98 -49 -140zM324 284q6 58 9 117q3 31 6 57
q-28 -3 -53 -26q-28 -27 -28 -63q0 -37 28 -63q19 -17 38 -22zM385 453q-11 -117 -14 -171q24 4 47 24q28 26 28 63q0 36 -28 63q-17 15 -33 21z" />
    <glyph glyph-name="therefore" unicode="&#x2234;" 
d="M385 577q32 -22 8 -61q-27 -40 -63 -40q-9 0 -9 15q0 43 44 84q10 8 20 2zM193 244q32 -22 8 -61q-27 -40 -63 -40q-9 0 -9 15q0 43 44 84q10 8 20 2zM580 244q32 -22 8 -61q-27 -40 -63 -40q-9 0 -9 15q0 43 44 84q10 8 20 2z" />
    <glyph glyph-name="uni2235" unicode="&#x2235;" 
d="M380 242q32 -22 8 -61q-27 -40 -63 -40q-9 0 -9 15q0 43 44 84q10 8 20 2zM188 575q32 -22 8 -61q-27 -40 -63 -40q-9 0 -9 15q0 43 44 84q10 8 20 2zM575 575q32 -22 8 -61q-27 -40 -63 -40q-9 0 -9 15q0 43 44 84q10 8 20 2z" />
    <glyph glyph-name="uni2236" unicode="&#x2236;" 
d="M356 427l-88 150h170zM266 215l89 149l82 -149h-171z" />
    <glyph glyph-name="uni2237" unicode="&#x2237;" 
d="M193 577q32 -22 8 -61q-28 -42 -63 -40q-10 0 -9 15q0 43 44 84q11 6 20 2zM193 244q32 -22 8 -61q-28 -42 -63 -40q-10 0 -9 15q0 43 44 84q11 6 20 2zM580 244q32 -22 8 -61q-28 -42 -63 -40q-10 0 -9 15q0 43 44 84q11 6 20 2zM580 577q32 -22 8 -61q-28 -42 -63 -40
q-10 0 -9 15q0 43 44 84q11 6 20 2z" />
    <glyph glyph-name="similar" unicode="&#x223c;" 
d="M320 430q47 -35 81 -98q74 17 138 88q20 20 20 -4q0 -19 -21 -44q-54 -63 -133 -77q-32 5 -47 30q-28 53 -70 89q-66 -42 -102 -121q-32 9 -45 32q44 88 130 119q23 6 49 -14z" />
    <glyph glyph-name="uni223D" unicode="&#x223d;" 
d="M370 372q-33 -58 -65 -85q-47 -42 -108 -42q-62 0 -105 39q-42 43 -42 112q0 57 39 98q42 45 111 45q30 0 54 -11t45 -25l-32 -37q-13 14 -27 19q-15 8 -41 8q-41 0 -72 -31q-28 -28 -28 -67q0 -46 26 -74q29 -30 75 -30q28 0 59.5 20.5t54.5 55.5q16 26 25 41
q26 49 65 86q46 45 107 45q63 0 106 -41q44 -41 44 -112q0 -56 -41 -98q-41 -43 -111 -43q-29 0 -54 11t-44 24l29 38q16 -14 29 -20q16 -7 40 -7q40 0 73 29q31 26 31 67q0 48 -29 74q-28 32 -75 32q-28 0 -54 -17.5t-57 -59.5q-17 -26 -28 -44z" />
    <glyph glyph-name="uni2243" unicode="&#x2243;" 
d="M597 230h-478v42h478v-42zM358 475q47 -26 80 -32q20 -3 42 -1.5t37 7.5q31 11 61 38q11 8 17 7q13 -8 5 -18q-18 -30 -49 -49q-17 -13 -38.5 -20.5t-50.5 -8.5q-44 -2 -102 29q-46 26 -80 35q-20 6 -42 3t-36 -9q-30 -12 -62 -42q-10 -10 -17 -7q-13 6 -5 17
q22 33 48 54q23 19 42 25t48 6q38 1 102 -34z" />
    <glyph glyph-name="congruent" unicode="&#x2245;" 
d="M597 265h-478v42h478v-42zM358 480q47 -26 80 -32q20 -3 42 -1.5t37 7.5q31 11 61 38q11 8 17 7q13 -8 5 -18q-18 -30 -49 -49q-17 -13 -38.5 -20.5t-50.5 -8.5q-44 -2 -102 29q-46 26 -80 35q-20 6 -42 3t-36 -9q-30 -12 -62 -42q-10 -10 -17 -7q-13 6 -5 17
q22 33 48 54q23 19 42 25t48 6q38 1 102 -34zM597 145h-478v42h478v-42z" />
    <glyph glyph-name="approxequal" unicode="&#x2248;" 
d="M358 489q47 -26 80 -32q20 -3 42 -1.5t37 7.5q31 11 61 38q11 8 17 7q13 -8 5 -18q-18 -30 -49 -49q-17 -13 -38.5 -20.5t-50.5 -8.5q-44 -2 -102 29q-46 26 -80 35q-20 6 -42 3t-36 -9q-30 -12 -62 -42q-10 -10 -17 -7q-13 6 -5 17q22 33 48 54q23 19 42 25t48 6
q38 1 102 -34zM358 287q47 -25 80 -31q20 -4 42 -2.5t37 7.5q31 11 61 38q11 8 17 7q13 -8 5 -17q-18 -31 -49 -50q-17 -12 -38.5 -19.5t-50.5 -9.5q-44 -2 -102 29q-46 26 -80 36q-20 5 -42 2.5t-36 -9.5q-30 -12 -62 -42q-10 -10 -17 -7q-13 8 -5 17q22 34 49 55
q22 18 41 24.5t48 6.5q38 0 102 -35z" />
    <glyph glyph-name="uni2250" unicode="&#x2250;" 
d="M405 527q0 -22 -16 -37.5t-37 -15.5t-36 15.5t-15 37.5t15 37.5t36 15.5t37 -15.5t16 -37.5zM124 422h458v-55h-458v55zM124 306h458v-55h-458v55z" />
    <glyph glyph-name="uni2251" unicode="&#x2251;" 
d="M383 629q33 -23 8 -75q-28 -42 -67 -42q-9 1 -9 16q0 45 46 88q10 7 22 13zM366 287q30 -28 3 -80q-23 -39 -64 -43q-10 2 -10 17q-4 49 49 92q10 7 22 14zM542 335q11 -5 -5 -13q-23 -11 -53 -5q-153 5 -302 -31q-16 25 -14 57q147 17 250 14q77 -2 124 -22zM541 454
q11 -5 -5 -13q-23 -11 -53 -5q-153 5 -302 -31q-16 25 -14 57q147 17 250 14q77 -2 124 -22z" />
    <glyph glyph-name="uni2252" unicode="&#x2252;" 
d="M302 586q0 -20 -15 -34.5t-38 -14.5q-20 0 -34.5 14.5t-14.5 34.5q0 22 14.5 37t34.5 15q23 0 38 -15t15 -37zM505 200q0 -21 -15 -35.5t-37 -14.5q-20 0 -34.5 14.5t-14.5 35.5t14.5 36t34.5 15q22 0 37 -15t15 -36zM126 480h456v-51h-456v51zM126 364h456v-50h-456v50z
" />
    <glyph glyph-name="uni2253" unicode="&#x2253;" 
d="M406 586q0 22 15 37t38 15q20 0 34.5 -15t14.5 -37q0 -20 -14.5 -34.5t-34.5 -14.5q-23 0 -38 14.5t-15 34.5zM203 200q0 21 15 36t37 15q20 0 34.5 -15t14.5 -36t-14.5 -35.5t-34.5 -14.5q-22 0 -37 14.5t-15 35.5zM582 480v-51h-456v51h456zM582 364v-50h-456v50h456z
" />
    <glyph glyph-name="uni225A" unicode="&#x225a;" 
d="M586 230h-465v39h465v-39zM586 145h-465v39h465v-39zM538 634l-184 -345l-184 345h45l139 -264l139 264h45z" />
    <glyph glyph-name="notequal" unicode="&#x2260;" 
d="M542 270q11 -4 -5 -12q-23 -11 -53 -5q-87 3 -172 -8q-52 -69 -103 -146q-17 -25 -16 1q1 14 7 29q24 53 57 107q-38 -6 -75 -15q-16 25 -14 57q66 8 123 11q38 58 87 116q-78 -8 -155 -27q-16 25 -14 57q115 15 208 15l18 20q46 49 85 86q32 -9 44 -39q-38 -33 -76 -70
q57 -5 95 -20q12 -5 -5 -12q-23 -11 -53 -5q-37 1 -74 -1q-51 -54 -102 -117q37 1 69 0q77 -2 124 -22z" />
    <glyph glyph-name="equivalence" unicode="&#x2261;" 
d="M124 467v52h487v-52h-487zM124 352v47h487v-47h-487zM124 234v50h487v-50h-487z" />
    <glyph glyph-name="uni2262" unicode="&#x2262;" 
d="M124 467v52h487v-52h-487zM124 352v47h487v-47h-487zM124 234v50h487v-50h-487zM520 576q32 -9 44 -39q-182 -156 -355 -418q-13 7 -9 30q76 168 235 341q46 49 85 86z" />
    <glyph glyph-name="lessequal" unicode="&#x2264;" 
d="M417 617q33 4 56 -18q-118 -87 -209 -182q75 -101 205 -185q-22 -14 -48 -1q-112 47 -194 147q-10 36 4 68q86 106 186 171zM529 146q10 -5 -4 -13q-21 -11 -48 -5q-140 6 -276 -33q-14 25 -12 59q117 19 228 14q70 -3 112 -22z" />
    <glyph glyph-name="greaterequal" unicode="&#x2265;" 
d="M293 617q100 -65 186 -171q14 -32 4 -68q-82 -100 -194 -147q-26 -13 -48 1q130 84 205 185q-91 95 -209 182q23 22 56 18zM529 146q10 -5 -4 -13q-21 -11 -48 -5q-140 6 -276 -33q-14 25 -12 59q117 19 228 14q70 -3 112 -22z" />
    <glyph glyph-name="uni2266" unicode="&#x2266;" 
d="M417 697q33 4 56 -18q-118 -87 -209 -182q75 -101 205 -185q-22 -14 -48 -1q-112 47 -194 147q-10 36 4 68q86 106 186 171zM529 226q10 -5 -4 -13q-21 -11 -48 -5q-140 6 -276 -33q-14 25 -12 59q117 19 228 14q70 -3 112 -22zM529 94q10 -5 -4 -13q-21 -11 -48 -5
q-140 6 -276 -33q-14 25 -12 59q117 19 228 14q70 -3 112 -22z" />
    <glyph glyph-name="uni2267" unicode="&#x2267;" 
d="M293 697q100 -65 186 -171q14 -32 4 -68q-82 -100 -194 -147q-26 -13 -48 1q130 84 205 185q-91 95 -209 182q23 22 56 18zM529 226q10 -5 -4 -13q-21 -11 -48 -5q-140 6 -276 -33q-14 25 -12 59q117 19 228 14q70 -3 112 -22zM529 94q10 -5 -4 -13q-21 -11 -48 -5
q-140 6 -276 -33q-14 25 -12 59q117 19 228 14q70 -3 112 -22z" />
    <glyph glyph-name="uni226A" unicode="&#x226a;" 
d="M76 419l380 266l24 -34l-362 -251l364 -253l-26 -31l-379 264q-28 20 -1 39zM264 419l379 264l26 -32l-365 -251l365 -253l-26 -31l-379 264q-29 20 0 39z" />
    <glyph glyph-name="uni226B" unicode="&#x226b;" 
d="M633 419q27 -19 -1 -39l-379 -264l-26 31l365 253l-363 251l24 34zM445 419q29 -19 0 -39l-378 -264l-27 31l365 253l-364 251l26 32z" />
    <glyph glyph-name="uni226E" unicode="&#x226e;" 
d="M273 111l55 183l-217 114l298 157l48 166l35 -8l-40 -135l95 51l23 -51l-140 -74l-55 -183l195 -97l-33 -50l-178 92l-50 -173zM344 348l42 143l-160 -84z" />
    <glyph glyph-name="uni226F" unicode="&#x226f;" 
d="M215 111l37 124l-98 -51l-33 50l154 77l50 169l-205 108l24 50l198 -104l57 197l35 -8l-61 -206l207 -109l-283 -150l-46 -155zM356 463l-38 -130l147 74z" />
    <glyph glyph-name="uni2270" unicode="&#x2270;" 
d="M572 312v-50h-266l-26 -65h292v-51h-312l-42 -104l-33 10l37 94h-87v51h108l26 65h-134v50h154l51 125l-201 81l279 116l48 120l31 -9l-37 -94l81 34l17 -41l-121 -50l-51 -129l172 -69l-19 -40l-170 68l-43 -112h246zM254 519l101 -41l40 99z" />
    <glyph glyph-name="uni2271" unicode="&#x2271;" 
d="M572 312v-50h-304l-25 -65h329v-51h-350l-42 -104l-32 10l37 94h-50v51h70l26 65h-96v50h117l37 91l-119 -47l-19 40l161 64l40 102l-201 82l18 41l198 -83l62 152l30 -9l-61 -156l172 -71l-239 -97l-43 -109h284zM382 549l-28 -72l102 42z" />
    <glyph glyph-name="uni2272" unicode="&#x2272;" 
d="M575 672l10 -32l-385 -155l386 -137l-13 -33l-469 170zM358 240q47 -26 80 -32q20 -4 41.5 -2.5t37.5 7.5q31 11 60 38q11 10 17 7q13 -6 6 -17q-18 -30 -49 -50q-17 -12 -38.5 -19.5t-50.5 -8.5q-44 -3 -103 28q-45 26 -80 36q-20 5 -41.5 2.5t-36.5 -9.5
q-30 -11 -61 -41q-10 -11 -18 -7q-12 7 -4 17q21 33 49 54q21 18 40.5 24.5t48.5 6.5q38 1 102 -34z" />
    <glyph glyph-name="uni2273" unicode="&#x2273;" 
d="M358 240q47 -26 80 -32q20 -4 42 -2.5t37 7.5q31 11 61 38q12 10 17 7q13 -6 5 -17q-18 -30 -49 -50q-17 -12 -38.5 -19.5t-50.5 -8.5q-44 -3 -102 28q-46 26 -80 36q-20 5 -42 2.5t-36 -9.5q-30 -11 -62 -41q-10 -11 -17 -6q-13 5 -5 16q22 33 49 54q22 18 41 24.5
t48 6.5q38 1 102 -34zM123 672l470 -187l-470 -170l-12 33l386 137l-386 155z" />
    <glyph glyph-name="uni2276" unicode="&#x2276;" 
d="M103 489l480 143v-37l-372 -106l373 -104v-37zM593 300l-481 -143v37l373 106l-372 104v38z" />
    <glyph glyph-name="uni2277" unicode="&#x2277;" 
d="M590 489l-481 -141v37l373 104l-372 106v37zM100 300l480 142v-38l-372 -104l373 -106v-37z" />
    <glyph glyph-name="uni2279" unicode="&#x2279;" 
d="M590 486l-224 -66l-12 -47l226 66v-37l-237 -66l-19 -72l257 -73v-37l-265 79l-35 -130l-37 10l36 130l-180 54l212 63l13 48l-216 -63v37l227 63l20 77l-246 70v37l254 -75l31 111l35 -11l-30 -111zM376 457l106 29l-91 26zM302 324l-94 -27l80 -22z" />
    <glyph glyph-name="uni227A" unicode="&#x227a;" 
d="M64 398q153 33 290 91q110 48 189 111l12 -35q-65 -53 -184 -107q-100 -44 -173 -60q75 -17 167 -59q115 -53 190 -109l-12 -35q-75 57 -190 111q-140 64 -289 92z" />
    <glyph glyph-name="uni227B" unicode="&#x227b;" 
d="M601 398q-149 -28 -289 -92q-115 -54 -190 -111l-12 35q75 56 190 109q92 42 167 59q-73 16 -173 60q-119 54 -184 107l12 35q79 -63 189 -111q137 -58 290 -91z" />
    <glyph glyph-name="uni2280" unicode="&#x2280;" 
d="M64 401q153 33 288 90l68 192l33 -14l-56 -157q79 38 146 91l12 -35q-62 -51 -175 -102l-40 -114l25 -10q115 -53 190 -109l-12 -35q-75 57 -190 111q-14 6 -25 11l-65 -186l-32 13l66 187q-109 43 -233 67zM336 447q-77 -33 -138 -46q48 -11 111 -35z" />
    <glyph glyph-name="uni2281" unicode="&#x2281;" 
d="M601 401q-146 -28 -282 -88l-63 -179l-33 13l52 143q-87 -42 -153 -92l-12 35q73 54 181 104l39 109q-17 6 -36 15q-119 54 -184 107l12 35q79 -63 189 -111q17 -7 31 -13l71 204l33 -14l-72 -203q104 -39 227 -65zM335 357q71 30 132 44q-44 9 -105 33z" />
    <glyph glyph-name="propersubset" unicode="&#x2282;" 
d="M56 400q0 87 61 150q68 73 185 73h332v-49h-338q-83 0 -134 -48q-48 -44 -53 -106q-3 -21 0 -41q5 -61 53 -106q51 -47 134 -47h338v-49h-332q-117 0 -185 72q-61 63 -61 151z" />
    <glyph glyph-name="propersuperset" unicode="&#x2283;" 
d="M658 400q0 -88 -62 -151q-69 -72 -187 -72h-329v49h336q83 0 133 47q50 45 54 106q2 20 0 41q-4 62 -54 106q-50 48 -133 48h-336v49h329q118 0 187 -73q62 -63 62 -150z" />
    <glyph glyph-name="notsubset" unicode="&#x2284;" 
d="M54 400q0 89 62 153q69 72 187 72h333v-53h-340q-82 0 -133 -48q-47 -43 -52 -103q-3 -22 0 -42q5 -59 52 -103q51 -48 133 -48h340v-53h-333q-118 0 -187 72q-62 64 -62 153zM225 91l237 617h39l-235 -617h-41z" />
    <glyph glyph-name="uni2285" unicode="&#x2285;" 
d="M660 400q0 -89 -63 -153q-70 -72 -188 -72h-331v53h338q83 0 133 48q48 44 53 103q3 20 0 42q-5 60 -53 103q-50 48 -133 48h-338v53h331q118 0 188 -72q63 -64 63 -153zM186 91l237 617h39l-235 -617h-41z" />
    <glyph glyph-name="reflexsubset" unicode="&#x2286;" 
d="M62 195h591v-50h-591v50zM60 460q0 83 60 135q67 59 182 59h336v-50h-336q-94 0 -144 -45q-43 -40 -43 -99q0 -58 43 -99q49 -43 144 -43h336v-50h-336q-116 0 -182 58q-60 52 -60 134z" />
    <glyph glyph-name="reflexsuperset" unicode="&#x2287;" 
d="M657 195v-50h-592v50h592zM659 460q0 -82 -62 -134q-65 -58 -183 -58h-333v50h334q94 0 145 43q44 41 44 99q0 59 -44 99q-51 45 -145 45h-334v50h333q117 0 183 -59q62 -52 62 -135z" />
    <glyph glyph-name="uni228A" unicode="&#x228a;" 
d="M106 296h241l13 47h-60q-92 0 -145 47q-51 43 -51 107q0 65 51 109q54 48 149 48h273v-50h-270q-76 0 -115 -35q-33 -30 -33 -72q0 -40 33 -70q39 -34 115 -34h270v-50h-170l-13 -47h195v-52h-209l-16 -53h225v-52h-238l-20 -76l-43 8l18 68h-200v52h214l14 53h-228v52z
" />
    <glyph glyph-name="uni228B" unicode="&#x228b;" 
d="M592 296v-52h-228l15 -53h213v-52h-200l19 -68l-44 -8l-20 76h-238v52h225l-15 53h-210v52h196l-13 47h-171v50h271q75 0 114 34q33 30 33 70q0 42 -33 72q-39 35 -114 35h-271v50h273q94 0 150 -48q50 -44 50 -109q0 -64 -50 -107q-55 -47 -146 -47h-59l13 -47h240z" />
    <glyph glyph-name="circleplus" unicode="&#x2295;" 
d="M106 396h234v231h34v-231h232v-35h-232v-229h-34v229h-234v35zM355 686q65 0 122 -24t100 -64q42 -41 67.5 -95.5t27.5 -115.5q3 -64 -21 -122t-67 -102t-102 -70t-127 -25q-64 0 -120.5 25t-98.5 66q-42 42 -67 98t-25 119q-1 63 24 119t67 99q43 41 99.5 66t120.5 26z
M356 649q-57 0 -107.5 -22.5t-87.5 -60.5q-38 -38 -59 -87.5t-20 -102.5q0 -56 21.5 -105t58.5 -86q36 -36 85.5 -57.5t105.5 -22.5q60 -1 112.5 20.5t90.5 60.5q38 38 58.5 89.5t19.5 108.5q-2 52 -23 100.5t-59 84.5q-37 37 -87.5 58.5t-108.5 21.5z" />
    <glyph glyph-name="uni2296" unicode="&#x2296;" 
d="M107 394h499v-35h-499v35zM355 686q65 0 122 -24t100 -64q42 -41 67.5 -95.5t27.5 -115.5q3 -64 -21 -122t-67 -102t-102 -70t-127 -25q-64 0 -120.5 25t-98.5 66q-42 42 -67 98t-25 119q-1 63 24 119t67 99q43 41 99.5 66t120.5 26zM356 649q-57 0 -107.5 -22.5
t-87.5 -60.5q-38 -38 -59 -87.5t-20 -102.5q0 -56 21.5 -105t58.5 -86q36 -36 85.5 -57.5t105.5 -22.5q60 -1 112.5 20.5t90.5 60.5q38 38 58.5 89.5t19.5 108.5q-2 52 -23 100.5t-59 84.5q-37 37 -87.5 58.5t-108.5 21.5z" />
    <glyph glyph-name="circlemultiply" unicode="&#x2297;" 
d="M167 215l165 163l-163 163l25 25l162 -163l163 164l26 -25l-164 -164l166 -163l-26 -26l-165 164l-163 -165zM355 686q65 0 122 -24t100 -64q42 -41 67.5 -95.5t27.5 -115.5q3 -64 -21 -122t-67 -102t-102 -70t-127 -25q-64 0 -120.5 25t-98.5 66q-42 42 -67 98t-25 119
q-1 63 24 119t67 99q43 41 99.5 66t120.5 26zM356 649q-57 0 -107.5 -22.5t-87.5 -60.5q-38 -38 -59 -87.5t-20 -102.5q0 -56 21.5 -105t58.5 -86q36 -36 85.5 -57.5t105.5 -22.5q60 -1 112.5 20.5t90.5 60.5q38 38 58.5 89.5t19.5 108.5q-2 52 -23 100.5t-59 84.5
q-37 37 -87.5 58.5t-108.5 21.5z" />
    <glyph glyph-name="uni2299" unicode="&#x2299;" 
d="M354 231q-62 0 -105.5 43t-43.5 105q0 59 43.5 102t105.5 43q60 0 104 -43t44 -102q0 -62 -44 -105t-104 -43zM354 71q-130 0 -221.5 90t-91.5 218q0 127 91.5 217t221.5 90q129 0 220.5 -90t91.5 -217q0 -128 -91.5 -218t-220.5 -90zM354 646q-114 0 -194 -79t-80 -188
q0 -111 80 -189.5t194 -78.5q112 0 192 78.5t80 189.5q0 109 -80 188t-192 79z" />
    <glyph glyph-name="uni22A3" unicode="&#x22a3;" 
d="M507 663h54v-538h-54v245h-409v47h409v246z" />
    <glyph glyph-name="uni22A4" unicode="&#x22a4;" 
d="M622 559h-243v-436h-51v436h-242v49h536v-49z" />
    <glyph glyph-name="perpendicular" unicode="&#x22a5;" 
d="M86 170h242v436h51v-436h241v-45h-534v45z" />
    <glyph glyph-name="uni22BB" unicode="&#x22bb;" 
d="M564 627l-211 -397l-207 395l34 16l173 -334l175 334zM111 209h482v-35h-482v35z" />
    <glyph glyph-name="uni22BC" unicode="&#x22bc;" 
d="M144 182l211 397l207 -395l-34 -16l-173 334l-175 -334zM598 600h-482v35h482v-35z" />
    <glyph glyph-name="uni22D7" unicode="&#x22d7;" 
d="M354 690q33 -153 91 -290q48 -110 111 -189l-35 -12q-53 65 -107 184q-44 100 -60 173q-17 -75 -59 -167q-53 -115 -109 -190l-35 12q57 75 111 190q64 140 92 289z" />
    <glyph glyph-name="uni22D8" unicode="&#x22d8;" 
d="M355 132q-34 153 -92 290q-48 110 -111 189l35 12q53 -65 107 -184q44 -100 61 -173q16 75 58 167q53 115 109 190l35 -12q-57 -75 -111 -190q-63 -140 -91 -289z" />
    <glyph glyph-name="uni22E3" unicode="&#x22e3;" 
d="M114 412h471v-32h-471v32zM103 571l481 143v-37l-373 -106l373 -105v-37zM594 216l-482 -143v36l373 107l-372 105v37z" />
    <glyph glyph-name="uni22E4" unicode="&#x22e4;" 
d="M590 412v-32h-472v32h472zM600 571l-481 -142v37l373 105l-372 106v37zM110 216l480 142v-37l-372 -105l373 -107v-36z" />
    <glyph glyph-name="uni22EE" unicode="&#x22ee;" 
d="M326 183q22 32 61 8q42 -28 40 -63q0 -10 -15 -9q-43 0 -84 44q-6 11 -2 20zM326 420q22 32 61 8q42 -28 40 -63q0 -10 -15 -9q-43 0 -84 44q-6 11 -2 20zM326 659q22 32 61 8q42 -28 40 -63q0 -10 -15 -9q-43 0 -84 44q-6 11 -2 20z" />
    <glyph glyph-name="uni22EF" unicode="&#x22ef;" 
d="M153 474q32 -22 8 -61q-28 -42 -63 -40q-10 0 -9 15q0 43 44 84q11 6 20 2zM390 474q32 -22 8 -61q-28 -42 -63 -40q-10 0 -9 15q0 43 44 84q11 6 20 2zM629 474q32 -22 8 -61q-28 -42 -63 -40q-10 0 -9 15q0 43 44 84q11 6 20 2z" />
    <glyph glyph-name="uni2306" unicode="&#x2306;" 
d="M143 131l210 397l208 -395l-34 -16l-174 334l-174 -334zM594 565h-482v35h482v-35zM594 662h-482v35h482v-35z" />
    <glyph glyph-name="uni2312" unicode="&#x2312;" 
d="M94 503q19 89 94 144t179 55q99 0 174.5 -55t95.5 -144h-52q-13 69 -76.5 112t-142.5 43q-81 0 -143 -42.5t-79 -112.5h-50z" />
    <glyph glyph-name="uni2314" unicode="&#x2314;" 
d="M545 563q-66 51 -191 51q-111 0 -191 -52l191 -337zM118 573q109 74 236 74q139 0 236 -74l-236 -411z" />
    <glyph glyph-name="uni2460" unicode="&#x2460;" 
d="M317 380q13 73 33 135h-16q-22 0 -10 22q28 42 71 48q21 -15 23 -44q-25 -49 -51 -139q-19 -66 -39 -183q-8 -41 -19 -17q-6 17 -7 43q4 72 15 135zM331 692l9 2q26 8 64 2q116 -22 181 -80q107 -98 107 -238q-1 -136 -104 -232q-109 -94 -244 -94q-69 2 -129.5 29
t-104.5 73q-45 45 -70.5 105.5t-23.5 128.5q0 137 96 235q75 77 192 95q18 -9 27 -26zM336 662q-104 -12 -182 -83q-81 -76 -83 -193q-1 -57 16 -108t55 -90q38 -41 90.5 -65t113.5 -26q119 3 208 81q89 88 89 198q-1 128 -82 205q-88 76 -225 81z" />
    <glyph glyph-name="uni2461" unicode="&#x2461;" 
d="M438 264q-120 -17 -230 -63q-13 17 -18 46q212 175 234 286q2 13 -12 17q-65 -4 -126 -79q-37 5 -59 21q85 101 192 89q40 -14 49 -45q-18 -123 -186 -260q113 26 219 17q23 -2 0 -17q-27 -16 -63 -12zM331 692l9 2q26 8 64 2q116 -22 181 -80q107 -98 107 -238
q-1 -136 -104 -232q-109 -94 -244 -94q-69 2 -129.5 29t-104.5 73q-45 45 -70.5 105.5t-23.5 128.5q0 137 96 235q75 77 192 95q18 -9 27 -26zM336 662q-104 -12 -182 -83q-81 -76 -83 -193q-1 -57 16 -108t55 -90q38 -41 90.5 -65t113.5 -26q119 3 208 81q89 88 89 198
q-1 128 -82 205q-88 76 -225 81z" />
    <glyph glyph-name="uni2462" unicode="&#x2462;" 
d="M367 418q71 12 113 -11q31 -20 31 -54q-33 -67 -93 -117q-61 -53 -134 -86q-24 -12 -51 -10q-34 3 -16 13q100 47 164 106q63 56 82 118q-79 19 -201 -33q-17 17 -10 38q30 14 52 26q107 84 132 179q-55 9 -138 -67q-34 6 -45 34q115 89 192 67q34 -15 41 -52
q-30 -83 -119 -151zM331 692l9 2q26 8 64 2q116 -22 181 -80q107 -98 107 -238q-1 -136 -104 -232q-109 -94 -244 -94q-69 2 -129.5 29t-104.5 73q-45 45 -70.5 105.5t-23.5 128.5q0 137 96 235q75 77 192 95q18 -9 27 -26zM336 662q-104 -12 -182 -83q-81 -76 -83 -193
q-1 -57 16 -108t55 -90q38 -41 90.5 -65t113.5 -26q119 3 208 81q89 88 89 198q-1 128 -82 205q-88 76 -225 81z" />
    <glyph glyph-name="uni2463" unicode="&#x2463;" 
d="M359 366h2q19 120 59 247q32 -4 46 -27q-37 -104 -61 -212q85 13 115 4q17 -9 -17 -17q-52 -11 -106 -24q-21 -104 -31 -212q-2 -24 -15 -1q-7 14 -7 56q1 72 11 147q-66 -18 -141 -40q-22 8 -38 32q46 136 147 265q31 1 52 -17q-104 -120 -156 -233q75 21 140 32z
M331 692l9 2q26 8 64 2q116 -22 181 -80q107 -98 107 -238q-1 -136 -104 -232q-109 -94 -244 -94q-69 2 -129.5 29t-104.5 73q-45 45 -70.5 105.5t-23.5 128.5q0 137 96 235q75 77 192 95q18 -9 27 -26zM336 662q-104 -12 -182 -83q-81 -76 -83 -193q-1 -57 16 -108t55 -90
q38 -41 90.5 -65t113.5 -26q119 3 208 81q89 88 89 198q-1 128 -82 205q-88 76 -225 81z" />
    <glyph glyph-name="uni2464" unicode="&#x2464;" 
d="M248 150q-27 2 -4 13q71 36 113 78q58 58 71 129q-80 -13 -171 -59q-29 8 -37 37q14 75 39 142q-24 -10 -50 -23q-14 24 -10 50q43 16 82 28q19 39 41 76q35 7 59 -13q-16 -22 -30 -45q102 24 179 15q19 -3 1 -17q-19 -15 -46 -12q-59 -3 -133 -24q-14 -4 -30 -10
q-42 -78 -56 -152q92 43 172 43q31 -21 35 -58q-12 -68 -80 -130q-45 -41 -110 -63q-16 -7 -35 -5zM331 692l9 2q26 8 64 2q116 -22 181 -80q107 -98 107 -238q-1 -136 -104 -232q-109 -94 -244 -94q-69 2 -129.5 29t-104.5 73q-45 45 -70.5 105.5t-23.5 128.5q0 137 96 235
q75 77 192 95q18 -9 27 -26zM336 662q-104 -12 -182 -83q-81 -76 -83 -193q-1 -57 16 -108t55 -90q38 -41 90.5 -65t113.5 -26q119 3 208 81q89 88 89 198q-1 128 -82 205q-88 76 -225 81z" />
    <glyph glyph-name="uni2465" unicode="&#x2465;" 
d="M331 692l9 2q26 8 64 2q116 -22 181 -80q107 -98 107 -238q-1 -136 -104 -232q-109 -94 -244 -94q-69 2 -129.5 29t-104.5 73q-45 45 -70.5 105.5t-23.5 128.5q0 137 96 235q75 77 192 95q18 -9 27 -26zM336 662q-104 -12 -182 -83q-81 -76 -83 -193q-1 -57 16 -108
t55 -90q38 -41 90.5 -65t113.5 -26q119 3 208 81q89 88 89 198q-1 128 -82 205q-88 76 -225 81zM263 290q-12 -67 -2 -105q123 40 165 137q9 21 -1 33q-23 26 -150 -13q-7 -26 -12 -52zM222 325q-33 -7 -4 26q6 7 14 13q40 133 144 255q36 8 50 -11q-93 -107 -136 -219
q143 44 181 -21q18 -31 -6 -80q-45 -93 -197 -148q-50 13 -60 74q2 56 14 111z" />
    <glyph glyph-name="uni2466" unicode="&#x2466;" 
d="M309 544q73 34 135 36q32 -18 46 -53q-15 -92 -43 -173q-36 -108 -86 -201q-9 -14 -23 -23q-23 -14 -13 14q39 96 63 175q34 115 50 228q-70 -12 -157 -70q-16 -49 -26 -106q-7 -36 -18 -3q-6 22 -5 46q4 114 57 199q27 -7 45 -25q-14 -21 -25 -44zM331 692l9 2
q26 8 64 2q116 -22 181 -80q107 -98 107 -238q-1 -136 -104 -232q-109 -94 -244 -94q-69 2 -129.5 29t-104.5 73q-45 45 -70.5 105.5t-23.5 128.5q0 137 96 235q75 77 192 95q18 -9 27 -26zM336 662q-104 -12 -182 -83q-81 -76 -83 -193q-1 -57 16 -108t55 -90
q38 -41 90.5 -65t113.5 -26q119 3 208 81q89 88 89 198q-1 128 -82 205q-88 76 -225 81z" />
    <glyph glyph-name="uni2467" unicode="&#x2467;" 
d="M301 380q-23 11 -40 38q-18 36 -8 87q17 73 85 100q53 17 95 -2q16 -12 24 -31q4 3 7 6q27 15 47 15q21 -1 9 -11q-16 -14 -35 -33q-60 -60 -130 -165q19 -10 41 -17q18 -7 34 -12q44 -13 46 -58q2 -19 -5 -37q-19 -50 -75.5 -92.5t-118.5 -36.5q-54 19 -67 67
q30 83 91 182zM439 556q-61 19 -108 -21q-35 -29 -34 -77q0 -16 7 -28.5t16 -20.5q62 94 119 147zM339 359q-51 -80 -70 -161q-6 -24 5 -26q45 -3 91 35.5t62 81.5q9 31 -5 36q-45 15 -83 34zM331 692l9 2q26 8 64 2q116 -22 181 -80q107 -98 107 -238q-1 -136 -104 -232
q-109 -94 -244 -94q-69 2 -129.5 29t-104.5 73q-45 45 -70.5 105.5t-23.5 128.5q0 137 96 235q75 77 192 95q18 -9 27 -26zM336 662q-104 -12 -182 -83q-81 -76 -83 -193q-1 -57 16 -108t55 -90q38 -41 90.5 -65t113.5 -26q119 3 208 81q89 88 89 198q-1 128 -82 205
q-88 76 -225 81z" />
    <glyph glyph-name="uni2468" unicode="&#x2468;" 
d="M369 392q-64 -42 -134 -46q-30 11 -41 45q3 73 53 131q54 62 116 78q31 -14 41 -34q-142 -54 -176 -175q56 0 105 23q30 15 52 33q26 82 58 155q32 4 56 -10q-50 -108 -85 -218q-35 -108 -58 -225q-7 -37 -19 -14q-8 17 -6 45q7 94 33 192q3 10 5 20zM331 692l9 2
q26 8 64 2q116 -22 181 -80q107 -98 107 -238q-1 -136 -104 -232q-109 -94 -244 -94q-69 2 -129.5 29t-104.5 73q-45 45 -70.5 105.5t-23.5 128.5q0 137 96 235q75 77 192 95q18 -9 27 -26zM336 662q-104 -12 -182 -83q-81 -76 -83 -193q-1 -57 16 -108t55 -90
q38 -41 90.5 -65t113.5 -26q119 3 208 81q89 88 89 198q-1 128 -82 205q-88 76 -225 81z" />
    <glyph glyph-name="uni2469" unicode="&#x2469;" 
d="M212 380q13 73 33 135h-16q-22 0 -10 22q28 42 71 48q20 -15 22 -44q-26 -49 -51 -139q-19 -66 -38 -183q-8 -41 -19 -17q-6 17 -7 43q4 72 15 135zM484 499q17 -3 32 -11q51 -50 35 -118q-21 -76 -91 -116q-55 -27 -99 -11q-36 19 -42 66q-8 87 63 166q36 38 65 48
q27 -8 37 -24zM471 482q-19 -7 -38 -25q-74 -69 -70 -155q0 -21 17 -28q70 6 107 75q43 91 -16 133zM331 692l9 2q26 8 64 2q116 -22 181 -80q107 -98 107 -238q-1 -136 -104 -232q-109 -94 -244 -94q-69 2 -129.5 29t-104.5 73q-45 45 -70.5 105.5t-23.5 128.5
q0 137 96 235q75 77 192 95q18 -9 27 -26zM336 662q-104 -12 -182 -83q-81 -76 -83 -193q-1 -57 16 -108t55 -90q38 -41 90.5 -65t113.5 -26q119 3 208 81q89 88 89 198q-1 128 -82 205q-88 76 -225 81z" />
    <glyph glyph-name="uni246A" unicode="&#x246a;" 
d="M222 380q13 73 33 135h-16q-22 0 -10 22q28 42 71 48q20 -15 22 -44q-26 -49 -51 -139q-19 -66 -38 -183q-8 -41 -19 -17q-6 17 -7 43q4 72 15 135zM403 380q13 73 33 135h-16q-22 0 -10 22q28 42 71 48q20 -15 22 -44q-26 -49 -51 -139q-19 -66 -38 -183q-8 -41 -19 -17
q-6 17 -7 43q4 72 15 135zM331 692l9 2q26 8 64 2q116 -22 181 -80q107 -98 107 -238q-1 -136 -104 -232q-109 -94 -244 -94q-69 2 -129.5 29t-104.5 73q-45 45 -70.5 105.5t-23.5 128.5q0 137 96 235q75 77 192 95q18 -9 27 -26zM336 662q-104 -12 -182 -83
q-81 -76 -83 -193q-1 -57 16 -108t55 -90q38 -41 90.5 -65t113.5 -26q119 3 208 81q89 88 89 198q-1 128 -82 205q-88 76 -225 81z" />
    <glyph glyph-name="uni246B" unicode="&#x246b;" 
d="M496 275q-94 -15 -185 -58q-11 18 -16 46q171 156 189 255q1 11 -8 14q-52 -4 -100 -71q-32 4 -52 20q71 93 158 83q33 -14 41 -43q-15 -112 -144 -229q83 21 169 13q26 -3 1 -19q-20 -12 -53 -11zM212 380q13 73 33 135h-16q-22 0 -10 22q28 42 71 48q20 -15 22 -44
q-26 -49 -51 -139q-19 -66 -38 -183q-8 -41 -19 -17q-6 17 -7 43q4 72 15 135zM331 692l9 2q26 8 64 2q116 -22 181 -80q107 -98 107 -238q-1 -136 -104 -232q-109 -94 -244 -94q-69 2 -129.5 29t-104.5 73q-45 45 -70.5 105.5t-23.5 128.5q0 137 96 235q75 77 192 95
q18 -9 27 -26zM336 662q-104 -12 -182 -83q-81 -76 -83 -193q-1 -57 16 -108t55 -90q38 -41 90.5 -65t113.5 -26q119 3 208 81q89 88 89 198q-1 128 -82 205q-88 76 -225 81z" />
    <glyph glyph-name="uni246C" unicode="&#x246c;" 
d="M435 417q50 10 84 -11q26 -19 26 -50q-26 -61 -75 -106q-48 -49 -107 -78q-20 -11 -41 -9q-34 4 -14 15q80 43 130 95q50 50 65 104q-61 15 -158 -31q-16 17 -10 36q25 14 42 25q84 74 104 157q-41 8 -106 -60q-31 5 -39 33q93 81 155 62q29 -15 34 -49q-24 -76 -90 -133
zM212 380q13 73 33 135h-16q-22 0 -10 22q28 42 71 48q20 -15 22 -44q-26 -49 -51 -139q-19 -66 -38 -183q-8 -41 -19 -17q-6 17 -7 43q4 72 15 135zM331 692l9 2q26 8 64 2q116 -22 181 -80q107 -98 107 -238q-1 -136 -104 -232q-109 -94 -244 -94q-69 2 -129.5 29
t-104.5 73q-45 45 -70.5 105.5t-23.5 128.5q0 137 96 235q75 77 192 95q18 -9 27 -26zM336 662q-104 -12 -182 -83q-81 -76 -83 -193q-1 -57 16 -108t55 -90q38 -41 90.5 -65t113.5 -26q119 3 208 81q89 88 89 198q-1 128 -82 205q-88 76 -225 81z" />
    <glyph glyph-name="uni246D" unicode="&#x246d;" 
d="M448 383h1q15 96 47 199q30 -5 44 -26q-29 -81 -49 -165q65 9 89 1q23 -12 -13 -19q-42 -8 -84 -19q-17 -82 -25 -168q-3 -32 -18 -2q-5 13 -5 48q1 55 8 112q-50 -13 -110 -32q-18 8 -34 29q39 111 120 218q28 0 49 -18q-85 -99 -123 -181q52 14 103 23zM212 380
q13 73 33 135h-16q-22 0 -10 22q28 42 71 48q20 -15 22 -44q-26 -49 -51 -139q-19 -66 -38 -183q-8 -41 -19 -17q-6 17 -7 43q4 72 15 135zM331 692l9 2q26 8 64 2q116 -22 181 -80q107 -98 107 -238q-1 -136 -104 -232q-109 -94 -244 -94q-69 2 -129.5 29t-104.5 73
q-45 45 -70.5 105.5t-23.5 128.5q0 137 96 235q75 77 192 95q18 -9 27 -26zM336 662q-104 -12 -182 -83q-81 -76 -83 -193q-1 -57 16 -108t55 -90q38 -41 90.5 -65t113.5 -26q119 3 208 81q89 88 89 198q-1 128 -82 205q-88 76 -225 81z" />
    <glyph glyph-name="uni246E" unicode="&#x246e;" 
d="M344 162q-26 3 -4 16q56 32 90 69q45 52 55 113q-60 -12 -134 -53q-25 7 -32 35q11 65 30 123q-10 -5 -21 -11q-12 27 -2 50q22 9 43 16q15 36 33 69q30 6 50 -14q-12 -18 -22 -37q64 15 129 10q19 -2 1 -18q-17 -13 -37 -12q-40 -1 -95 -19q-11 -4 -23 -9
q-33 -68 -44 -130q71 36 135 36q26 -19 29 -54q-10 -62 -65 -118q-35 -38 -87 -57q-14 -7 -29 -5zM212 380q13 73 33 135h-16q-22 0 -10 22q28 42 71 48q20 -15 22 -44q-26 -49 -51 -139q-19 -66 -38 -183q-8 -41 -19 -17q-6 17 -7 43q4 72 15 135zM331 692l9 2q26 8 64 2
q116 -22 181 -80q107 -98 107 -238q-1 -136 -104 -232q-109 -94 -244 -94q-69 2 -129.5 29t-104.5 73q-45 45 -70.5 105.5t-23.5 128.5q0 137 96 235q75 77 192 95q18 -9 27 -26zM336 662q-104 -12 -182 -83q-81 -76 -83 -193q-1 -57 16 -108t55 -90q38 -41 90.5 -65
t113.5 -26q119 3 208 81q89 88 89 198q-1 128 -82 205q-88 76 -225 81z" />
    <glyph glyph-name="uni246F" unicode="&#x246f;" 
d="M508 208q-32 -32 -82 -32q-55 0 -88 48.5t-33 148.5q0 101 38 157q33 51 89 51q47 0 75.5 -28.5t32.5 -72.5h-47q-5 26 -18 40q-18 20 -46 17q-22 -2 -38 -20q-24 -25 -31.5 -63.5t-7.5 -70.5q6 23 29.5 41.5t53.5 18.5q51 0 81.5 -37.5t30.5 -97.5t-39 -100zM360 310
q0 -29 9.5 -49t25.5 -32q14 -10 34 -10q28 0 49.5 24.5t21.5 66.5q0 43 -20.5 65t-53.5 22q-24 0 -45 -24t-21 -63zM682 388q0 -67 -26 -125.5t-71 -102.5q-44 -42 -104 -68t-127 -26q-69 0 -129 26t-104 68q-44 44 -70 102.5t-26 125.5t26 125t70 103q44 42 104 68t129 26
q67 0 127 -26t104 -68q45 -45 71 -103.5t26 -124.5zM639 388q0 56 -22.5 108t-61.5 90q-40 39 -92 61t-109 22q-59 0 -111 -22t-92 -61q-39 -38 -61 -90t-22 -108q0 -58 22 -109.5t62 -89.5q39 -39 91 -61.5t111 -22.5q57 0 109 22.5t92 61.5q39 38 61.5 89.5t22.5 109.5z
M258 190h-49v297q-29 -28 -66 -45v50q56 28 79 83h36v-385z" />
    <glyph glyph-name="uni2470" unicode="&#x2470;" 
d="M682 388q0 -67 -26 -125.5t-71 -102.5q-44 -42 -104 -68t-127 -26q-69 0 -129 26t-104 68q-44 44 -70 102.5t-26 125.5t26 125t70 103q44 42 104 68t129 26q67 0 127 -26t104 -68q45 -45 71 -103.5t26 -124.5zM639 388q0 56 -22.5 108t-61.5 90q-40 39 -92 61t-109 22
q-59 0 -111 -22t-92 -61q-39 -38 -61 -90t-22 -108q0 -58 22 -109.5t62 -89.5q39 -39 91 -61.5t111 -22.5q57 0 109 22.5t92 61.5q39 38 61.5 89.5t22.5 109.5zM305 524v47h215v-43l-128 -339h-50l124 335h-161zM258 190h-49v297q-29 -28 -66 -45v50q56 28 79 83h36v-385z
" />
    <glyph glyph-name="uni2471" unicode="&#x2471;" 
d="M376 429q9 -9 21 -13.5t22 -4.5q9 0 21.5 5t19.5 13q10 9 14.5 22t4.5 24q0 14 -4 25t-14 19q-7 10 -18.5 14t-23.5 4q-13 0 -24.5 -4t-19.5 -14q-9 -8 -13 -18.5t-4 -25.5q0 -11 4.5 -24t13.5 -22zM529 475q0 -23 -9.5 -40t-24.5 -32q-11 -11 -17 -14q22 -7 41 -29
q23 -30 23 -68q0 -48 -34 -81t-89 -33q-56 0 -89.5 33t-33.5 81q0 38 22 68q20 22 41 29q-6 3 -17 14q-15 15 -23.5 33.5t-8.5 38.5q0 22 9 42t23 34q13 13 34 21t44 8q22 0 42 -8t33 -21q15 -14 24.5 -34t9.5 -42zM419 220q31 0 52 21q22 19 22 53q0 33 -22 55
q-21 23 -52 23q-32 0 -53 -23q-20 -22 -20 -55t20 -53q20 -21 53 -21zM682 388q0 -67 -26 -125.5t-71 -102.5q-44 -42 -104 -68t-127 -26q-69 0 -129 26t-104 68q-44 44 -70 102.5t-26 125.5t26 125t70 103q44 42 104 68t129 26q67 0 127 -26t104 -68q45 -45 71 -103.5
t26 -124.5zM639 388q0 56 -22.5 108t-61.5 90q-40 39 -92 61t-109 22q-59 0 -111 -22t-92 -61q-39 -38 -61 -90t-22 -108q0 -58 22 -109.5t62 -89.5q39 -39 91 -61.5t111 -22.5q57 0 109 22.5t92 61.5q39 38 61.5 89.5t22.5 109.5zM257 190h-48v297q-29 -28 -66 -45v50
q56 28 79 83h35v-385z" />
    <glyph glyph-name="uni2472" unicode="&#x2472;" 
d="M344 548q31 32 82 32q55 0 89.5 -45t34.5 -144q0 -98 -37 -158q-32 -50 -93 -50q-49 0 -76.5 28t-31.5 71h47q5 -27 19 -39q17 -19 45 -17q26 3 42 21q22 23 30 65.5t8 58.5q-5 -11 -34 -27.5t-54 -16.5q-50 0 -78.5 34t-28.5 93q0 55 36 94zM493 452q-1 28 -10.5 45.5
t-26.5 30.5q-13 9 -35 9q-26 0 -45.5 -22t-19.5 -64q0 -41 18 -60t50 -19q25 0 47 21t22 59zM682 388q0 -67 -26 -125.5t-71 -102.5q-44 -42 -104 -68t-127 -26q-69 0 -129 26t-104 68q-44 44 -70 102.5t-26 125.5t26 125t70 103q44 42 104 68t129 26q67 0 127 -26t104 -68
q45 -45 71 -103.5t26 -124.5zM639 388q0 56 -22.5 108t-61.5 90q-40 39 -92 61t-109 22q-59 0 -111 -22t-92 -61q-39 -38 -61 -90t-22 -108q0 -58 22 -109.5t62 -89.5q39 -39 91 -61.5t111 -22.5q57 0 109 22.5t92 61.5q39 38 61.5 89.5t22.5 109.5zM257 190h-48v297
q-29 -28 -66 -45v50q56 28 79 83h35v-385z" />
    <glyph glyph-name="uni2473" unicode="&#x2473;" 
d="M568 385q0 -42 -6 -79.5t-19 -64.5t-32 -41t-38 -14t-38 13.5t-33 40.5q-12 27 -18.5 65t-6.5 80q0 40 6.5 77.5t18.5 65.5q14 27 33 41t38 14t38 -14t32 -41q13 -28 19 -65.5t6 -77.5zM518 385q0 30 -2.5 58t-9.5 50q-6 20 -15 31t-20 11t-20 -11t-15 -31q-6 -22 -9 -50
t-3 -58q0 -31 3 -60t9 -50q6 -20 15.5 -31t19.5 -11q12 0 20.5 11t14.5 31q7 22 9.5 50.5t2.5 59.5zM682 388q0 -67 -26 -125.5t-71 -102.5q-44 -42 -104 -68t-127 -26q-69 0 -129 26t-104 68q-44 44 -70 102.5t-26 125.5t26 125t70 103q44 42 104 68t129 26q67 0 127 -26
t104 -68q45 -45 71 -103.5t26 -124.5zM639 388q0 56 -22.5 108t-61.5 90q-40 39 -92 61t-109 22q-59 0 -111 -22t-92 -61q-39 -38 -61 -90t-22 -108q0 -58 22 -109.5t62 -89.5q39 -39 91 -61.5t111 -22.5q57 0 109 22.5t92 61.5q39 38 61.5 89.5t22.5 109.5zM292 521
q-16 19 -36 19q-23 0 -37 -24t-14 -64h-45q0 58 27 95t69 37q46 0 71 -34q23 -29 22 -78q0 -40 -28 -86q-63 -90 -100 -141h128v-45h-181v45q69 88 114 159q22 36 22 65q0 36 -12 52z" />
    <glyph glyph-name="uni2474" unicode="&#x2474;" 
d="M133 688q29 -13 35 -45q4 -17 -7 -31q-78 -94 -88 -264q-8 -132 70 -248q7 -12 -18 -3q-10 5 -19 14q-79 84 -81 230q2 219 108 347zM575 89q-26 11 -35 35q-6 19 7 31q78 94 88 274q8 132 -70 248q-7 10 18 3q10 -5 19 -14q80 -84 81 -230q-2 -219 -108 -347zM317 380
q13 73 33 135h-16q-22 0 -10 22q28 42 71 48q21 -15 23 -44q-25 -49 -51 -139q-19 -66 -39 -183q-8 -41 -19 -17q-6 17 -7 43q4 72 15 135z" />
    <glyph glyph-name="uni2475" unicode="&#x2475;" 
d="M438 264q-120 -17 -230 -63q-13 17 -18 46q212 175 234 286q2 13 -12 17q-65 -4 -126 -79q-37 5 -59 21q85 101 192 89q40 -14 49 -45q-18 -123 -186 -260q113 26 219 17q23 -2 0 -17q-27 -16 -63 -12zM133 688q29 -13 35 -45q4 -17 -7 -31q-78 -94 -88 -264
q-8 -132 70 -248q7 -12 -18 -3q-10 5 -19 14q-79 84 -81 230q2 219 108 347zM575 89q-26 11 -35 35q-6 19 7 31q78 94 88 274q8 132 -70 248q-7 10 18 3q10 -5 19 -14q80 -84 81 -230q-2 -219 -108 -347z" />
    <glyph glyph-name="uni2476" unicode="&#x2476;" 
d="M367 418q71 12 113 -11q31 -20 31 -54q-33 -67 -93 -117q-61 -53 -134 -86q-24 -12 -51 -10q-34 3 -16 13q100 47 164 106q63 56 82 118q-79 19 -201 -33q-17 17 -10 38q30 14 52 26q107 84 132 179q-55 9 -138 -67q-34 6 -45 34q115 89 192 67q34 -15 41 -52
q-30 -83 -119 -151zM133 688q29 -13 35 -45q4 -17 -7 -31q-78 -94 -88 -264q-8 -132 70 -248q7 -12 -18 -3q-10 5 -19 14q-79 84 -81 230q2 219 108 347zM575 89q-26 11 -35 35q-6 19 7 31q78 94 88 274q8 132 -70 248q-7 10 18 3q10 -5 19 -14q80 -84 81 -230
q-2 -219 -108 -347z" />
    <glyph glyph-name="uni2477" unicode="&#x2477;" 
d="M359 366h2q19 120 59 247q32 -4 46 -27q-37 -104 -61 -212q85 13 115 4q17 -9 -17 -17q-52 -11 -106 -24q-21 -104 -31 -212q-2 -24 -15 -1q-7 14 -7 56q1 72 11 147q-66 -18 -141 -40q-22 8 -38 32q46 136 147 265q31 1 52 -17q-104 -120 -156 -233q75 21 140 32z
M133 688q29 -13 35 -45q4 -17 -7 -31q-78 -94 -88 -264q-8 -132 70 -248q7 -12 -18 -3q-10 5 -19 14q-79 84 -81 230q2 219 108 347zM575 89q-26 11 -35 35q-6 19 7 31q78 94 88 274q8 132 -70 248q-7 10 18 3q10 -5 19 -14q80 -84 81 -230q-2 -219 -108 -347z" />
    <glyph glyph-name="uni2478" unicode="&#x2478;" 
d="M248 150q-27 2 -4 13q71 36 113 78q58 58 71 129q-80 -13 -171 -59q-29 8 -37 37q14 75 39 142q-24 -10 -50 -23q-14 24 -10 50q43 16 82 28q19 39 41 76q35 7 59 -13q-16 -22 -30 -45q102 24 179 15q19 -3 1 -17q-19 -15 -46 -12q-59 -3 -133 -24q-14 -4 -30 -10
q-42 -78 -56 -152q92 43 172 43q31 -21 35 -58q-12 -68 -80 -130q-45 -41 -110 -63q-16 -7 -35 -5zM133 688q29 -13 35 -45q4 -17 -7 -31q-78 -94 -88 -264q-8 -132 70 -248q7 -12 -18 -3q-10 5 -19 14q-79 84 -81 230q2 219 108 347zM575 89q-26 11 -35 35q-6 19 7 31
q78 94 88 274q8 132 -70 248q-7 10 18 3q10 -5 19 -14q80 -84 81 -230q-2 -219 -108 -347z" />
    <glyph glyph-name="uni2479" unicode="&#x2479;" 
d="M133 688q29 -13 35 -45q4 -17 -7 -31q-78 -94 -88 -264q-8 -132 70 -248q7 -12 -18 -3q-10 5 -19 14q-79 84 -81 230q2 219 108 347zM575 89q-26 11 -35 35q-6 19 7 31q78 94 88 274q8 132 -70 248q-7 10 18 3q10 -5 19 -14q80 -84 81 -230q-2 -219 -108 -347zM263 290
q-12 -67 -2 -105q123 40 165 137q9 21 -1 33q-23 26 -150 -13q-7 -26 -12 -52zM222 325q-33 -7 -4 26q6 7 14 13q40 133 144 255q36 8 50 -11q-93 -107 -136 -219q143 44 181 -21q18 -31 -6 -80q-45 -93 -197 -148q-50 13 -60 74q2 56 14 111z" />
    <glyph glyph-name="uni247A" unicode="&#x247a;" 
d="M309 544q73 34 135 36q32 -18 46 -53q-15 -92 -43 -173q-36 -108 -86 -201q-9 -14 -23 -23q-23 -14 -13 14q39 96 63 175q34 115 50 228q-70 -12 -157 -70q-16 -49 -26 -106q-7 -36 -18 -3q-6 22 -5 46q4 114 57 199q27 -7 45 -25q-14 -21 -25 -44zM133 688
q29 -13 35 -45q4 -17 -7 -31q-78 -94 -88 -264q-8 -132 70 -248q7 -12 -18 -3q-10 5 -19 14q-79 84 -81 230q2 219 108 347zM575 89q-26 11 -35 35q-6 19 7 31q78 94 88 274q8 132 -70 248q-7 10 18 3q10 -5 19 -14q80 -84 81 -230q-2 -219 -108 -347z" />
    <glyph glyph-name="uni247B" unicode="&#x247b;" 
d="M301 380q-23 11 -40 38q-18 36 -8 87q17 73 85 100q53 17 95 -2q16 -12 24 -31q4 3 7 6q27 15 47 15q21 -1 9 -11q-16 -14 -35 -33q-60 -60 -130 -165q19 -10 41 -17q18 -7 34 -12q44 -13 46 -58q2 -19 -5 -37q-19 -50 -75.5 -92.5t-118.5 -36.5q-54 19 -67 67
q30 83 91 182zM439 556q-61 19 -108 -21q-35 -29 -34 -77q0 -16 7 -28.5t16 -20.5q62 94 119 147zM339 359q-51 -80 -70 -161q-6 -24 5 -26q45 -3 91 35.5t62 81.5q9 31 -5 36q-45 15 -83 34zM133 688q29 -13 35 -45q4 -17 -7 -31q-78 -94 -88 -264q-8 -132 70 -248
q7 -12 -18 -3q-10 5 -19 14q-79 84 -81 230q2 219 108 347zM575 89q-26 11 -35 35q-6 19 7 31q78 94 88 274q8 132 -70 248q-7 10 18 3q10 -5 19 -14q80 -84 81 -230q-2 -219 -108 -347z" />
    <glyph glyph-name="uni247C" unicode="&#x247c;" 
d="M369 392q-64 -42 -134 -46q-30 11 -41 45q3 73 53 131q54 62 116 78q31 -14 41 -34q-142 -54 -176 -175q56 0 105 23q30 15 52 33q26 82 58 155q32 4 56 -10q-50 -108 -85 -218q-35 -108 -58 -225q-7 -37 -19 -14q-8 17 -6 45q7 94 33 192q3 10 5 20zM133 688
q29 -13 35 -45q4 -17 -7 -31q-78 -94 -88 -264q-8 -132 70 -248q7 -12 -18 -3q-10 5 -19 14q-79 84 -81 230q2 219 108 347zM575 89q-26 11 -35 35q-6 19 7 31q78 94 88 274q8 132 -70 248q-7 10 18 3q10 -5 19 -14q80 -84 81 -230q-2 -219 -108 -347z" />
    <glyph glyph-name="uni247D" unicode="&#x247d;" 
d="M212 380q13 73 33 135h-16q-22 0 -10 22q28 42 71 48q20 -15 22 -44q-26 -49 -51 -139q-19 -66 -38 -183q-8 -41 -19 -17q-6 17 -7 43q4 72 15 135zM484 499q17 -3 32 -11q51 -50 35 -118q-21 -76 -91 -116q-55 -27 -99 -11q-36 19 -42 66q-8 87 63 166q36 38 65 48
q27 -8 37 -24zM471 482q-19 -7 -38 -25q-74 -69 -70 -155q0 -21 17 -28q70 6 107 75q43 91 -16 133zM133 688q29 -13 35 -45q4 -17 -7 -31q-78 -94 -88 -264q-8 -132 70 -248q7 -12 -18 -3q-10 5 -19 14q-79 84 -81 230q2 219 108 347zM575 89q-26 11 -35 35q-6 19 7 31
q78 94 88 274q8 132 -70 248q-7 10 18 3q10 -5 19 -14q80 -84 81 -230q-2 -219 -108 -347z" />
    <glyph glyph-name="uni247E" unicode="&#x247e;" 
d="M222 380q13 73 33 135h-16q-22 0 -10 22q28 42 71 48q20 -15 22 -44q-26 -49 -51 -139q-19 -66 -38 -183q-8 -41 -19 -17q-6 17 -7 43q4 72 15 135zM403 380q13 73 33 135h-16q-22 0 -10 22q28 42 71 48q20 -15 22 -44q-26 -49 -51 -139q-19 -66 -38 -183q-8 -41 -19 -17
q-6 17 -7 43q4 72 15 135zM133 688q29 -13 35 -45q4 -17 -7 -31q-78 -94 -88 -264q-8 -132 70 -248q7 -12 -18 -3q-10 5 -19 14q-79 84 -81 230q2 219 108 347zM575 89q-26 11 -35 35q-6 19 7 31q78 94 88 274q8 132 -70 248q-7 10 18 3q10 -5 19 -14q80 -84 81 -230
q-2 -219 -108 -347z" />
    <glyph glyph-name="uni247F" unicode="&#x247f;" 
d="M496 275q-94 -15 -185 -58q-11 18 -16 46q171 156 189 255q1 11 -8 14q-52 -4 -100 -71q-32 4 -52 20q71 93 158 83q33 -14 41 -43q-15 -112 -144 -229q83 21 169 13q26 -3 1 -19q-20 -12 -53 -11zM212 380q13 73 33 135h-16q-22 0 -10 22q28 42 71 48q20 -15 22 -44
q-26 -49 -51 -139q-19 -66 -38 -183q-8 -41 -19 -17q-6 17 -7 43q4 72 15 135zM133 688q29 -13 35 -45q4 -17 -7 -31q-78 -94 -88 -264q-8 -132 70 -248q7 -12 -18 -3q-10 5 -19 14q-79 84 -81 230q2 219 108 347zM575 89q-26 11 -35 35q-6 19 7 31q78 94 88 274
q8 132 -70 248q-7 10 18 3q10 -5 19 -14q80 -84 81 -230q-2 -219 -108 -347z" />
    <glyph glyph-name="uni2480" unicode="&#x2480;" 
d="M435 417q50 10 84 -11q26 -19 26 -50q-26 -61 -75 -106q-48 -49 -107 -78q-20 -11 -41 -9q-34 4 -14 15q80 43 130 95q50 50 65 104q-61 15 -158 -31q-16 17 -10 36q25 14 42 25q84 74 104 157q-41 8 -106 -60q-31 5 -39 33q93 81 155 62q29 -15 34 -49q-24 -76 -90 -133
zM212 380q13 73 33 135h-16q-22 0 -10 22q28 42 71 48q20 -15 22 -44q-26 -49 -51 -139q-19 -66 -38 -183q-8 -41 -19 -17q-6 17 -7 43q4 72 15 135zM133 688q29 -13 35 -45q4 -17 -7 -31q-78 -94 -88 -264q-8 -132 70 -248q7 -12 -18 -3q-10 5 -19 14q-79 84 -81 230
q2 219 108 347zM575 89q-26 11 -35 35q-6 19 7 31q78 94 88 274q8 132 -70 248q-7 10 18 3q10 -5 19 -14q80 -84 81 -230q-2 -219 -108 -347z" />
    <glyph glyph-name="uni2481" unicode="&#x2481;" 
d="M448 383h1q15 96 47 199q30 -5 44 -26q-29 -81 -49 -165q65 9 89 1q23 -12 -13 -19q-42 -8 -84 -19q-17 -82 -25 -168q-3 -32 -18 -2q-5 13 -5 48q1 55 8 112q-50 -13 -110 -32q-18 8 -34 29q39 111 120 218q28 0 49 -18q-85 -99 -123 -181q52 14 103 23zM212 380
q13 73 33 135h-16q-22 0 -10 22q28 42 71 48q20 -15 22 -44q-26 -49 -51 -139q-19 -66 -38 -183q-8 -41 -19 -17q-6 17 -7 43q4 72 15 135zM133 688q29 -13 35 -45q4 -17 -7 -31q-78 -94 -88 -264q-8 -132 70 -248q7 -12 -18 -3q-10 5 -19 14q-79 84 -81 230q2 219 108 347z
M575 89q-26 11 -35 35q-6 19 7 31q78 94 88 274q8 132 -70 248q-7 10 18 3q10 -5 19 -14q80 -84 81 -230q-2 -219 -108 -347z" />
    <glyph glyph-name="uni2482" unicode="&#x2482;" 
d="M344 162q-26 3 -4 16q56 32 90 69q45 52 55 113q-60 -12 -134 -53q-25 7 -32 35q11 65 30 123q-10 -5 -21 -11q-12 27 -2 50q22 9 43 16q15 36 33 69q30 6 50 -14q-12 -18 -22 -37q64 15 129 10q19 -2 1 -18q-17 -13 -37 -12q-40 -1 -95 -19q-11 -4 -23 -9
q-33 -68 -44 -130q71 36 135 36q26 -19 29 -54q-10 -62 -65 -118q-35 -38 -87 -57q-14 -7 -29 -5zM212 380q13 73 33 135h-16q-22 0 -10 22q28 42 71 48q20 -15 22 -44q-26 -49 -51 -139q-19 -66 -38 -183q-8 -41 -19 -17q-6 17 -7 43q4 72 15 135zM133 688q29 -13 35 -45
q4 -17 -7 -31q-78 -94 -88 -264q-8 -132 70 -248q7 -12 -18 -3q-10 5 -19 14q-79 84 -81 230q2 219 108 347zM575 89q-26 11 -35 35q-6 19 7 31q78 94 88 274q8 132 -70 248q-7 10 18 3q10 -5 19 -14q80 -84 81 -230q-2 -219 -108 -347z" />
    <glyph glyph-name="uni2483" unicode="&#x2483;" 
d="M508 210q-32 -32 -82 -32q-55 0 -88 48.5t-33 149.5t38 156q33 51 89 51q47 0 75.5 -28.5t32.5 -72.5h-47q-5 27 -18 40q-18 20 -46 18q-22 -2 -38 -20q-24 -25 -31.5 -64t-7.5 -70q6 23 29.5 41t53.5 18q51 0 81.5 -37t30.5 -97t-39 -101zM360 313q0 -29 9.5 -49.5
t25.5 -32.5q14 -9 34 -9q28 0 49.5 24.5t21.5 66.5t-20.5 64.5t-53.5 22.5q-24 0 -45 -24t-21 -63zM258 193h-49v296q-29 -28 -66 -44v49q56 28 79 83h36v-384zM174 100h-42q-107 138 -107 298q0 156 107 298h42q-49 -80 -74.5 -148.5t-25.5 -149.5q0 -84 25.5 -150.5
t74.5 -147.5zM533 99q48 81 74 147.5t26 151.5q0 80 -26 148.5t-74 149.5h41q108 -141 108 -298q0 -166 -108 -299h-41z" />
    <glyph glyph-name="uni2484" unicode="&#x2484;" 
d="M305 526v47h215v-42l-128 -339h-50l124 334h-161zM258 193h-49v296q-29 -28 -66 -44v49q56 28 79 83h36v-384zM174 100h-42q-107 138 -107 298q0 156 107 298h42q-49 -80 -74.5 -148.5t-25.5 -149.5q0 -84 25.5 -150.5t74.5 -147.5zM533 99q48 81 74 147.5t26 151.5
q0 80 -26 148.5t-74 149.5h41q108 -141 108 -298q0 -166 -108 -299h-41z" />
    <glyph glyph-name="uni2485" unicode="&#x2485;" 
d="M376 431q9 -9 21 -13t22 -4q9 0 21.5 4.5t19.5 12.5q10 9 14.5 22t4.5 24q0 14 -4 25t-14 19q-7 10 -18.5 14.5t-23.5 4.5q-13 0 -24.5 -4.5t-19.5 -14.5q-9 -8 -13 -18t-4 -26q0 -11 4.5 -24t13.5 -22zM529 477q0 -23 -9.5 -40t-23.5 -31q-12 -11 -19 -14q23 -8 42 -30
q23 -29 23 -67q0 -49 -34 -81.5t-89 -32.5q-56 0 -89.5 32.5t-33.5 81.5q0 38 22 67q20 22 42 30q-7 3 -18 14q-15 14 -23.5 32.5t-8.5 38.5q0 22 9 42t23 35q13 12 34 20t44 8q22 0 42 -8t33 -20q15 -15 24.5 -35t9.5 -42zM419 222q31 0 52 21q22 19 22 53t-22 55
q-21 23 -52 23q-32 0 -53 -23q-20 -21 -20 -55q0 -33 20 -53q20 -21 53 -21zM257 193h-48v296q-29 -28 -66 -44v49q56 28 79 83h35v-384zM174 100h-42q-107 138 -107 298q0 156 107 298h42q-49 -80 -74.5 -148.5t-25.5 -149.5q0 -84 25.5 -150.5t74.5 -147.5zM533 99
q48 81 74 147.5t26 151.5q0 80 -26 148.5t-74 149.5h41q108 -141 108 -298q0 -166 -108 -299h-41z" />
    <glyph glyph-name="uni2486" unicode="&#x2486;" 
d="M344 551q31 31 82 31q55 0 89.5 -45t34.5 -142q0 -100 -37 -159q-32 -51 -93 -51q-49 0 -76.5 28t-31.5 72h47q5 -28 19 -40q17 -18 45 -17q26 3 42 21q22 23 30 65.5t8 59.5q-5 -12 -34 -28t-54 -16q-50 0 -78.5 33.5t-28.5 92.5q0 55 36 95zM493 455q-1 28 -10.5 45.5
t-26.5 29.5q-13 9 -35 9q-26 0 -45.5 -22t-19.5 -63q0 -42 18 -60.5t50 -18.5q25 0 47 21t22 59zM257 193h-48v296q-29 -28 -66 -44v49q56 28 79 83h35v-384zM174 100h-42q-107 138 -107 298q0 156 107 298h42q-49 -80 -74.5 -148.5t-25.5 -149.5q0 -84 25.5 -150.5
t74.5 -147.5zM533 99q48 81 74 147.5t26 151.5q0 80 -26 148.5t-74 149.5h41q108 -141 108 -298q0 -166 -108 -299h-41z" />
    <glyph glyph-name="uni2487" unicode="&#x2487;" 
d="M568 387q0 -41 -6 -78.5t-19 -65.5q-13 -27 -32 -41t-38 -14t-38 13.5t-33 41.5q-12 27 -18.5 65t-6.5 79t6.5 78.5t18.5 64.5q14 27 33 41t38 14t38 -14t32 -41t19 -64.5t6 -78.5zM518 387q0 30 -2.5 58.5t-9.5 50.5q-6 20 -15 31t-20 11t-20 -11t-15 -31
q-6 -22 -9 -50.5t-3 -58.5q0 -31 3 -59.5t9 -50.5q6 -20 15.5 -30.5t19.5 -10.5q12 0 20.5 11t14.5 31q7 22 9.5 50t2.5 59zM292 523q-16 19 -36 19q-23 0 -37 -23.5t-14 -64.5h-45q0 59 27 95.5t69 36.5q46 0 71 -33q23 -29 22 -79q0 -40 -28 -85q-63 -90 -100 -141h128
v-46h-181v46q69 88 114 158q22 36 22 66q0 36 -12 51zM174 100h-42q-107 138 -107 298q0 156 107 298h42q-49 -80 -74.5 -148.5t-25.5 -149.5q0 -84 25.5 -150.5t74.5 -147.5zM533 99q48 81 74 147.5t26 151.5q0 80 -26 148.5t-74 149.5h41q108 -141 108 -298
q0 -166 -108 -299h-41z" />
    <glyph glyph-name="uni249C" unicode="&#x249c;" 
d="M411 330q4 117 31 234q35 -4 51 -32q-39 -145 -54 -308q-3 -23 -13 -7q-13 23 -15 67q-75 -54 -164 -62q-45 13 -59 47q-13 72 33 142t129 110q45 -2 63 -29q-88 -34 -138 -98q-40 -52 -44 -126q103 6 180 62zM133 688q29 -13 35 -45q4 -17 -7 -31q-78 -94 -88 -264
q-8 -132 70 -248q7 -12 -18 -3q-10 5 -19 14q-79 84 -81 230q2 219 108 347zM575 89q-26 11 -35 35q-6 19 7 31q78 94 88 274q8 132 -70 248q-7 10 18 3q10 -5 19 -14q80 -84 81 -230q-2 -219 -108 -347z" />
    <glyph glyph-name="uni249D" unicode="&#x249d;" 
d="M298 605q30 -2 51 -35q-24 -80 -42 -160q75 51 156 61q47 -14 58 -60q-5 -112 -77 -184q-67 -66 -177 -71q-6 -28 -20 4q-11 30 -8 79q11 190 59 366zM291 331q-14 -77 -21 -153q82 17 133 74q76 84 67 179q-96 -23 -179 -100zM133 688q29 -13 35 -45q4 -17 -7 -31
q-78 -94 -88 -264q-8 -132 70 -248q7 -12 -18 -3q-10 5 -19 14q-79 84 -81 230q2 219 108 347zM575 89q-26 11 -35 35q-6 19 7 31q78 94 88 274q8 132 -70 248q-7 10 18 3q10 -5 19 -14q80 -84 81 -230q-2 -219 -108 -347z" />
    <glyph glyph-name="uni249E" unicode="&#x249e;" 
d="M463 322q26 18 20 -6q-7 -26 -30 -48q-37 -29 -99 -41q-42 -8 -85 7q-72 34 -56 121q37 154 208 199q41 -7 61 -33q-169 -40 -211 -156q-29 -81 -2 -92q63 -8 129 15q38 13 65 34zM133 688q29 -13 35 -45q4 -17 -7 -31q-78 -94 -88 -264q-8 -132 70 -248q7 -12 -18 -3
q-10 5 -19 14q-79 84 -81 230q2 219 108 347zM575 89q-26 11 -35 35q-6 19 7 31q78 94 88 274q8 132 -70 248q-7 10 18 3q10 -5 19 -14q80 -84 81 -230q-2 -219 -108 -347z" />
    <glyph glyph-name="uni249F" unicode="&#x249f;" 
d="M429 316q12 150 47 291q39 -3 52 -27q-55 -192 -74 -386q-5 -38 -21 -3q-10 28 -8 74q-81 -64 -178 -73q-45 13 -59 47q-15 74 33 142q59 84 148 110q45 -2 63 -29q-94 -20 -161 -105q-38 -48 -40 -118q112 8 198 77zM133 688q29 -13 35 -45q4 -17 -7 -31
q-78 -94 -88 -264q-8 -132 70 -248q7 -12 -18 -3q-10 5 -19 14q-79 84 -81 230q2 219 108 347zM575 89q-26 11 -35 35q-6 19 7 31q78 94 88 274q8 132 -70 248q-7 10 18 3q10 -5 19 -14q80 -84 81 -230q-2 -219 -108 -347z" />
    <glyph glyph-name="uni24A0" unicode="&#x24a0;" 
d="M266 392q116 2 187 61q-1 70 -100 38q-61 -27 -87 -99zM281 208q-41 10 -64 43q-14 35 -13 73q0 11 1 21l-12 6q0 30 8 50q7 -3 14 -5q12 42 37 75q45 60 111 76q125 25 130 -59q1 -48 -27 -77q-71 -67 -210 -73q-6 -43 5 -83q67 -5 117 15q59 24 88 59q12 12 12 -5
q-2 -23 -18 -42q-66 -77 -179 -74zM133 688q29 -13 35 -45q4 -17 -7 -31q-78 -94 -88 -264q-8 -132 70 -248q7 -12 -18 -3q-10 5 -19 14q-79 84 -81 230q2 219 108 347zM575 89q-26 11 -35 35q-6 19 7 31q78 94 88 274q8 132 -70 248q-7 10 18 3q10 -5 19 -14
q80 -84 81 -230q-2 -219 -108 -347z" />
    <glyph glyph-name="uni24A1" unicode="&#x24a1;" 
d="M359 600q43 18 78 5q48 -34 67 -96q-13 -22 -46 -27q-14 50 -47 76q-16 14 -42 -64q-10 -39 -19 -81q70 2 135 -4q27 -3 1 -19q-21 -11 -49 -7q-45 -2 -95 -9q-20 -105 -31 -230q-3 -27 -18 0q-9 22 -10 63q-2 79 8 159q-53 -10 -111 -26q-11 18 -7 53q64 11 124 16
q9 60 25 120q18 59 37 71zM133 688q29 -13 35 -45q4 -17 -7 -31q-78 -94 -88 -264q-8 -132 70 -248q7 -12 -18 -3q-10 5 -19 14q-79 84 -81 230q2 219 108 347zM575 89q-26 11 -35 35q-6 19 7 31q78 94 88 274q8 132 -70 248q-7 10 18 3q10 -5 19 -14q80 -84 81 -230
q-2 -219 -108 -347z" />
    <glyph glyph-name="uni24A2" unicode="&#x24a2;" 
d="M133 688q29 -13 35 -45q4 -17 -7 -31q-78 -94 -88 -264q-8 -132 70 -248q7 -12 -18 -3q-10 5 -19 14q-79 84 -81 230q2 219 108 347zM575 89q-26 11 -35 35q-6 19 7 31q78 94 88 274q8 132 -70 248q-7 10 18 3q10 -5 19 -14q80 -84 81 -230q-2 -219 -108 -347zM403 451
q-59 -71 -160 -106q-36 11 -59 41q0 66 38 135q43 77 123 100q45 -2 63 -29q-77 -14 -139 -92q-37 -47 -52 -110q118 27 194 119q10 60 24 120q36 -3 55 -21q-32 -114 -51 -283q10 1 20 1q32 1 49 -11q18 -16 -2 -17q-36 -3 -71 -9q-3 -22 -5 -45q-3 -47 -3 -88
q-17 -30 -50 -39q-109 25 -183 70q-18 36 -15 73q73 28 143 46q36 9 71 14q1 24 3 50q2 40 7 81zM391 282q-24 -4 -70.5 -18.5t-93.5 -41.5q80 -41 160 -57q1 54 4 117z" />
    <glyph glyph-name="uni24A3" unicode="&#x24a3;" 
d="M281 616q32 2 54 -21q-24 -80 -41 -160q69 50 144 67q37 -5 54 -26q18 -21 17 -56q-8 -113 -37 -188q-13 -33 -36 -52q-16 -12 -11 10q32 134 32 271q-86 -19 -179 -107q-14 -80 -22 -160q-6 -38 -21 -3q-11 30 -8 79q10 180 54 346zM133 688q29 -13 35 -45q4 -17 -7 -31
q-78 -94 -88 -264q-8 -132 70 -248q7 -12 -18 -3q-10 5 -19 14q-79 84 -81 230q2 219 108 347zM575 89q-26 11 -35 35q-6 19 7 31q78 94 88 274q8 132 -70 248q-7 10 18 3q10 -5 19 -14q80 -84 81 -230q-2 -219 -108 -347z" />
    <glyph glyph-name="uni24A4" unicode="&#x24a4;" 
d="M325 437q34 6 53 -16q-23 -109 -39 -261q-3 -29 -16 -9q-12 20 -13 45q-3 128 15 241zM373 632q39 -9 50 -48q-50 -31 -94 -82q-21 -25 -17 16q7 66 61 114zM133 688q29 -13 35 -45q4 -17 -7 -31q-78 -94 -88 -264q-8 -132 70 -248q7 -12 -18 -3q-10 5 -19 14
q-79 84 -81 230q2 219 108 347zM575 89q-26 11 -35 35q-6 19 7 31q78 94 88 274q8 132 -70 248q-7 10 18 3q10 -5 19 -14q80 -84 81 -230q-2 -219 -108 -347z" />
    <glyph glyph-name="uni24A5" unicode="&#x24a5;" 
d="M385 632q39 -9 50 -48q-50 -31 -94 -82q-21 -25 -17 16q7 65 61 114zM352 169q-8 -20 -41 -39q-74 9 -92 48q-14 31 1 26q11 -3 17 -5q44 -18 87 -21q25 148 6 260q29 14 58 9q3 -69 -10 -164q-8 -59 -26 -114zM133 688q29 -13 35 -45q4 -17 -7 -31q-78 -94 -88 -264
q-8 -132 70 -248q7 -12 -18 -3q-10 5 -19 14q-79 84 -81 230q2 219 108 347zM575 89q-26 11 -35 35q-6 19 7 31q78 94 88 274q8 132 -70 248q-7 10 18 3q10 -5 19 -14q80 -84 81 -230q-2 -219 -108 -347z" />
    <glyph glyph-name="uni24A6" unicode="&#x24a6;" 
d="M260 368q93 92 213 147q38 -6 57 -31q-104 -39 -238 -144q84 -72 178 -135q34 -11 44 -35q6 -19 -12 -11q-132 55 -253 145q-11 -64 -17 -128q-5 -42 -21 -3q-11 30 -8 79q11 194 61 374q34 0 54 -25q-36 -116 -58 -233zM133 688q29 -13 35 -45q4 -17 -7 -31
q-78 -94 -88 -264q-8 -132 70 -248q7 -12 -18 -3q-10 5 -19 14q-79 84 -81 230q2 219 108 347zM575 89q-26 11 -35 35q-6 19 7 31q78 94 88 274q8 132 -70 248q-7 10 18 3q10 -5 19 -14q80 -84 81 -230q-2 -219 -108 -347z" />
    <glyph glyph-name="uni24A7" unicode="&#x24a7;" 
d="M416 596q-71 -217 -89 -449q-5 -44 -21 -3q-9 28 -8 79q2 193 64 403q35 -6 54 -30zM133 688q29 -13 35 -45q4 -17 -7 -31q-78 -94 -88 -264q-8 -132 70 -248q7 -12 -18 -3q-10 5 -19 14q-79 84 -81 230q2 219 108 347zM575 89q-26 11 -35 35q-6 19 7 31q78 94 88 274
q8 132 -70 248q-7 10 18 3q10 -5 19 -14q80 -84 81 -230q-2 -219 -108 -347z" />
    <glyph glyph-name="uni24A8" unicode="&#x24a8;" 
d="M393 398q-9 -76 -33 -136q-12 -28 -32 -44q-18 -15 -13 9q33 147 36 277q-79 -14 -160 -97q-23 -95 -38 -187q-2 -14 -11 -3q-17 21 -13 85q7 113 37 247q31 -1 56 -23q-5 -19 -10 -37q62 52 130 57q37 -13 49 -41q5 -15 6 -42q80 52 151 47q34 -10 45 -43
q5 -123 -40 -217q-10 -21 -28 -33q-20 -14 -14 7q35 125 36 248q-84 -12 -154 -74zM133 688q29 -13 35 -45q4 -17 -7 -31q-78 -94 -88 -264q-8 -132 70 -248q7 -12 -18 -3q-10 5 -19 14q-79 84 -81 230q2 219 108 347zM575 89q-26 11 -35 35q-6 19 7 31q78 94 88 274
q8 132 -70 248q-7 10 18 3q10 -5 19 -14q80 -84 81 -230q-2 -219 -108 -347z" />
    <glyph glyph-name="uni24A9" unicode="&#x24a9;" 
d="M468 264q-13 -33 -36 -52q-16 -12 -11 10q32 134 32 269q-86 -19 -179 -107q-20 -85 -33 -168q-2 -13 -11 -3q-17 21 -13 85q7 113 37 247q31 -1 56 -23q-8 -27 -15 -54q67 47 139 64q37 -5 54 -26q18 -21 17 -56q-8 -112 -37 -186zM133 688q29 -13 35 -45q4 -17 -7 -31
q-78 -94 -88 -264q-8 -132 70 -248q7 -12 -18 -3q-10 5 -19 14q-79 84 -81 230q2 219 108 347zM575 89q-26 11 -35 35q-6 19 7 31q78 94 88 274q8 132 -70 248q-7 10 18 3q10 -5 19 -14q80 -84 81 -230q-2 -219 -108 -347z" />
    <glyph glyph-name="uni24AA" unicode="&#x24aa;" 
d="M133 688q29 -13 35 -45q4 -17 -7 -31q-78 -94 -88 -264q-8 -132 70 -248q7 -12 -18 -3q-10 5 -19 14q-79 84 -81 230q2 219 108 347zM575 89q-26 11 -35 35q-6 19 7 31q78 94 88 274q8 132 -70 248q-7 10 18 3q10 -5 19 -14q80 -84 81 -230q-2 -219 -108 -347zM411 511
q22 -1 41 -11q59 -53 40 -120q-26 -80 -120 -127q-57 -28 -105 -8q-42 21 -51 67q-15 79 57 157q52 56 96 68q27 -7 42 -26zM398 494q-44 -11 -83 -56q-60 -69 -54 -130q3 -30 25 -32q80 5 132 80q57 89 -20 138z" />
    <glyph glyph-name="uni24AB" unicode="&#x24ab;" 
d="M367 597q95 -21 142 -92q10 -22 6 -48q-35 -98 -171 -141q-33 -10 -58 -8q-10 -72 -15 -149q-3 -31 -17 -3q-10 21 -12 75q-6 147 37 319q-29 -5 -59 -17q-6 33 9 63q76 15 138 1zM290 340q132 34 189 137q-53 67 -131 76q-5 1 -9 1q-31 -101 -49 -214zM133 688
q29 -13 35 -45q4 -17 -7 -31q-78 -94 -88 -264q-8 -132 70 -248q7 -12 -18 -3q-10 5 -19 14q-79 84 -81 230q2 219 108 347zM575 89q-26 11 -35 35q-6 19 7 31q78 94 88 274q8 132 -70 248q-7 10 18 3q10 -5 19 -14q80 -84 81 -230q-2 -219 -108 -347z" />
    <glyph glyph-name="uni24AC" unicode="&#x24ac;" 
d="M415 374q-65 -69 -167 -96q-36 11 -59 41q-14 73 28 145q43 73 143 110q45 -2 63 -29q-108 -30 -159 -102q-44 -63 -42 -120q117 19 200 107q13 86 35 164q34 -4 53 -27q-53 -175 -74 -427q-2 -25 -17 -2q-16 23 -15 77q2 82 11 159zM133 688q29 -13 35 -45q4 -17 -7 -31
q-78 -94 -88 -264q-8 -132 70 -248q7 -12 -18 -3q-10 5 -19 14q-79 84 -81 230q2 219 108 347zM575 89q-26 11 -35 35q-6 19 7 31q78 94 88 274q8 132 -70 248q-7 10 18 3q10 -5 19 -14q80 -84 81 -230q-2 -219 -108 -347z" />
    <glyph glyph-name="uni24AD" unicode="&#x24ad;" 
d="M304 450q9 10 19 19q58 44 124 48q30 2 44 -8q20 -18 -2 -19q-78 -9 -139 -58q-42 -33 -73 -95q-13 -63 -23 -124q-3 -12 -11 -3q-17 21 -13 85q7 113 37 247q31 -1 56 -23q-10 -35 -19 -69zM133 688q29 -13 35 -45q4 -17 -7 -31q-78 -94 -88 -264q-8 -132 70 -248
q7 -12 -18 -3q-10 5 -19 14q-79 84 -81 230q2 219 108 347zM575 89q-26 11 -35 35q-6 19 7 31q78 94 88 274q8 132 -70 248q-7 10 18 3q10 -5 19 -14q80 -84 81 -230q-2 -219 -108 -347z" />
    <glyph glyph-name="uni24AE" unicode="&#x24ae;" 
d="M352 352q-123 25 -112 93q17 97 156 120q41 -15 47 -51q-143 -9 -160 -72q-6 -29 75 -48q116 -18 104 -85q-15 -86 -129 -96q-66 -4 -113 39q-5 5 -8 12q-7 17 19 6q51 -26 104 -18q71 13 79 60q5 26 -62 40zM133 688q29 -13 35 -45q4 -17 -7 -31q-78 -94 -88 -264
q-8 -132 70 -248q7 -12 -18 -3q-10 5 -19 14q-79 84 -81 230q2 219 108 347zM575 89q-26 11 -35 35q-6 19 7 31q78 94 88 274q8 132 -70 248q-7 10 18 3q10 -5 19 -14q80 -84 81 -230q-2 -219 -108 -347z" />
    <glyph glyph-name="uni24AF" unicode="&#x24af;" 
d="M302 391v1q-55 -10 -116 -27q-11 18 -7 53q67 12 130 17q21 113 50 210q39 -4 58 -27q-34 -88 -54 -180q66 2 128 -4q27 -3 1 -19q-21 -11 -49 -7q-42 -1 -88 -8q-1 -1 -1 -3q-25 -135 -27 -225q68 6 124 43q22 13 16 -8q-6 -18 -25 -35q-31 -27 -82 -45q-47 -3 -72 30
q-8 91 14 234zM133 688q29 -13 35 -45q4 -17 -7 -31q-78 -94 -88 -264q-8 -132 70 -248q7 -12 -18 -3q-10 5 -19 14q-79 84 -81 230q2 219 108 347zM575 89q-26 11 -35 35q-6 19 7 31q78 94 88 274q8 132 -70 248q-7 10 18 3q10 -5 19 -14q80 -84 81 -230q-2 -219 -108 -347
z" />
    <glyph glyph-name="uni24B0" unicode="&#x24b0;" 
d="M133 688q29 -13 35 -45q4 -17 -7 -31q-78 -94 -88 -264q-8 -132 70 -248q7 -12 -18 -3q-10 5 -19 14q-79 84 -81 230q2 219 108 347zM575 89q-26 11 -35 35q-6 19 7 31q78 94 88 274q8 132 -70 248q-7 10 18 3q10 -5 19 -14q80 -84 81 -230q-2 -219 -108 -347zM433 324
q-41 -56 -104 -87q-51 -25 -72 -3q-28 21 -30 68q-4 115 36 241q31 1 56 -24q-44 -103 -56 -217q-4 -41 45 -23q74 33 128 109q7 91 28 182q35 -4 51 -32q-38 -145 -54 -308q-3 -23 -13 -7q-15 27 -15 82v19z" />
    <glyph glyph-name="uni24B1" unicode="&#x24b1;" 
d="M269 530q22 -163 75 -284q60 135 134 234q21 28 45 36q20 6 8 -14q-92 -144 -150 -291q-18 -18 -48 -17q-89 154 -127 347q37 1 63 -11zM133 688q29 -13 35 -45q4 -17 -7 -31q-78 -94 -88 -264q-8 -132 70 -248q7 -12 -18 -3q-10 5 -19 14q-79 84 -81 230q2 219 108 347z
M575 89q-26 11 -35 35q-6 19 7 31q78 94 88 274q8 132 -70 248q-7 10 18 3q10 -5 19 -14q80 -84 81 -230q-2 -219 -108 -347z" />
    <glyph glyph-name="uni24B2" unicode="&#x24b2;" 
d="M336 498q31 8 55 -10q27 -140 64 -238q45 122 98 214q19 32 42 38q13 3 6 -11q-64 -131 -111 -275q-23 -22 -54 -19q-54 121 -82 240q-51 -105 -100 -238q-16 -18 -47 -15q-45 133 -73 336q36 1 62 -11q12 -152 29 -267q52 130 111 256zM133 688q29 -13 35 -45
q4 -17 -7 -31q-78 -94 -88 -264q-8 -132 70 -248q7 -12 -18 -3q-10 5 -19 14q-79 84 -81 230q2 219 108 347zM575 89q-26 11 -35 35q-6 19 7 31q78 94 88 274q8 132 -70 248q-7 10 18 3q10 -5 19 -14q80 -84 81 -230q-2 -219 -108 -347z" />
    <glyph glyph-name="uni24B3" unicode="&#x24b3;" 
d="M207 267q36 61 81 118q-36 55 -67 118q13 27 38 33q27 -59 60 -113q61 70 137 134q27 -5 45 -27q-81 -72 -154 -151q53 -80 119 -150q13 -16 -14 -12q-22 4 -39 19q-52 49 -97 110q-58 -64 -109 -131q-14 -17 -13 5q2 24 13 47zM133 688q29 -13 35 -45q4 -17 -7 -31
q-78 -94 -88 -264q-8 -132 70 -248q7 -12 -18 -3q-10 5 -19 14q-79 84 -81 230q2 219 108 347zM575 89q-26 11 -35 35q-6 19 7 31q78 94 88 274q8 132 -70 248q-7 10 18 3q10 -5 19 -14q80 -84 81 -230q-2 -219 -108 -347z" />
    <glyph glyph-name="uni24B4" unicode="&#x24b4;" 
d="M317 314q-90 68 -122 181q8 51 45 65q20 -133 94 -208q59 125 145 217q33 -3 50 -27q-152 -166 -241 -401q-14 -34 -22 -10q-5 16 1 41q22 76 50 142zM133 688q29 -13 35 -45q4 -17 -7 -31q-78 -94 -88 -264q-8 -132 70 -248q7 -12 -18 -3q-10 5 -19 14q-79 84 -81 230
q2 219 108 347zM575 89q-26 11 -35 35q-6 19 7 31q78 94 88 274q8 132 -70 248q-7 10 18 3q10 -5 19 -14q80 -84 81 -230q-2 -219 -108 -347z" />
    <glyph glyph-name="uni24B5" unicode="&#x24b5;" 
d="M237 276q93 128 197 221q-75 7 -170 -46q-15 28 -16 54q98 43 205 36q36 -20 36 -59q-109 -91 -200 -199q97 11 190 0q27 -3 1 -19q-21 -11 -49 -7q-92 -4 -217 -42q-11 23 -7 55zM133 688q29 -13 35 -45q4 -17 -7 -31q-78 -94 -88 -264q-8 -132 70 -248q7 -12 -18 -3
q-10 5 -19 14q-79 84 -81 230q2 219 108 347zM575 89q-26 11 -35 35q-6 19 7 31q78 94 88 274q8 132 -70 248q-7 10 18 3q10 -5 19 -14q80 -84 81 -230q-2 -219 -108 -347z" />
    <glyph glyph-name="uni24B6" unicode="&#x24b6;" 
d="M282 327l-42 -112h-52l146 370h48l134 -370h-49l-40 112h-145zM298 368h115l-56 158zM682 388q0 -67 -26 -125.5t-71 -102.5q-44 -42 -104 -68t-127 -26q-69 0 -129 26t-104 68q-44 44 -70 102.5t-26 125.5t26 125t70 103q44 42 104 68t129 26q67 0 127 -26t104 -68
q45 -45 71 -103t26 -125zM639 388q0 56 -22.5 108t-61.5 90q-40 39 -92 61t-109 22q-59 0 -111 -22t-92 -61q-39 -38 -61 -90t-22 -108q0 -58 22 -109.5t62 -89.5q39 -39 91 -61.5t111 -22.5q57 0 109 22.5t92 61.5q39 38 61.5 89.5t22.5 109.5z" />
    <glyph glyph-name="uni24B7" unicode="&#x24b7;" 
d="M239 205v367h135q37 0 64.5 -10.5t40.5 -32.5q16 -25 16 -53q0 -33 -17 -54q-15 -19 -32 -25q25 -5 45 -29.5t20 -57.5q0 -28 -12 -50t-28 -33q-31 -22 -94 -22h-138zM286 415h76q33 0 48 4q18 5 28 19t10 34q0 30 -18.5 44.5t-60.5 14.5h-83v-116zM286 246h92
q45 0 64 16q22 17 22 47q0 43 -40 60q-17 8 -62 8h-76v-131zM682 388q0 -67 -26 -125.5t-71 -102.5q-44 -42 -104 -68t-127 -26q-69 0 -129 26t-104 68q-44 44 -70 102.5t-26 125.5t26 125t70 103q44 42 104 68t129 26q67 0 127 -26t104 -68q45 -45 71 -103t26 -125z
M639 388q0 56 -22.5 108t-61.5 90q-40 39 -92 61t-109 22q-59 0 -111 -22t-92 -61q-39 -38 -61 -90t-22 -108q0 -58 22 -109.5t62 -89.5q39 -39 91 -61.5t111 -22.5q57 0 109 22.5t92 61.5q39 38 61.5 89.5t22.5 109.5z" />
    <glyph glyph-name="uni24B8" unicode="&#x24b8;" 
d="M459 343h49q-1 -53 -42 -98t-109 -45q-55 0 -91.5 27t-53.5 68q-18 41 -18 95q0 52 18.5 96.5t61.5 72.5q32 22 85 22q63 0 103.5 -40t42.5 -90h-48q-8 42 -36.5 65t-63.5 23q-39 0 -65.5 -20.5t-38.5 -54.5q-12 -32 -12 -74t13.5 -76.5t40.5 -52.5q30 -19 60 -19
q41 0 71 28.5t33 72.5zM682 388q0 -67 -26 -125.5t-71 -102.5q-44 -42 -104 -68t-127 -26q-69 0 -129 26t-104 68q-44 44 -70 102.5t-26 125.5t26 125t70 103q44 42 104 68t129 26q67 0 127 -26t104 -68q45 -45 71 -103t26 -125zM639 388q0 56 -22.5 108t-61.5 90
q-40 39 -92 61t-109 22q-59 0 -111 -22t-92 -61q-39 -38 -61 -90t-22 -108q0 -58 22 -109.5t62 -89.5q39 -39 91 -61.5t111 -22.5q57 0 109 22.5t92 61.5q39 38 61.5 89.5t22.5 109.5z" />
    <glyph glyph-name="uni24B9" unicode="&#x24b9;" 
d="M528 390q0 -48 -16.5 -88.5t-43.5 -63.5q-40 -31 -110 -31h-127v367h127q70 0 110 -33q27 -21 43.5 -61t16.5 -90zM480 390q0 51 -17 86t-48 48q-21 9 -62 9h-74v-285h74q41 0 63 8q30 13 47 48t17 86zM682 388q0 -67 -26 -125.5t-71 -102.5q-44 -42 -104 -68t-127 -26
q-69 0 -129 26t-104 68q-44 44 -70 102.5t-26 125.5t26 125t70 103q44 42 104 68t129 26q67 0 127 -26t104 -68q45 -45 71 -103t26 -125zM639 388q0 56 -22.5 108t-61.5 90q-40 39 -92 61t-109 22q-59 0 -111 -22t-92 -61q-39 -38 -61 -90t-22 -108q0 -58 22 -109.5
t62 -89.5q39 -39 91 -61.5t111 -22.5q57 0 109 22.5t92 61.5q39 38 61.5 89.5t22.5 109.5z" />
    <glyph glyph-name="uni24BA" unicode="&#x24ba;" 
d="M236 204v368h234v-42h-187v-115h172v-40h-172v-129h197v-42h-244zM682 388q0 -67 -26 -125.5t-71 -102.5q-44 -42 -104 -68t-127 -26q-69 0 -129 26t-104 68q-44 44 -70 102.5t-26 125.5t26 125t70 103q44 42 104 68t129 26q67 0 127 -26t104 -68q45 -45 71 -103t26 -125
zM639 388q0 56 -22.5 108t-61.5 90q-40 39 -92 61t-109 22q-59 0 -111 -22t-92 -61q-39 -38 -61 -90t-22 -108q0 -58 22 -109.5t62 -89.5q39 -39 91 -61.5t111 -22.5q57 0 109 22.5t92 61.5q39 38 61.5 89.5t22.5 109.5z" />
    <glyph glyph-name="uni24BB" unicode="&#x24bb;" 
d="M249 204v368h236v-42h-189v-120h174v-40h-174v-166h-47zM682 388q0 -67 -26 -125.5t-71 -102.5q-44 -42 -104 -68t-127 -26q-69 0 -129 26t-104 68q-44 44 -70 102.5t-26 125.5t26 125t70 103q44 42 104 68t129 26q67 0 127 -26t104 -68q45 -45 71 -103t26 -125zM639 388
q0 56 -22.5 108t-61.5 90q-40 39 -92 61t-109 22q-59 0 -111 -22t-92 -61q-39 -38 -61 -90t-22 -108q0 -58 22 -109.5t62 -89.5q39 -39 91 -61.5t111 -22.5q57 0 109 22.5t92 61.5q39 38 61.5 89.5t22.5 109.5z" />
    <glyph glyph-name="uni24BC" unicode="&#x24bc;" 
d="M353 352v40h148v-134q-20 -23 -59 -40.5t-83 -17.5q-70 0 -117 44q-53 52 -53 145t55 148q46 44 112 44q67 0 107 -40q37 -39 39 -88h-44q-8 37 -30 58q-25 29 -71 29q-49 0 -79 -32q-42 -41 -42 -119q0 -73 38 -115q30 -33 83 -33q32 0 59 11t39 24v76h-102zM682 388
q0 -67 -26 -125.5t-71 -102.5q-44 -42 -104 -68t-127 -26q-69 0 -129 26t-104 68q-44 44 -70 102.5t-26 125.5t26 125t70 103q44 42 104 68t129 26q67 0 127 -26t104 -68q45 -45 71 -103t26 -125zM639 388q0 56 -22.5 108t-61.5 90q-40 39 -92 61t-109 22q-59 0 -111 -22
t-92 -61q-39 -38 -61 -90t-22 -108q0 -58 22 -109.5t62 -89.5q39 -39 91 -61.5t111 -22.5q57 0 109 22.5t92 61.5q39 38 61.5 89.5t22.5 109.5z" />
    <glyph glyph-name="uni24BD" unicode="&#x24bd;" 
d="M218 204v368h47v-159h182v159h47v-368h-47v168h-182v-168h-47zM682 388q0 -67 -26 -125.5t-71 -102.5q-44 -42 -104 -68t-127 -26q-69 0 -129 26t-104 68q-44 44 -70 102.5t-26 125.5t26 125t70 103q44 42 104 68t129 26q67 0 127 -26t104 -68q45 -45 71 -103t26 -125z
M639 388q0 56 -22.5 108t-61.5 90q-40 39 -92 61t-109 22q-59 0 -111 -22t-92 -61q-39 -38 -61 -90t-22 -108q0 -58 22 -109.5t62 -89.5q39 -39 91 -61.5t111 -22.5q57 0 109 22.5t92 61.5q39 38 61.5 89.5t22.5 109.5z" />
    <glyph glyph-name="uni24BE" unicode="&#x24be;" 
d="M332 204v368h46v-368h-46zM682 388q0 -67 -26 -125.5t-71 -102.5q-44 -42 -104 -68t-127 -26q-69 0 -129 26t-104 68q-44 44 -70 102.5t-26 125.5t26 125t70 103q44 42 104 68t129 26q67 0 127 -26t104 -68q45 -45 71 -103t26 -125zM639 388q0 56 -22.5 108t-61.5 90
q-40 39 -92 61t-109 22q-59 0 -111 -22t-92 -61q-39 -38 -61 -90t-22 -108q0 -58 22 -109.5t62 -89.5q39 -39 91 -61.5t111 -22.5q57 0 109 22.5t92 61.5q39 38 61.5 89.5t22.5 109.5z" />
    <glyph glyph-name="uni24BF" unicode="&#x24bf;" 
d="M230 308h48q1 -40 19 -54q15 -16 36 -16q25 0 40 18q14 16 14 53v261h47v-264q0 -52 -26 -81q-29 -28 -75 -28q-50 0 -78 31q-28 32 -25 80zM682 388q0 -67 -26 -125.5t-71 -102.5q-44 -42 -104 -68t-127 -26q-69 0 -129 26t-104 68q-44 44 -70 102.5t-26 125.5t26 125
t70 103q44 42 104 68t129 26q67 0 127 -26t104 -68q45 -45 71 -103t26 -125zM639 388q0 56 -22.5 108t-61.5 90q-40 39 -92 61t-109 22q-59 0 -111 -22t-92 -61q-39 -38 -61 -90t-22 -108q0 -58 22 -109.5t62 -89.5q39 -39 91 -61.5t111 -22.5q57 0 109 22.5t92 61.5
q39 38 61.5 89.5t22.5 109.5z" />
    <glyph glyph-name="uni24C0" unicode="&#x24c0;" 
d="M335 394l181 -190h-59l-152 160l-31 -32v-128h-47v368h47v-179l171 179h59zM682 388q0 -67 -26 -125.5t-71 -102.5q-44 -42 -104 -68t-127 -26q-69 0 -129 26t-104 68q-44 44 -70 102.5t-26 125.5t26 125t70 103q44 42 104 68t129 26q67 0 127 -26t104 -68
q45 -45 71 -103t26 -125zM639 388q0 56 -22.5 108t-61.5 90q-40 39 -92 61t-109 22q-59 0 -111 -22t-92 -61q-39 -38 -61 -90t-22 -108q0 -58 22 -109.5t62 -89.5q39 -39 91 -61.5t111 -22.5q57 0 109 22.5t92 61.5q39 38 61.5 89.5t22.5 109.5z" />
    <glyph glyph-name="uni24C1" unicode="&#x24c1;" 
d="M252 204v368h47v-326h182v-42h-229zM682 388q0 -67 -26 -125.5t-71 -102.5q-44 -42 -104 -68t-127 -26q-69 0 -129 26t-104 68q-44 44 -70 102.5t-26 125.5t26 125t70 103q44 42 104 68t129 26q67 0 127 -26t104 -68q45 -45 71 -103t26 -125zM639 388q0 56 -22.5 108
t-61.5 90q-40 39 -92 61t-109 22q-59 0 -111 -22t-92 -61q-39 -38 -61 -90t-22 -108q0 -58 22 -109.5t62 -89.5q39 -39 91 -61.5t111 -22.5q57 0 109 22.5t92 61.5q39 38 61.5 89.5t22.5 109.5z" />
    <glyph glyph-name="uni24C2" unicode="&#x24c2;" 
d="M197 204v368h67l90 -303l88 303h68v-368h-43v301l-92 -301h-45l-91 301v-301h-42zM682 388q0 -67 -26 -125.5t-71 -102.5q-44 -42 -104 -68t-127 -26q-69 0 -129 26t-104 68q-44 44 -70 102.5t-26 125.5t26 125t70 103q44 42 104 68t129 26q67 0 127 -26t104 -68
q45 -45 71 -103t26 -125zM639 388q0 56 -22.5 108t-61.5 90q-40 39 -92 61t-109 22q-59 0 -111 -22t-92 -61q-39 -38 -61 -90t-22 -108q0 -58 22 -109.5t62 -89.5q39 -39 91 -61.5t111 -22.5q57 0 109 22.5t92 61.5q39 38 61.5 89.5t22.5 109.5z" />
    <glyph glyph-name="uni24C3" unicode="&#x24c3;" 
d="M218 207v367h46l185 -289v289h45v-367h-46l-184 287v-287h-46zM682 388q0 -67 -26 -125.5t-71 -102.5q-44 -42 -104 -68t-127 -26q-69 0 -129 26t-104 68q-44 44 -70 102.5t-26 125.5t26 125t70 103q44 42 104 68t129 26q67 0 127 -26t104 -68q45 -45 71 -103t26 -125z
M639 388q0 56 -22.5 108t-61.5 90q-40 39 -92 61t-109 22q-59 0 -111 -22t-92 -61q-39 -38 -61 -90t-22 -108q0 -58 22 -109.5t62 -89.5q39 -39 91 -61.5t111 -22.5q57 0 109 22.5t92 61.5q39 38 61.5 89.5t22.5 109.5z" />
    <glyph glyph-name="uni24C4" unicode="&#x24c4;" 
d="M518 390q0 -39 -11 -76t-34 -64q-22 -24 -53.5 -38t-65.5 -14q-33 0 -64 14t-54 38q-22 27 -33.5 63t-11.5 75q0 38 11.5 74.5t34.5 62.5q22 25 53 39t64 14q34 0 65.5 -14t53.5 -39q23 -26 34 -61.5t11 -73.5zM472 388q0 30 -8.5 58.5t-24.5 49.5t-38.5 31t-46.5 10
q-23 0 -45 -10t-39 -31q-16 -20 -24 -49t-8 -59q0 -31 8 -59.5t24 -48.5q17 -21 39 -31t45 -10q24 0 46.5 10t39.5 31q15 20 23.5 48.5t8.5 59.5zM682 388q0 -67 -26 -125.5t-71 -102.5q-44 -42 -104 -68t-127 -26q-69 0 -129 26t-104 68q-44 44 -70 102.5t-26 125.5t26 125
t70 103q44 42 104 68t129 26q67 0 127 -26t104 -68q45 -45 71 -103t26 -125zM639 388q0 56 -22.5 108t-61.5 90q-40 39 -92 61t-109 22q-59 0 -111 -22t-92 -61q-39 -38 -61 -90t-22 -108q0 -58 22 -109.5t62 -89.5q39 -39 91 -61.5t111 -22.5q57 0 109 22.5t92 61.5
q39 38 61.5 89.5t22.5 109.5z" />
    <glyph glyph-name="uni24C5" unicode="&#x24c5;" 
d="M368 351h-79v-147h-47v368h122q74 0 106 -27q33 -31 33 -85q0 -55 -35 -81q-33 -28 -100 -28zM369 392q45 0 67 15q20 17 20 53q0 37 -21 53q-19 17 -65 17h-81v-138h80zM682 388q0 -67 -26 -125.5t-71 -102.5q-44 -42 -104 -68t-127 -26q-69 0 -129 26t-104 68
q-44 44 -70 102.5t-26 125.5t26 125t70 103q44 42 104 68t129 26q67 0 127 -26t104 -68q45 -45 71 -103t26 -125zM639 388q0 56 -22.5 108t-61.5 90q-40 39 -92 61t-109 22q-59 0 -111 -22t-92 -61q-39 -38 -61 -90t-22 -108q0 -58 22 -109.5t62 -89.5q39 -39 91 -61.5
t111 -22.5q57 0 109 22.5t92 61.5q39 38 61.5 89.5t22.5 109.5z" />
    <glyph glyph-name="uni24C6" unicode="&#x24c6;" 
d="M682 388q0 -67 -26 -125.5t-71 -102.5q-44 -42 -104 -68t-127 -26q-69 0 -129 26t-104 68q-44 44 -70 102.5t-26 125.5t26 125t70 103q44 42 104 68t129 26q67 0 127 -26t104 -68q45 -45 71 -103t26 -125zM639 388q0 56 -22.5 108t-61.5 90q-40 39 -92 61t-109 22
q-59 0 -111 -22t-92 -61q-39 -38 -61 -90t-22 -108q0 -58 22 -109.5t62 -89.5q39 -39 91 -61.5t111 -22.5q57 0 109 22.5t92 61.5q39 38 61.5 89.5t22.5 109.5zM514 391q0 -37 -12 -73.5t-34 -62.5l-7 -7l53 -65h-54l-32 40q-5 -4 -13 -7q-32 -14 -65 -14q-34 0 -65.5 14
t-53.5 39q-22 26 -34 62.5t-12 73.5q0 40 12 76.5t34 61.5q22 26 53.5 40t65.5 14q33 0 64.5 -14t53.5 -40q22 -25 34 -61.5t12 -76.5zM467 391q0 32 -8.5 60t-24.5 49q-17 21 -39 31t-45 10q-24 0 -46.5 -10t-39.5 -31q-15 -20 -23.5 -48.5t-8.5 -60.5q0 -29 8.5 -58
t23.5 -48q17 -22 39.5 -31.5t46.5 -9.5q23 0 45 10l5 2l-73 90h54l52 -63l2 2q15 19 23.5 48t8.5 58z" />
    <glyph glyph-name="uni24C7" unicode="&#x24c7;" 
d="M278 360v-156h-47v368h122q75 0 106 -26q34 -30 34 -82q0 -54 -35 -79q-24 -19 -44 -21q-4 1 15 -16q15 -16 33 -49l49 -95h-52l-52 97q-14 27 -37 46q-25 21 -23 17h1zM359 397q45 0 66 17t21 50q0 34 -21 51q-19 16 -66 16h-81v-134h81zM682 388q0 -67 -26 -125.5
t-71 -102.5q-44 -42 -104 -68t-127 -26q-69 0 -129 26t-104 68q-44 44 -70 102.5t-26 125.5t26 125t70 103q44 42 104 68t129 26q67 0 127 -26t104 -68q45 -45 71 -103t26 -125zM639 388q0 56 -22.5 108t-61.5 90q-40 39 -92 61t-109 22q-59 0 -111 -22t-92 -61
q-39 -38 -61 -90t-22 -108q0 -58 22 -109.5t62 -89.5q39 -39 91 -61.5t111 -22.5q57 0 109 22.5t92 61.5q39 38 61.5 89.5t22.5 109.5z" />
    <glyph glyph-name="uni24C8" unicode="&#x24c8;" 
d="M286 436q17 -14 66 -23t78 -21q32 -11 49 -32.5t17 -52.5q0 -65 -56 -94q-34 -17 -77 -17q-89 0 -128 57q-23 32 -23 70h47q2 -24 15 -44.5t37 -32.5q20 -10 49 -10q44 0 66 19q24 19 24 49q0 37 -43 55q-15 5 -60.5 14t-68.5 17q-54 26 -54 82q0 29 15.5 52t44.5 39
q27 14 68 14q44 0 73.5 -14.5t44.5 -38.5q17 -26 19 -59h-47q-4 32 -25 52t-63 20q-43 0 -63 -19.5t-20 -42.5q0 -27 15 -39zM682 388q0 -67 -26 -125.5t-71 -102.5q-44 -42 -104 -68t-127 -26q-69 0 -129 26t-104 68q-44 44 -70 102.5t-26 125.5t26 125t70 103
q44 42 104 68t129 26q67 0 127 -26t104 -68q45 -45 71 -103t26 -125zM639 388q0 56 -22.5 108t-61.5 90q-40 39 -92 61t-109 22q-59 0 -111 -22t-92 -61q-39 -38 -61 -90t-22 -108q0 -58 22 -109.5t62 -89.5q39 -39 91 -61.5t111 -22.5q57 0 109 22.5t92 61.5
q39 38 61.5 89.5t22.5 109.5z" />
    <glyph glyph-name="uni24C9" unicode="&#x24c9;" 
d="M331 189v326h-128v42h302v-42h-128v-326h-46zM682 388q0 -67 -26 -125.5t-71 -102.5q-44 -42 -104 -68t-127 -26q-69 0 -129 26t-104 68q-44 44 -70 102.5t-26 125.5t26 125t70 103q44 42 104 68t129 26q67 0 127 -26t104 -68q45 -45 71 -103t26 -125zM639 388
q0 56 -22.5 108t-61.5 90q-40 39 -92 61t-109 22q-59 0 -111 -22t-92 -61q-39 -38 -61 -90t-22 -108q0 -58 22 -109.5t62 -89.5q39 -39 91 -61.5t111 -22.5q57 0 109 22.5t92 61.5q39 38 61.5 89.5t22.5 109.5z" />
    <glyph glyph-name="uni24CA" unicode="&#x24ca;" 
d="M354 196q-77 0 -114 51q-28 36 -28 110v212h47v-210q0 -66 20 -91q27 -31 75 -31q47 0 73 31q20 25 20 91v210h47v-211q0 -74 -27 -111q-36 -51 -113 -51zM682 388q0 -67 -26 -125.5t-71 -102.5q-44 -42 -104 -68t-127 -26q-69 0 -129 26t-104 68q-44 44 -70 102.5
t-26 125.5t26 125t70 103q44 42 104 68t129 26q67 0 127 -26t104 -68q45 -45 71 -103t26 -125zM639 388q0 56 -22.5 108t-61.5 90q-40 39 -92 61t-109 22q-59 0 -111 -22t-92 -61q-39 -38 -61 -90t-22 -108q0 -58 22 -109.5t62 -89.5q39 -39 91 -61.5t111 -22.5
q57 0 109 22.5t92 61.5q39 38 61.5 89.5t22.5 109.5z" />
    <glyph glyph-name="uni24CB" unicode="&#x24cb;" 
d="M329 192l-140 367h50l114 -307l112 307h49l-138 -367h-47zM682 388q0 -67 -26 -125.5t-71 -102.5q-44 -42 -104 -68t-127 -26q-69 0 -129 26t-104 68q-44 44 -70 102.5t-26 125.5t26 125t70 103q44 42 104 68t129 26q67 0 127 -26t104 -68q45 -45 71 -103t26 -125z
M639 388q0 56 -22.5 108t-61.5 90q-40 39 -92 61t-109 22q-59 0 -111 -22t-92 -61q-39 -38 -61 -90t-22 -108q0 -58 22 -109.5t62 -89.5q39 -39 91 -61.5t111 -22.5q57 0 109 22.5t92 61.5q39 38 61.5 89.5t22.5 109.5z" />
    <glyph glyph-name="uni24CC" unicode="&#x24cc;" 
d="M335 559h40l66 -295l58 295h42l-79 -367h-42l-66 289l-67 -289h-42l-79 367h43l58 -296zM682 388q0 -67 -26 -125.5t-71 -102.5q-44 -42 -104 -68t-127 -26q-69 0 -129 26t-104 68q-44 44 -70 102.5t-26 125.5t26 125t70 103q44 42 104 68t129 26q67 0 127 -26t104 -68
q45 -45 71 -103t26 -125zM639 388q0 56 -22.5 108t-61.5 90q-40 39 -92 61t-109 22q-59 0 -111 -22t-92 -61q-39 -38 -61 -90t-22 -108q0 -58 22 -109.5t62 -89.5q39 -39 91 -61.5t111 -22.5q57 0 109 22.5t92 61.5q39 38 61.5 89.5t22.5 109.5z" />
    <glyph glyph-name="uni24CD" unicode="&#x24cd;" 
d="M257 572l97 -144l99 144h56l-128 -182l136 -186h-56l-107 149l-105 -149h-56l135 186l-129 182h58zM682 388q0 -67 -26 -125.5t-71 -102.5q-44 -42 -104 -68t-127 -26q-69 0 -129 26t-104 68q-44 44 -70 102.5t-26 125.5t26 125t70 103q44 42 104 68t129 26q67 0 127 -26
t104 -68q45 -45 71 -103t26 -125zM639 388q0 56 -22.5 108t-61.5 90q-40 39 -92 61t-109 22q-59 0 -111 -22t-92 -61q-39 -38 -61 -90t-22 -108q0 -58 22 -109.5t62 -89.5q39 -39 91 -61.5t111 -22.5q57 0 109 22.5t92 61.5q39 38 61.5 89.5t22.5 109.5z" />
    <glyph glyph-name="uni24CE" unicode="&#x24ce;" 
d="M332 199v150l-141 217h54l110 -175l111 175h52l-141 -217v-150h-45zM682 388q0 -67 -26 -125.5t-71 -102.5q-44 -42 -104 -68t-127 -26q-69 0 -129 26t-104 68q-44 44 -70 102.5t-26 125.5t26 125t70 103q44 42 104 68t129 26q67 0 127 -26t104 -68q45 -45 71 -103
t26 -125zM639 388q0 56 -22.5 108t-61.5 90q-40 39 -92 61t-109 22q-59 0 -111 -22t-92 -61q-39 -38 -61 -90t-22 -108q0 -58 22 -109.5t62 -89.5q39 -39 91 -61.5t111 -22.5q57 0 109 22.5t92 61.5q39 38 61.5 89.5t22.5 109.5z" />
    <glyph glyph-name="uni24CF" unicode="&#x24cf;" 
d="M215 204v40l221 286h-213v42h270v-40l-223 -286h229v-42h-284zM682 388q0 -67 -26 -125.5t-71 -102.5q-44 -42 -104 -68t-127 -26q-69 0 -129 26t-104 68q-44 44 -70 102.5t-26 125.5t26 125t70 103q44 42 104 68t129 26q67 0 127 -26t104 -68q45 -45 71 -103t26 -125z
M639 388q0 56 -22.5 108t-61.5 90q-40 39 -92 61t-109 22q-59 0 -111 -22t-92 -61q-39 -38 -61 -90t-22 -108q0 -58 22 -109.5t62 -89.5q39 -39 91 -61.5t111 -22.5q57 0 109 22.5t92 61.5q39 38 61.5 89.5t22.5 109.5z" />
    <glyph glyph-name="uni24D0" unicode="&#x24d0;" 
d="M411 330q4 117 31 234q35 -4 51 -32q-39 -145 -54 -308q-3 -23 -13 -7q-13 23 -15 67q-75 -54 -164 -62q-45 13 -59 47q-13 72 33 142t129 110q45 -2 63 -29q-88 -34 -138 -98q-40 -52 -44 -126q103 6 180 62zM331 692l9 2q26 8 64 2q116 -22 181 -80q107 -98 107 -238
q-1 -136 -104 -232q-109 -94 -244 -94q-69 2 -129.5 29t-104.5 73q-45 45 -70.5 105.5t-23.5 128.5q0 137 96 235q75 77 192 95q18 -9 27 -26zM336 662q-104 -12 -182 -83q-81 -76 -83 -193q-1 -57 16 -108t55 -90q38 -41 90.5 -65t113.5 -26q119 3 208 81q89 88 89 198
q-1 128 -82 205q-88 76 -225 81z" />
    <glyph glyph-name="uni24D1" unicode="&#x24d1;" 
d="M298 605q30 -2 51 -35q-24 -80 -42 -160q75 51 156 61q47 -14 58 -60q-5 -112 -77 -184q-67 -66 -177 -71q-6 -28 -20 4q-11 30 -8 79q11 190 59 366zM291 331q-14 -77 -21 -153q82 17 133 74q76 84 67 179q-96 -23 -179 -100zM331 692l9 2q26 8 64 2q116 -22 181 -80
q107 -98 107 -238q-1 -136 -104 -232q-109 -94 -244 -94q-69 2 -129.5 29t-104.5 73q-45 45 -70.5 105.5t-23.5 128.5q0 137 96 235q75 77 192 95q18 -9 27 -26zM336 662q-104 -12 -182 -83q-81 -76 -83 -193q-1 -57 16 -108t55 -90q38 -41 90.5 -65t113.5 -26q119 3 208 81
q89 88 89 198q-1 128 -82 205q-88 76 -225 81z" />
    <glyph glyph-name="uni24D2" unicode="&#x24d2;" 
d="M463 322q26 18 20 -6q-7 -26 -30 -48q-37 -29 -99 -41q-42 -8 -85 7q-72 34 -56 121q37 154 208 199q41 -7 61 -33q-169 -40 -211 -156q-29 -81 -2 -92q63 -8 129 15q38 13 65 34zM331 692l9 2q26 8 64 2q116 -22 181 -80q107 -98 107 -238q-1 -136 -104 -232
q-109 -94 -244 -94q-69 2 -129.5 29t-104.5 73q-45 45 -70.5 105.5t-23.5 128.5q0 137 96 235q75 77 192 95q18 -9 27 -26zM336 662q-104 -12 -182 -83q-81 -76 -83 -193q-1 -57 16 -108t55 -90q38 -41 90.5 -65t113.5 -26q119 3 208 81q89 88 89 198q-1 128 -82 205
q-88 76 -225 81z" />
    <glyph glyph-name="uni24D3" unicode="&#x24d3;" 
d="M429 316q12 150 47 291q39 -3 52 -27q-55 -192 -74 -386q-5 -38 -21 -3q-10 28 -8 74q-81 -64 -178 -73q-45 13 -59 47q-15 74 33 142q59 84 148 110q45 -2 63 -29q-94 -20 -161 -105q-38 -48 -40 -118q112 8 198 77zM331 692l9 2q26 8 64 2q116 -22 181 -80
q107 -98 107 -238q-1 -136 -104 -232q-109 -94 -244 -94q-69 2 -129.5 29t-104.5 73q-45 45 -70.5 105.5t-23.5 128.5q0 137 96 235q75 77 192 95q18 -9 27 -26zM336 662q-104 -12 -182 -83q-81 -76 -83 -193q-1 -57 16 -108t55 -90q38 -41 90.5 -65t113.5 -26q119 3 208 81
q89 88 89 198q-1 128 -82 205q-88 76 -225 81z" />
    <glyph glyph-name="uni24D4" unicode="&#x24d4;" 
d="M266 392q116 2 187 61q-1 70 -100 38q-61 -27 -87 -99zM281 208q-41 10 -64 43q-14 35 -13 73q0 11 1 21l-12 6q0 30 8 50q7 -3 14 -5q12 42 37 75q45 60 111 76q125 25 130 -59q1 -48 -27 -77q-71 -67 -210 -73q-6 -43 5 -83q67 -5 117 15q59 24 88 59q12 12 12 -5
q-2 -23 -18 -42q-66 -77 -179 -74zM331 692l9 2q26 8 64 2q116 -22 181 -80q107 -98 107 -238q-1 -136 -104 -232q-109 -94 -244 -94q-69 2 -129.5 29t-104.5 73q-45 45 -70.5 105.5t-23.5 128.5q0 137 96 235q75 77 192 95q18 -9 27 -26zM336 662q-104 -12 -182 -83
q-81 -76 -83 -193q-1 -57 16 -108t55 -90q38 -41 90.5 -65t113.5 -26q119 3 208 81q89 88 89 198q-1 128 -82 205q-88 76 -225 81z" />
    <glyph glyph-name="uni24D5" unicode="&#x24d5;" 
d="M359 600q43 18 78 5q48 -34 67 -96q-13 -22 -46 -27q-14 50 -47 76q-16 14 -42 -64q-10 -39 -19 -81q70 2 135 -4q27 -3 1 -19q-21 -11 -49 -7q-45 -2 -95 -9q-20 -105 -31 -230q-3 -27 -18 0q-9 22 -10 63q-2 79 8 159q-53 -10 -111 -26q-11 18 -7 53q64 11 124 16
q9 60 25 120q18 59 37 71zM331 692l9 2q26 8 64 2q116 -22 181 -80q107 -98 107 -238q-1 -136 -104 -232q-109 -94 -244 -94q-69 2 -129.5 29t-104.5 73q-45 45 -70.5 105.5t-23.5 128.5q0 137 96 235q75 77 192 95q18 -9 27 -26zM336 662q-104 -12 -182 -83
q-81 -76 -83 -193q-1 -57 16 -108t55 -90q38 -41 90.5 -65t113.5 -26q119 3 208 81q89 88 89 198q-1 128 -82 205q-88 76 -225 81z" />
    </font>
</defs>
</svg>
